<svg width="28" height="28" viewBox="0 0 28 28" fill="none" xmlns="http://www.w3.org/2000/svg">
<path d="M18.0654 24.7236C17.9525 24.7603 17.8307 24.7603 17.7178 24.7236C17.5894 24.6819 17.4779 24.5697 17.2549 24.3467C17.0319 24.1237 16.9206 24.0121 16.8789 23.8838C16.8422 23.7709 16.8422 23.649 16.8789 23.5361C16.9207 23.408 17.0316 23.2965 17.2539 23.0742L21.4082 18.9219C19.7748 18.9275 18.0193 18.9326 16.2871 18.9385C14.3364 18.9451 12.8185 18.9517 11.6025 18.8564C10.3762 18.7603 9.37628 18.5563 8.47656 18.1006C6.98526 17.345 5.77123 16.1353 5.01074 14.6465C4.55218 13.7484 4.34542 12.7493 4.24512 11.5234C4.14573 10.3079 4.14648 8.79033 4.14648 6.83984V5.21582C4.14648 4.90135 4.1469 4.74418 4.20801 4.62402C4.26197 4.51803 4.34808 4.43184 4.4541 4.37793C4.57428 4.31686 4.73152 4.31714 5.0459 4.31738C5.36116 4.31738 5.51943 4.3168 5.63965 4.37793C5.74543 4.43183 5.83185 4.51825 5.88574 4.62402C5.9469 4.74425 5.94727 4.90215 5.94727 5.2168V6.83887C5.94727 8.81963 5.94703 10.2517 6.03906 11.377C6.13027 12.4917 6.30701 13.2265 6.61426 13.8281C7.20149 14.9777 8.13848 15.9117 9.29004 16.4951C9.89266 16.8003 10.6281 16.9741 11.7432 17.0615C12.8688 17.1498 14.3004 17.1454 16.2812 17.1387C18.016 17.1328 19.7737 17.1275 21.4092 17.1221L17.2539 12.9678C17.0317 12.7455 16.9207 12.634 16.8789 12.5059C16.8422 12.393 16.8423 12.2711 16.8789 12.1582C16.9206 12.0299 17.0319 11.9183 17.2549 11.6953C17.4779 11.4722 17.5894 11.3601 17.7178 11.3184C17.8307 11.2817 17.9525 11.2817 18.0654 11.3184C18.1937 11.3601 18.3048 11.4718 18.5273 11.6943L24.1377 17.3047C24.1431 17.3101 24.1839 17.3495 24.2197 17.3916C24.2636 17.4433 24.3505 17.556 24.4043 17.7217C24.4672 17.9161 24.4674 18.1259 24.4043 18.3203C24.3503 18.4861 24.2625 18.5979 24.2188 18.6494C24.1822 18.6924 24.1417 18.7333 24.1377 18.7373L18.5273 24.3477C18.3048 24.5702 18.1937 24.6819 18.0654 24.7236Z" fill="currentColor" fill-opacity="0.9"/>
</svg>
