<svg width="28" height="28" viewBox="0 0 28 28" fill="none" xmlns="http://www.w3.org/2000/svg">
<circle cx="14" cy="14" r="10.5" fill="black"/>
<path d="M9.00586 13.394C8.96917 13.2811 8.96917 13.1593 9.00586 13.0464C9.04758 12.9181 9.15924 12.8071 9.38184 12.5845L13.2842 8.68115C13.29 8.67531 13.3292 8.63565 13.3711 8.6001C13.4097 8.56734 13.4825 8.51067 13.5859 8.46143L13.6416 8.43896C13.6633 8.43026 13.6745 8.42628 13.6855 8.42236C13.6954 8.41889 13.7058 8.41552 13.7158 8.4126C13.7273 8.40926 13.7395 8.4056 13.7627 8.3999L13.8477 8.37939C13.9981 8.35558 14.1536 8.36809 14.2998 8.41553C14.4655 8.46938 14.5763 8.55726 14.6279 8.60107C14.6705 8.63721 14.711 8.67728 14.7158 8.68213L18.6182 12.5854C18.8407 12.8081 18.9524 12.919 18.9941 13.0474C19.0308 13.1603 19.0308 13.2821 18.9941 13.395C18.9524 13.5233 18.8407 13.6344 18.6182 13.8569C18.3954 14.0797 18.2836 14.1912 18.1553 14.2329C18.0425 14.2695 17.9214 14.2695 17.8086 14.2329C17.6803 14.1912 17.5683 14.0805 17.3457 13.8579L14.9014 11.4126L14.9014 18.7329C14.9014 19.0472 14.9009 19.2045 14.8398 19.3247C14.7859 19.4305 14.6995 19.5169 14.5937 19.5708C14.4735 19.6319 14.3153 19.6323 14 19.6323C13.6851 19.6323 13.5274 19.6319 13.4072 19.5708C13.3014 19.5169 13.215 19.4305 13.1611 19.3247C13.1 19.2045 13.0996 19.0472 13.0996 18.7329L13.0996 11.4126L10.6553 13.8579C10.4326 14.0805 10.3207 14.1912 10.1924 14.2329C10.0796 14.2695 9.95846 14.2695 9.8457 14.2329C9.71735 14.1912 9.60493 14.08 9.38184 13.8569C9.15893 13.634 9.04759 13.5223 9.00586 13.394Z" fill="white"/>
</svg>
