<svg width="28" height="28" viewBox="0 0 28 28" fill="none" xmlns="http://www.w3.org/2000/svg">
<path d="M25.5972 16.9606C25.9931 17.3565 26.1907 17.5548 26.2649 17.7831C26.3302 17.9838 26.3308 18.2003 26.2656 18.4011C26.1914 18.6294 25.9925 18.8275 25.5965 19.2235L25.031 19.7891C24.6351 20.1849 24.4374 20.3832 24.2092 20.4575C24.0084 20.5228 23.7913 20.5228 23.5905 20.4575C23.3623 20.3832 23.1646 20.1849 22.7688 19.7891L14.0004 11.0207L5.23197 19.7891C4.83605 20.185 4.63784 20.3826 4.40954 20.4568C4.20873 20.522 3.99232 20.5228 3.79151 20.4575C3.56328 20.3833 3.36556 20.1849 2.96978 19.7891L2.40354 19.2228C2.00776 18.8271 1.8093 18.6293 1.7351 18.4011C1.66986 18.2003 1.67057 17.9839 1.7358 17.7831C1.80997 17.5548 2.00763 17.3566 2.40354 16.9606L12.8686 6.4956C13.2646 6.09959 13.4634 5.90136 13.6917 5.82717C13.8924 5.76206 14.1084 5.76201 14.309 5.82717C14.5373 5.90134 14.7356 6.09908 15.1315 6.49491L25.5972 16.9606Z" fill="black" style="mix-blend-mode:luminosity"/>
<path d="M25.5972 16.9606C25.9931 17.3565 26.1907 17.5548 26.2649 17.7831C26.3302 17.9838 26.3308 18.2003 26.2656 18.4011C26.1914 18.6294 25.9925 18.8275 25.5965 19.2235L25.031 19.7891C24.6351 20.1849 24.4374 20.3832 24.2092 20.4575C24.0084 20.5228 23.7913 20.5228 23.5905 20.4575C23.3623 20.3832 23.1646 20.1849 22.7688 19.7891L14.0004 11.0207L5.23197 19.7891C4.83605 20.185 4.63784 20.3826 4.40954 20.4568C4.20873 20.522 3.99232 20.5228 3.79151 20.4575C3.56328 20.3833 3.36556 20.1849 2.96978 19.7891L2.40354 19.2228C2.00776 18.8271 1.8093 18.6293 1.7351 18.4011C1.66986 18.2003 1.67057 17.9839 1.7358 17.7831C1.80997 17.5548 2.00763 17.3566 2.40354 16.9606L12.8686 6.4956C13.2646 6.09959 13.4634 5.90136 13.6917 5.82717C13.8924 5.76206 14.1084 5.76201 14.309 5.82717C14.5373 5.90134 14.7356 6.09908 15.1315 6.49491L25.5972 16.9606Z" fill="white" fill-opacity="0.01" style="mix-blend-mode:plus-lighter"/>
</svg>
