<svg width="26" height="26" viewBox="0 0 26 26" fill="none" xmlns="http://www.w3.org/2000/svg">
<path d="M16.4883 14.9834C16.2696 14.7648 15.915 14.7648 15.6963 14.9834L11.8906 18.7891C11.5787 19.101 11.5785 19.6063 11.8896 19.9189L15.6787 23.7236C15.897 23.9426 16.2516 23.9439 16.4707 23.7256L16.9521 23.2461C17.1709 23.028 17.1717 22.6732 16.9541 22.4541L14.7637 20.2549H23.1943C23.5033 20.2545 23.7539 20.0033 23.7539 19.6943V19.0146C23.7539 18.7056 23.5033 18.4545 23.1943 18.4541H14.7715L16.9697 16.2559C17.1879 16.0372 17.1881 15.6824 16.9697 15.4639L16.4883 14.9834Z" fill="black" fill-opacity="0.8"/>
<path d="M9.78125 2.29688C7.54104 2.29688 6.4201 2.29645 5.56445 2.73242C4.81195 3.11589 4.19987 3.72796 3.81641 4.48047C3.38043 5.33612 3.38086 6.45706 3.38086 8.69727V16.3682C3.38086 17.9282 3.3811 18.7084 3.5957 19.3369C3.99592 20.5088 4.91602 21.4298 6.08789 21.8301C6.7164 22.0447 7.49666 22.0439 9.05664 22.0439C9.27506 22.0439 9.38466 22.0447 9.47266 22.0146C9.63672 21.9586 9.76526 21.8291 9.82129 21.665C9.85124 21.5771 9.85156 21.4681 9.85156 21.25V21.1406C9.85156 20.827 9.85108 20.6696 9.79004 20.5498C9.73636 20.4447 9.65103 20.3593 9.5459 20.3057C9.42611 20.2446 9.26871 20.2441 8.95508 20.2441H8.86133C7.57324 20.2441 6.92852 20.2448 6.43652 19.9941C6.00375 19.7736 5.65215 19.4211 5.43164 18.9883C5.18106 18.4963 5.18066 17.8524 5.18066 16.5645V7.77734C5.18066 6.48922 5.18096 5.84454 5.43164 5.35254C5.65213 4.9199 6.00388 4.56814 6.43652 4.34766C6.92852 4.09697 7.57321 4.09668 8.86133 4.09668H14.7646C16.0528 4.09668 16.6975 4.09697 17.1895 4.34766C17.6221 4.56814 17.9739 4.9199 18.1943 5.35254C18.445 5.84454 18.4453 6.48922 18.4453 7.77734V12.7139C18.4453 13.0275 18.4448 13.1849 18.5059 13.3047C18.5595 13.41 18.6457 13.4951 18.751 13.5488C18.8707 13.6098 19.0287 13.6104 19.3447 13.6104C19.661 13.6104 19.8197 13.6099 19.9395 13.5488C20.0446 13.4952 20.1299 13.4098 20.1836 13.3047C20.2446 13.1849 20.2451 13.0275 20.2451 12.7139V8.69727C20.2451 6.45705 20.2455 5.33612 19.8096 4.48047C19.4261 3.72796 18.814 3.11589 18.0615 2.73242C17.2059 2.29645 16.0849 2.29688 13.8447 2.29688H9.78125Z" fill="black" fill-opacity="0.8"/>
<path d="M8.70996 11.0322C8.39643 11.0322 8.23989 11.0328 8.12012 11.0938C8.01477 11.1474 7.92869 11.2326 7.875 11.3379C7.81396 11.4577 7.81445 11.6163 7.81445 11.9326C7.81445 12.2486 7.81403 12.4066 7.875 12.5264C7.92869 12.6317 8.01475 12.7178 8.12012 12.7715C8.23985 12.8323 8.39671 12.832 8.70996 12.832H14.918C15.2312 12.832 15.3881 12.8323 15.5078 12.7715C15.6132 12.7178 15.6992 12.6317 15.7529 12.5264C15.8139 12.4066 15.8145 12.2486 15.8145 11.9326C15.8145 11.6163 15.814 11.4577 15.7529 11.3379C15.6992 11.2326 15.6132 11.1474 15.5078 11.0938C15.388 11.0328 15.2315 11.0322 14.918 11.0322H8.70996Z" fill="black" fill-opacity="0.8"/>
<path d="M8.70996 6.94141C8.39668 6.94141 8.23986 6.94112 8.12012 7.00195C8.01475 7.05564 7.92869 7.1417 7.875 7.24707C7.81405 7.36681 7.81445 7.52485 7.81445 7.84082C7.81445 8.15712 7.81396 8.31576 7.875 8.43555C7.92869 8.54085 8.01479 8.62602 8.12012 8.67969C8.23989 8.74065 8.39646 8.74121 8.70996 8.74121H14.918C15.2315 8.74121 15.388 8.74065 15.5078 8.67969C15.6131 8.62602 15.6992 8.54085 15.7529 8.43555C15.814 8.31576 15.8145 8.15712 15.8145 7.84082C15.8145 7.52485 15.8139 7.36681 15.7529 7.24707C15.6992 7.1417 15.6132 7.05564 15.5078 7.00195C15.3881 6.94112 15.2313 6.94141 14.918 6.94141H8.70996Z" fill="black" fill-opacity="0.8"/>
</svg>
