<svg width="28" height="28" viewBox="0 0 28 28" fill="none" xmlns="http://www.w3.org/2000/svg">
<path d="M19.6387 15.3354C19.9524 15.3354 20.1097 15.3359 20.2295 15.397C20.3348 15.4507 20.4209 15.5367 20.4746 15.6421C20.5354 15.7618 20.5353 15.9201 20.5352 16.2358C20.535 16.5521 20.5347 16.7108 20.4736 16.8306C20.4199 16.9357 20.3338 17.0211 20.2285 17.0747C20.1088 17.1355 19.952 17.1354 19.6387 17.1353H18.4072L20.5801 19.3081C20.8014 19.5294 20.9125 19.6404 20.9541 19.7681C20.9906 19.8805 20.9906 20.0023 20.9541 20.1147C20.9125 20.2425 20.8005 20.3543 20.5771 20.5776C20.3537 20.801 20.242 20.914 20.1143 20.9556C20.0018 20.9921 19.88 20.9921 19.7676 20.9556C19.6398 20.914 19.5291 20.802 19.3076 20.5806L17.1348 18.4087V19.6401C17.1348 19.9534 17.1352 20.1103 17.0742 20.23C17.0206 20.3353 16.9344 20.4204 16.8291 20.4741C16.7094 20.5351 16.5514 20.5355 16.2354 20.5356C15.9189 20.5358 15.7604 20.5361 15.6406 20.4751C15.5353 20.4214 15.4502 20.3353 15.3965 20.23C15.3354 20.1102 15.335 19.9536 15.335 19.6401V16.936C15.335 16.3761 15.3354 16.0962 15.4443 15.8823C15.5402 15.6942 15.6928 15.5407 15.8809 15.4448C16.0947 15.3359 16.3748 15.3365 16.9346 15.3364L19.6387 15.3354Z" fill="black" fill-opacity="0.8"/>
<path d="M7.88379 7.04443C7.99626 7.00789 8.118 7.00789 8.23047 7.04443C8.3582 7.086 8.46897 7.197 8.69043 7.41846L10.8633 9.59131V8.35986C10.8633 8.04657 10.863 7.88975 10.9238 7.77002C10.9775 7.66467 11.0636 7.57861 11.1689 7.5249C11.2886 7.46406 11.4468 7.4635 11.7627 7.46338C12.0791 7.46326 12.2376 7.46389 12.3574 7.5249C12.4625 7.57852 12.5479 7.66395 12.6016 7.76904C12.6626 7.88886 12.6631 8.04613 12.6631 8.35986V11.063C12.6631 11.623 12.6627 11.9038 12.5537 12.1177C12.4578 12.3056 12.3051 12.4584 12.1172 12.5542C11.9033 12.6632 11.6233 12.6635 11.0635 12.6636H8.35938C8.04568 12.6636 7.88837 12.664 7.76856 12.603C7.66315 12.5493 7.57712 12.4633 7.52344 12.3579C7.46247 12.2381 7.46277 12.0795 7.46289 11.7632C7.46301 11.4471 7.46335 11.2892 7.52441 11.1694C7.57814 11.0641 7.66415 10.978 7.76953 10.9243C7.88927 10.8636 8.04624 10.8637 8.35938 10.8638L9.59082 10.8647L7.41797 8.69092C7.19649 8.46944 7.0855 8.35871 7.04395 8.23096C7.00745 8.11853 7.00742 7.9967 7.04395 7.88428C7.08564 7.75675 7.19785 7.64541 7.4209 7.42236C7.64439 7.19887 7.75604 7.08605 7.88379 7.04443Z" fill="black" fill-opacity="0.8"/>
<path fill-rule="evenodd" clip-rule="evenodd" d="M17.8213 3.7749C20.0613 3.7749 21.1815 3.77459 22.0371 4.21045C22.7896 4.59388 23.4016 5.20602 23.7852 5.9585C24.2211 6.81413 24.2217 7.9351 24.2217 10.1753V17.8247C24.2217 20.0648 24.221 21.1849 23.7852 22.0405C23.4017 22.7932 22.7898 23.4051 22.0371 23.7886C21.1815 24.2246 20.0615 24.2251 17.8213 24.2251H10.1758C7.93571 24.2251 6.81559 24.2245 5.95996 23.7886C5.20732 23.4051 4.59541 22.7932 4.21191 22.0405C3.77601 21.1849 3.77541 20.0648 3.77539 17.8247V10.1753C3.77537 7.93506 3.77497 6.81415 4.21094 5.9585C4.5944 5.20599 5.20649 4.59392 5.95898 4.21045C6.81464 3.77447 7.93555 3.7749 10.1758 3.7749H17.8213ZM9.25586 5.57666C7.96772 5.57666 7.32306 5.57695 6.83106 5.82764C6.39843 6.04816 6.04662 6.39985 5.82617 6.83252C5.57556 7.32448 5.57518 7.96844 5.5752 9.25635V18.7437C5.57521 20.0315 5.57553 20.6755 5.82617 21.1675C6.04662 21.6001 6.39846 21.9518 6.83106 22.1724C7.32305 22.423 7.96775 22.4233 9.25586 22.4233H18.7412C20.0291 22.4233 20.6731 22.4229 21.165 22.1724C21.5978 21.9519 21.9504 21.6003 22.1709 21.1675C22.4215 20.6755 22.4209 20.0315 22.4209 18.7437V9.25635C22.4209 7.9686 22.4214 7.32445 22.1709 6.83252C21.9504 6.39975 21.5978 6.04814 21.165 5.82764C20.6731 5.57699 20.0293 5.57666 18.7412 5.57666H9.25586Z" fill="black" fill-opacity="0.8"/>
</svg>
