<svg width="28" height="28" viewBox="0 0 28 28" fill="none" xmlns="http://www.w3.org/2000/svg">
<path d="M19.026 22.693C17.486 23.659 15.799 24.142 13.965 24.142C12.131 24.142 10.444 23.659 8.904 22.693L7.707 24.52C7.539 24.772 7.315 24.898 7.035 24.898H6.006C5.838 24.898 5.698 24.842 5.586 24.73C5.488 24.618 5.502 24.457 5.628 24.247L7.392 21.538C6.454 20.656 5.726 19.62 5.208 18.43C4.69 17.226 4.431 15.952 4.431 14.608C4.431 12.886 4.858 11.297 5.712 9.841C6.566 8.371 7.721 7.209 9.177 6.355C10.647 5.487 12.243 5.053 13.965 5.053C15.687 5.053 17.276 5.487 18.732 6.355C20.202 7.209 21.364 8.371 22.218 9.841C23.072 11.297 23.499 12.886 23.499 14.608C23.499 15.952 23.24 17.226 22.722 18.43C22.204 19.62 21.476 20.656 20.538 21.538L22.323 24.289C22.421 24.443 22.428 24.583 22.344 24.709C22.274 24.835 22.134 24.898 21.924 24.898H21C20.79 24.898 20.629 24.87 20.517 24.814C20.405 24.758 20.286 24.632 20.16 24.436L19.026 22.693ZM4.914 8.014C4.83 7.986 4.76 7.902 4.704 7.762C4.452 7.146 4.375 6.544 4.473 5.956C4.557 5.382 4.781 4.878 5.145 4.444C5.509 4.01 5.95 3.695 6.468 3.499C7 3.289 7.553 3.226 8.127 3.31C8.421 3.366 8.701 3.457 8.967 3.583C9.233 3.709 9.478 3.87 9.702 4.066C9.842 4.178 9.912 4.283 9.912 4.381C9.912 4.479 9.842 4.584 9.702 4.696L5.25 7.909C5.124 7.993 5.012 8.028 4.914 8.014ZM13.398 15.175C13.496 15.259 13.636 15.301 13.818 15.301H18.606C18.774 15.301 18.907 15.252 19.005 15.154C19.103 15.056 19.152 14.923 19.152 14.755V14.461C19.152 14.293 19.103 14.16 19.005 14.062C18.907 13.964 18.774 13.915 18.606 13.915H14.658V8.665C14.658 8.497 14.609 8.371 14.511 8.287C14.413 8.189 14.266 8.14 14.07 8.14H13.881C13.475 8.14 13.272 8.315 13.272 8.665V14.776C13.272 14.944 13.314 15.077 13.398 15.175ZM23.016 7.993C22.932 8.021 22.841 8.007 22.743 7.951L18.186 4.654C18.06 4.57 18.004 4.479 18.018 4.381C18.032 4.283 18.102 4.178 18.228 4.066C18.452 3.87 18.697 3.709 18.963 3.583C19.229 3.457 19.509 3.366 19.803 3.31C20.377 3.226 20.923 3.289 21.441 3.499C21.973 3.695 22.421 4.01 22.785 4.444C23.149 4.878 23.373 5.382 23.457 5.956C23.555 6.544 23.471 7.16 23.205 7.804C23.163 7.902 23.1 7.965 23.016 7.993Z" fill="currentColor"/>
</svg>
