<svg width="28" height="28" viewBox="0 0 28 28" fill="none" xmlns="http://www.w3.org/2000/svg">
<path d="M23.9008 6.5C24.7842 6.50016 25.5002 7.21623 25.5005 8.09961V19.9004C25.5002 20.7838 24.7842 21.4998 23.9008 21.5H10.1938C9.75039 21.5 9.32647 21.3163 9.02389 20.9922L3.51706 15.0918C2.94353 14.4771 2.94353 13.5229 3.51706 12.9082L9.02389 7.00781C9.32647 6.68368 9.75039 6.50002 10.1938 6.5H23.9008ZM20.018 10.0596C19.9178 10.027 19.8097 10.0271 19.7094 10.0596C19.5954 10.0967 19.496 10.1958 19.2983 10.3936L16.9643 12.7266L14.6313 10.3936C14.4333 10.1956 14.3334 10.0967 14.2192 10.0596C14.1189 10.0271 14.0108 10.027 13.9106 10.0596C13.7965 10.0967 13.6973 10.1957 13.4995 10.3936L13.3579 10.5352C13.16 10.733 13.061 10.8322 13.0239 10.9463C12.9913 11.0467 12.9913 11.1555 13.0239 11.2559C13.0611 11.3698 13.1601 11.4693 13.3579 11.667L15.6909 14L13.3579 16.333C13.1601 16.5307 13.0611 16.6301 13.0239 16.7441C12.9913 16.8445 12.9913 16.9533 13.0239 17.0537C13.061 17.1678 13.16 17.267 13.3579 17.4648L13.4995 17.6064C13.6973 17.8043 13.7966 17.9033 13.9106 17.9404C14.011 17.973 14.1198 17.973 14.2202 17.9404C14.3342 17.9033 14.4336 17.8042 14.6313 17.6064L16.9643 15.2734L19.2973 17.6064C19.495 17.8041 19.5945 17.9032 19.7085 17.9404C19.8088 17.973 19.9176 17.973 20.018 17.9404C20.1321 17.9033 20.2313 17.8043 20.4292 17.6064L20.5708 17.4648C20.7687 17.2669 20.8677 17.1678 20.9048 17.0537C20.9373 16.9534 20.9372 16.8454 20.9048 16.7451C20.8676 16.631 20.7688 16.531 20.5708 16.333L18.2378 14L20.5708 11.667C20.7687 11.469 20.8676 11.369 20.9048 11.2549C20.9372 11.1546 20.9373 11.0466 20.9048 10.9463C20.8676 10.8322 20.7687 10.7331 20.5708 10.5352L20.4292 10.3936C20.2313 10.1957 20.1322 10.0967 20.018 10.0596Z" fill="currentColor"/>
</svg>
