<svg width="28" height="28" viewBox="0 0 28 28" fill="none" xmlns="http://www.w3.org/2000/svg">
<path d="M16.2354 15.3945C16.3478 15.3581 16.4696 15.358 16.582 15.3945C16.7096 15.4362 16.8207 15.5473 17.042 15.7686L19.2139 17.9414V16.71C19.2139 16.3966 19.2145 16.2399 19.2754 16.1201C19.329 16.0148 19.4142 15.9287 19.5195 15.875C19.6393 15.8139 19.798 15.8136 20.1143 15.8135C20.4303 15.8134 20.5882 15.8141 20.708 15.875C20.8133 15.9286 20.8994 16.0138 20.9531 16.1191C21.0142 16.239 21.0146 16.3962 21.0146 16.71V19.4131C21.0146 19.9727 21.0141 20.2529 20.9053 20.4668C20.8095 20.6548 20.6567 20.8084 20.4688 20.9043C20.2549 21.0133 19.974 21.0136 19.4141 21.0137H16.71C16.3968 21.0137 16.2399 21.014 16.1201 20.9531C16.0147 20.8994 15.9287 20.8134 15.875 20.708C15.814 20.5882 15.8143 20.4297 15.8145 20.1133C15.8146 19.7975 15.8141 19.6392 15.875 19.5195C15.9287 19.4142 16.0147 19.3281 16.1201 19.2744C16.2399 19.2134 16.3974 19.2138 16.7109 19.2139H17.9424L15.7686 17.041C15.5473 16.8197 15.4361 16.7087 15.3945 16.5811C15.3581 16.4687 15.358 16.3467 15.3945 16.2344C15.4362 16.1068 15.5485 15.9954 15.7715 15.7725C15.995 15.5489 16.1076 15.4361 16.2354 15.3945Z" fill="currentColor" fill-opacity="0.8"/>
<path d="M11.29 6.98633C11.6038 6.98633 11.761 6.98679 11.8809 7.04785C11.986 7.10151 12.0714 7.18685 12.125 7.29199C12.186 7.41182 12.1866 7.57028 12.1865 7.88672C12.1864 8.20268 12.1859 8.36077 12.125 8.48047C12.0713 8.5858 11.9852 8.67192 11.8799 8.72559C11.7602 8.78641 11.6032 8.78613 11.29 8.78613H10.0596L12.2314 10.959C12.4529 11.1805 12.5639 11.2912 12.6055 11.4189C12.642 11.5314 12.642 11.6532 12.6055 11.7656C12.5639 11.8933 12.4517 12.0053 12.2285 12.2285C12.0054 12.4516 11.8932 12.5638 11.7656 12.6055C11.6532 12.642 11.5314 12.642 11.4189 12.6055C11.2912 12.5639 11.1805 12.4529 10.959 12.2314L8.78613 10.0586V11.29C8.78623 11.6032 8.78634 11.7601 8.72559 11.8799C8.67194 11.9853 8.58582 12.0713 8.48047 12.125C8.36074 12.186 8.20275 12.1864 7.88672 12.1865C7.57037 12.1866 7.41183 12.187 7.29199 12.126C7.18657 12.0723 7.10058 11.9863 7.04688 11.8809C6.98587 11.761 6.98629 11.6037 6.98633 11.29V8.58594C6.9864 8.02609 6.98672 7.74608 7.0957 7.53223C7.19159 7.34409 7.34505 7.19156 7.5332 7.0957C7.74708 6.9868 8.02706 6.98633 8.58691 6.98633H11.29Z" fill="currentColor" fill-opacity="0.8"/>
<path fill-rule="evenodd" clip-rule="evenodd" d="M17.8232 3.77539C20.0632 3.77539 21.1835 3.77506 22.0391 4.21094C22.7916 4.59437 23.4036 5.2065 23.7871 5.95898C24.2231 6.81462 24.2226 7.93559 24.2227 10.1758L24.2236 17.8252C24.2237 20.0653 24.223 21.1854 23.7871 22.041C23.4036 22.7937 22.7917 23.4056 22.0391 23.7891C21.1834 24.225 20.0634 24.2256 17.8232 24.2256H10.1777C7.93771 24.2256 6.81753 24.2249 5.96191 23.7891C5.20927 23.4056 4.59736 22.7937 4.21387 22.041C3.77795 21.1854 3.77737 20.0653 3.77734 17.8252V10.1758C3.77732 7.93555 3.77692 6.81464 4.21289 5.95898C4.59636 5.20648 5.20843 4.5944 5.96094 4.21094C6.81659 3.77496 7.9375 3.77539 10.1777 3.77539H17.8232ZM9.25781 5.57715C7.96968 5.57715 7.32501 5.57744 6.83301 5.82812C6.40036 6.04865 6.04859 6.40032 5.82813 6.83301C5.5775 7.32497 5.57713 7.96891 5.57715 9.25684V18.7441C5.57716 20.032 5.57747 20.676 5.82813 21.168C6.04858 21.6006 6.40039 21.9523 6.83301 22.1729C7.325 22.4235 7.96971 22.4238 9.25781 22.4238H18.7432C20.0311 22.4238 20.675 22.4234 21.167 22.1729C21.5998 21.9523 21.9523 21.6007 22.1729 21.168C22.4235 20.676 22.4229 20.0319 22.4229 18.7441V9.25684C22.4228 7.96912 22.4233 7.32494 22.1729 6.83301C21.9523 6.40024 21.5998 6.04863 21.167 5.82812C20.675 5.57746 20.0312 5.57715 18.7432 5.57715H9.25781Z" fill="currentColor" fill-opacity="0.8"/>
</svg>
