<svg width="28" height="28" viewBox="0 0 28 28" fill="none" xmlns="http://www.w3.org/2000/svg">
<path d="M21.273 23.785C20.797 23.827 19.985 23.848 18.837 23.848H9.072C7.938 23.848 7.126 23.827 6.636 23.785C6.146 23.743 5.733 23.631 5.397 23.449C5.061 23.295 4.76 23.085 4.494 22.819C4.242 22.567 4.032 22.273 3.864 21.937C3.696 21.587 3.591 21.174 3.549 20.698C3.507 20.208 3.486 19.396 3.486 18.262V9.988C3.486 8.84 3.507 8.028 3.549 7.552C3.591 7.062 3.696 6.642 3.864 6.292C4.214 5.62 4.725 5.116 5.397 4.78C5.733 4.612 6.146 4.507 6.636 4.465C7.126 4.423 7.938 4.402 9.072 4.402H18.837C19.985 4.402 20.797 4.423 21.273 4.465C21.763 4.507 22.176 4.612 22.512 4.78C23.198 5.13 23.709 5.634 24.045 6.292C24.213 6.642 24.318 7.062 24.36 7.552C24.402 8.028 24.423 8.84 24.423 9.988V18.262C24.423 19.396 24.402 20.208 24.36 20.698C24.318 21.174 24.213 21.587 24.045 21.937C23.877 22.259 23.66 22.553 23.394 22.819C23.128 23.085 22.834 23.295 22.512 23.449C22.176 23.631 21.763 23.743 21.273 23.785ZM6.909 21.832C7.133 21.846 7.504 21.853 8.022 21.853H19.866C20.398 21.853 20.769 21.846 20.979 21.832C21.203 21.818 21.392 21.769 21.546 21.685C21.854 21.517 22.092 21.279 22.26 20.971C22.344 20.817 22.393 20.628 22.407 20.404C22.421 20.18 22.428 19.809 22.428 19.291V11.689C22.428 11.171 22.414 10.8 22.386 10.576C22.372 10.352 22.33 10.163 22.26 10.009C22.078 9.687 21.84 9.456 21.546 9.316C21.392 9.232 21.203 9.183 20.979 9.169C20.769 9.155 20.398 9.148 19.866 9.148H8.022C7.504 9.148 7.133 9.162 6.909 9.19C6.685 9.204 6.496 9.246 6.342 9.316C6.034 9.47 5.803 9.701 5.649 10.009C5.579 10.163 5.53 10.352 5.502 10.576C5.488 10.8 5.481 11.171 5.481 11.689V19.291C5.481 19.809 5.488 20.18 5.502 20.404C5.516 20.628 5.565 20.817 5.649 20.971C5.789 21.265 6.02 21.503 6.342 21.685C6.496 21.755 6.685 21.804 6.909 21.832ZM19.005 18.283C18.557 18.899 17.899 19.207 17.031 19.207C16.177 19.207 15.519 18.892 15.057 18.262C14.595 17.632 14.364 16.715 14.364 15.511C14.364 14.307 14.595 13.397 15.057 12.781C15.519 12.151 16.177 11.836 17.031 11.836C17.899 11.836 18.557 12.151 19.005 12.781C19.467 13.397 19.698 14.307 19.698 15.511C19.698 16.729 19.467 17.653 19.005 18.283ZM16.212 17.212C16.408 17.59 16.681 17.779 17.031 17.779C17.395 17.779 17.668 17.59 17.85 17.212C18.046 16.82 18.144 16.253 18.144 15.511C18.144 14.769 18.046 14.209 17.85 13.831C17.668 13.453 17.395 13.264 17.031 13.264C16.681 13.264 16.408 13.453 16.212 13.831C16.03 14.209 15.939 14.769 15.939 15.511C15.939 16.253 16.03 16.82 16.212 17.212ZM12.789 15.112C12.607 15.462 12.334 15.826 11.97 16.204L10.584 17.674H12.894C12.992 17.674 13.069 17.702 13.125 17.758C13.181 17.814 13.209 17.891 13.209 17.989V18.787C13.209 18.885 13.181 18.962 13.125 19.018C13.069 19.074 12.992 19.102 12.894 19.102H8.568C8.47 19.102 8.393 19.074 8.337 19.018C8.281 18.962 8.253 18.885 8.253 18.787V18.283C8.253 18.129 8.302 17.996 8.4 17.884L10.752 15.448C11.032 15.154 11.228 14.909 11.34 14.713C11.452 14.503 11.508 14.293 11.508 14.083C11.508 13.831 11.431 13.628 11.277 13.474C11.123 13.32 10.913 13.243 10.647 13.243C10.423 13.243 10.22 13.299 10.038 13.411C9.87 13.523 9.716 13.684 9.576 13.894C9.52 13.992 9.457 14.048 9.387 14.062C9.317 14.076 9.24 14.055 9.156 13.999L8.484 13.537C8.33 13.425 8.295 13.285 8.379 13.117C8.589 12.739 8.883 12.431 9.261 12.193C9.653 11.955 10.129 11.836 10.689 11.836C11.431 11.836 12.012 12.039 12.432 12.445C12.852 12.837 13.062 13.355 13.062 13.999C13.062 14.391 12.971 14.762 12.789 15.112Z" fill="black"/>
</svg>
