<svg width="28" height="28" viewBox="0 0 28 28" fill="none" xmlns="http://www.w3.org/2000/svg">
<path d="M10.479 25.465C9.737 25.465 9.184 25.451 8.82 25.423C8.456 25.409 8.134 25.353 7.854 25.255C7.574 25.157 7.343 25.003 7.161 24.793C6.895 24.471 6.748 24.114 6.72 23.722C6.692 23.33 6.741 22.7 6.867 21.832C7.035 20.642 7.371 19.564 7.875 18.598C8.379 17.632 9.051 16.778 9.891 16.036L10.5 15.511C10.78 15.259 11.011 15.042 11.193 14.86C11.375 14.664 11.48 14.524 11.508 14.44C11.564 14.286 11.592 14.174 11.592 14.104C11.592 14.034 11.564 13.922 11.508 13.768C11.466 13.656 11.326 13.488 11.088 13.264C10.85 13.026 10.451 12.662 9.891 12.172C9.051 11.444 8.379 10.597 7.875 9.631C7.371 8.665 7.035 7.58 6.867 6.376C6.741 5.522 6.692 4.899 6.72 4.507C6.748 4.115 6.895 3.758 7.161 3.436C7.343 3.212 7.574 3.051 7.854 2.953C8.134 2.855 8.456 2.799 8.82 2.785C9.184 2.757 9.737 2.743 10.479 2.743H17.451C18.193 2.743 18.739 2.757 19.089 2.785C19.453 2.799 19.775 2.855 20.055 2.953C20.335 3.051 20.566 3.212 20.748 3.436C21.028 3.744 21.175 4.094 21.189 4.486C21.217 4.864 21.168 5.494 21.042 6.376C20.888 7.58 20.559 8.665 20.055 9.631C19.565 10.583 18.9 11.43 18.06 12.172L17.115 13.012C16.709 13.376 16.478 13.635 16.422 13.789C16.366 13.929 16.338 14.034 16.338 14.104C16.338 14.174 16.366 14.286 16.422 14.44C16.464 14.552 16.583 14.706 16.779 14.902C16.975 15.084 17.311 15.378 17.787 15.784L18.06 16.036C18.9 16.778 19.565 17.632 20.055 18.598C20.559 19.564 20.888 20.642 21.042 21.832C21.168 22.714 21.217 23.344 21.189 23.722C21.175 24.114 21.028 24.471 20.748 24.793C20.566 25.003 20.335 25.157 20.055 25.255C19.775 25.353 19.453 25.409 19.089 25.423C18.739 25.451 18.193 25.465 17.451 25.465H10.479ZM14.7 12.319C15.694 11.801 16.555 11.101 17.283 10.219C18.011 9.337 18.522 8.385 18.816 7.363C18.9 7.083 18.879 6.866 18.753 6.712C18.641 6.544 18.438 6.46 18.144 6.46H9.765C9.457 6.46 9.247 6.537 9.135 6.691C9.037 6.845 9.023 7.048 9.093 7.3C9.387 8.378 9.898 9.351 10.626 10.219C11.368 11.087 12.243 11.787 13.251 12.319C13.559 12.473 13.797 12.55 13.965 12.55C14.147 12.55 14.392 12.473 14.7 12.319Z" fill="black"/>
</svg>
