<svg width="28" height="28" viewBox="0 0 28 28" fill="none" xmlns="http://www.w3.org/2000/svg">
<path d="M19.593 13.831C19.495 13.929 19.327 13.978 19.089 13.978H8.925C8.687 13.978 8.519 13.929 8.421 13.831C8.323 13.719 8.274 13.53 8.274 13.264V12.697C8.274 12.431 8.323 12.242 8.421 12.13C8.519 12.018 8.687 11.962 8.925 11.962H19.089C19.327 11.962 19.495 12.018 19.593 12.13C19.691 12.242 19.74 12.431 19.74 12.697V13.264C19.74 13.53 19.691 13.719 19.593 13.831ZM21.273 23.617C20.797 23.659 19.992 23.68 18.858 23.68H9.072C7.938 23.68 7.126 23.659 6.636 23.617C6.16 23.575 5.747 23.47 5.397 23.302C4.697 22.938 4.193 22.434 3.885 21.79C3.703 21.44 3.591 21.02 3.549 20.53C3.507 20.04 3.486 19.228 3.486 18.094V9.82C3.486 8.686 3.507 7.881 3.549 7.405C3.591 6.915 3.703 6.495 3.885 6.145C4.039 5.823 4.249 5.529 4.515 5.263C4.781 4.997 5.075 4.78 5.397 4.612C5.747 4.444 6.16 4.339 6.636 4.297C7.126 4.255 7.938 4.234 9.072 4.234H18.858C19.992 4.234 20.797 4.255 21.273 4.297C21.763 4.339 22.183 4.444 22.533 4.612C22.855 4.78 23.149 4.997 23.415 5.263C23.681 5.529 23.891 5.823 24.045 6.145C24.227 6.495 24.339 6.915 24.381 7.405C24.423 7.881 24.444 8.686 24.444 9.82V18.094C24.444 19.228 24.423 20.04 24.381 20.53C24.339 21.02 24.227 21.44 24.045 21.79C23.737 22.434 23.233 22.938 22.533 23.302C22.183 23.47 21.763 23.575 21.273 23.617ZM6.93 21.685C7.154 21.699 7.525 21.706 8.043 21.706H19.887C20.419 21.706 20.79 21.699 21 21.685C21.224 21.657 21.413 21.601 21.567 21.517C21.875 21.363 22.106 21.132 22.26 20.824C22.344 20.67 22.393 20.481 22.407 20.257C22.435 20.033 22.449 19.662 22.449 19.144V11.542C22.449 11.01 22.435 10.639 22.407 10.429C22.393 10.205 22.344 10.016 22.26 9.862C22.106 9.554 21.875 9.323 21.567 9.169C21.413 9.085 21.224 9.036 21 9.022C20.79 8.994 20.419 8.98 19.887 8.98H8.043C7.525 8.98 7.154 8.994 6.93 9.022C6.706 9.036 6.517 9.085 6.363 9.169C6.055 9.323 5.824 9.554 5.67 9.862C5.586 10.016 5.53 10.205 5.502 10.429C5.488 10.639 5.481 11.01 5.481 11.542V19.144C5.481 19.662 5.488 20.033 5.502 20.257C5.53 20.481 5.586 20.67 5.67 20.824C5.824 21.132 6.055 21.363 6.363 21.517C6.517 21.601 6.706 21.657 6.93 21.685Z" fill="black"/>
</svg>
