<svg width="28" height="28" viewBox="0 0 28 28" fill="none" xmlns="http://www.w3.org/2000/svg">
<path d="M21.273 23.617C20.797 23.659 19.992 23.68 18.858 23.68H9.072C7.938 23.68 7.126 23.659 6.636 23.617C6.16 23.575 5.747 23.47 5.397 23.302C4.697 22.938 4.193 22.434 3.885 21.79C3.703 21.44 3.591 21.02 3.549 20.53C3.507 20.04 3.486 19.228 3.486 18.094V9.82C3.486 8.686 3.507 7.881 3.549 7.405C3.591 6.915 3.703 6.495 3.885 6.145C4.039 5.823 4.249 5.529 4.515 5.263C4.781 4.997 5.075 4.78 5.397 4.612C5.747 4.444 6.16 4.339 6.636 4.297C7.126 4.255 7.938 4.234 9.072 4.234H18.858C19.992 4.234 20.797 4.255 21.273 4.297C21.763 4.339 22.183 4.444 22.533 4.612C22.855 4.78 23.149 4.997 23.415 5.263C23.681 5.529 23.891 5.823 24.045 6.145C24.227 6.495 24.339 6.915 24.381 7.405C24.423 7.881 24.444 8.686 24.444 9.82V18.094C24.444 19.228 24.423 20.04 24.381 20.53C24.339 21.02 24.227 21.44 24.045 21.79C23.737 22.434 23.233 22.938 22.533 23.302C22.183 23.47 21.763 23.575 21.273 23.617ZM6.93 21.685C7.154 21.699 7.525 21.706 8.043 21.706H19.887C20.419 21.706 20.79 21.699 21 21.685C21.224 21.657 21.413 21.601 21.567 21.517C21.875 21.363 22.106 21.132 22.26 20.824C22.344 20.67 22.393 20.481 22.407 20.257C22.435 20.033 22.449 19.662 22.449 19.144V11.542C22.449 11.01 22.435 10.639 22.407 10.429C22.393 10.205 22.344 10.016 22.26 9.862C22.106 9.554 21.875 9.323 21.567 9.169C21.413 9.085 21.224 9.036 21 9.022C20.79 8.994 20.419 8.98 19.887 8.98H8.043C7.525 8.98 7.154 8.994 6.93 9.022C6.706 9.036 6.517 9.085 6.363 9.169C6.055 9.323 5.824 9.554 5.67 9.862C5.586 10.016 5.53 10.205 5.502 10.429C5.488 10.639 5.481 11.01 5.481 11.542V19.144C5.481 19.662 5.488 20.033 5.502 20.257C5.53 20.481 5.586 20.67 5.67 20.824C5.824 21.132 6.055 21.363 6.363 21.517C6.517 21.601 6.706 21.657 6.93 21.685ZM10.374 16.162C10.276 16.26 10.108 16.309 9.87 16.309H8.274C8.036 16.309 7.868 16.26 7.77 16.162C7.672 16.05 7.623 15.861 7.623 15.595V15.028C7.623 14.762 7.672 14.573 7.77 14.461C7.868 14.349 8.036 14.293 8.274 14.293H9.87C10.108 14.293 10.276 14.349 10.374 14.461C10.472 14.573 10.521 14.762 10.521 15.028V15.595C10.521 15.861 10.472 16.05 10.374 16.162ZM10.374 12.739C10.276 12.837 10.108 12.886 9.87 12.886H8.274C8.036 12.886 7.868 12.837 7.77 12.739C7.672 12.627 7.623 12.438 7.623 12.172V11.605C7.623 11.339 7.672 11.15 7.77 11.038C7.868 10.926 8.036 10.87 8.274 10.87H9.87C10.108 10.87 10.276 10.926 10.374 11.038C10.472 11.15 10.521 11.339 10.521 11.605V12.172C10.521 12.438 10.472 12.627 10.374 12.739ZM10.374 19.606C10.276 19.704 10.108 19.753 9.87 19.753H8.274C8.036 19.753 7.868 19.704 7.77 19.606C7.672 19.494 7.623 19.305 7.623 19.039V18.472C7.623 18.206 7.672 18.017 7.77 17.905C7.868 17.793 8.036 17.737 8.274 17.737H9.87C10.108 17.737 10.276 17.793 10.374 17.905C10.472 18.017 10.521 18.206 10.521 18.472V19.039C10.521 19.305 10.472 19.494 10.374 19.606ZM15.288 16.162C15.19 16.26 15.022 16.309 14.784 16.309H13.188C12.95 16.309 12.782 16.26 12.684 16.162C12.586 16.05 12.537 15.861 12.537 15.595V15.028C12.537 14.762 12.586 14.573 12.684 14.461C12.782 14.349 12.95 14.293 13.188 14.293H14.784C15.022 14.293 15.19 14.349 15.288 14.461C15.386 14.573 15.435 14.762 15.435 15.028V15.595C15.435 15.861 15.386 16.05 15.288 16.162ZM15.288 12.739C15.19 12.837 15.022 12.886 14.784 12.886H13.188C12.95 12.886 12.782 12.837 12.684 12.739C12.586 12.627 12.537 12.438 12.537 12.172V11.605C12.537 11.339 12.586 11.15 12.684 11.038C12.782 10.926 12.95 10.87 13.188 10.87H14.784C15.022 10.87 15.19 10.926 15.288 11.038C15.386 11.15 15.435 11.339 15.435 11.605V12.172C15.435 12.438 15.386 12.627 15.288 12.739ZM15.288 19.606C15.19 19.704 15.022 19.753 14.784 19.753H13.188C12.95 19.753 12.782 19.704 12.684 19.606C12.586 19.494 12.537 19.305 12.537 19.039V18.472C12.537 18.206 12.586 18.017 12.684 17.905C12.782 17.793 12.95 17.737 13.188 17.737H14.784C15.022 17.737 15.19 17.793 15.288 17.905C15.386 18.017 15.435 18.206 15.435 18.472V19.039C15.435 19.305 15.386 19.494 15.288 19.606ZM20.16 16.162C20.062 16.26 19.894 16.309 19.656 16.309H18.06C17.822 16.309 17.654 16.26 17.556 16.162C17.458 16.05 17.409 15.861 17.409 15.595V15.028C17.409 14.762 17.458 14.573 17.556 14.461C17.654 14.349 17.822 14.293 18.06 14.293H19.656C19.894 14.293 20.062 14.349 20.16 14.461C20.258 14.573 20.307 14.762 20.307 15.028V15.595C20.307 15.861 20.258 16.05 20.16 16.162ZM20.16 12.739C20.062 12.837 19.894 12.886 19.656 12.886H18.06C17.822 12.886 17.654 12.837 17.556 12.739C17.458 12.627 17.409 12.438 17.409 12.172V11.605C17.409 11.339 17.458 11.15 17.556 11.038C17.654 10.926 17.822 10.87 18.06 10.87H19.656C19.894 10.87 20.062 10.926 20.16 11.038C20.258 11.15 20.307 11.339 20.307 11.605V12.172C20.307 12.438 20.258 12.627 20.16 12.739Z" fill="black"/>
</svg>
