<svg width="28" height="28" viewBox="0 0 28 28" fill="none" xmlns="http://www.w3.org/2000/svg">
<path d="M16.8852 4.00243C17.1879 4.02603 17.5413 4.3778 18.2465 5.08154L18.31 5.14208L22.5326 9.35204C22.8956 9.71494 22.6388 10.3361 22.1254 10.3364H19.5932C19.3174 10.3364 19.1791 10.3362 19.0727 10.3872C18.9664 10.4382 18.8806 10.5241 18.8295 10.6304C18.7784 10.7368 18.7778 10.875 18.7778 11.1509V23.2397C18.7778 23.565 18.7776 23.7278 18.7143 23.852C18.6586 23.9613 18.5696 24.0503 18.4604 24.1059C18.3361 24.1691 18.173 24.1694 17.8481 24.1694H16.9282C16.603 24.1694 16.4391 24.1693 16.3149 24.1059C16.2059 24.0502 16.1165 23.9611 16.061 23.852C15.9978 23.7278 15.9985 23.5647 15.9985 23.2397V6.01415C15.9985 5.01848 15.998 4.51973 16.1948 4.28857C16.3656 4.08837 16.6228 3.98226 16.8852 4.00243Z" fill="black" fill-opacity="0.8"/>
<path d="M10.7319 4.14697C11.0571 4.14697 11.2209 4.14715 11.3451 4.21044C11.4542 4.26617 11.5434 4.35524 11.5991 4.46435C11.6622 4.5886 11.6616 4.75161 11.6616 5.07665V21.6665C11.6616 22.8621 11.6617 23.4606 11.4252 23.7378C11.22 23.9781 10.9121 24.106 10.5971 24.0815C10.2942 24.0579 9.95054 23.7592 9.35394 23.1714C9.35302 23.1705 9.35183 23.1711 9.35198 23.1724C9.35214 23.1736 9.34997 23.1742 9.34905 23.1733L5.12835 18.9653C4.76477 18.6024 5.02173 17.981 5.53558 17.981H8.0678C8.34362 17.981 8.48184 17.9813 8.58831 17.9302C8.69455 17.8791 8.78043 17.7932 8.83147 17.687C8.8826 17.5805 8.88226 17.4423 8.88226 17.1665V5.07665C8.88226 4.75136 8.88241 4.58863 8.94573 4.46435C9.00145 4.35508 9.09035 4.26613 9.19964 4.21044C9.3239 4.14722 9.48679 4.14697 9.81194 4.14697H10.7319Z" fill="black" fill-opacity="0.8"/>
</svg>
