<svg width="28" height="28" viewBox="0 0 28 28" fill="none" xmlns="http://www.w3.org/2000/svg">
<path fill-rule="evenodd" clip-rule="evenodd" d="M18.4814 9.10944C20.797 9.10944 21.9549 9.10943 22.833 9.57428C23.5415 9.9494 24.1209 10.5289 24.4961 11.2374C24.961 12.1155 24.9619 13.2742 24.9619 15.5899V19.4903C24.9619 21.806 24.961 22.9638 24.4961 23.8419C24.1209 24.5505 23.5416 25.1307 22.833 25.5059C21.9549 25.9707 20.7969 25.9708 18.4814 25.9708H14.5801C12.2646 25.9708 11.1066 25.9708 10.2285 25.5059C9.51989 25.1307 8.94063 24.5505 8.56543 23.8419C8.10061 22.9638 8.10059 21.8058 8.10059 19.4903V15.5899C8.10059 13.2742 8.10049 12.1155 8.56543 11.2374C8.94062 10.5289 9.52003 9.94943 10.2285 9.57428C11.1066 9.10937 12.2646 9.10944 14.5801 9.10944H18.4814ZM13.626 10.9092C12.2947 10.9092 11.6289 10.9095 11.124 11.1768C10.7167 11.3925 10.3837 11.7256 10.168 12.1329C9.90063 12.6378 9.90039 13.3043 9.90039 14.6358V20.4444C9.90039 21.7758 9.90073 22.4415 10.168 22.9464C10.3837 23.3538 10.7166 23.6876 11.124 23.9034C11.6289 24.1707 12.2947 24.171 13.626 24.171H19.4355C20.7668 24.171 21.4326 24.1706 21.9375 23.9034C22.345 23.6876 22.6788 23.3538 22.8945 22.9464C23.1616 22.4415 23.1611 21.7755 23.1611 20.4444V14.6358C23.1611 13.3043 23.1619 12.6378 22.8945 12.1329C22.6788 11.7254 22.3449 11.3925 21.9375 11.1768C21.4326 10.9096 20.7669 10.9092 19.4355 10.9092H13.626ZM12.6426 2.31549C12.8147 2.3119 13.0204 2.46572 13.4316 2.77252L15.8018 4.54108C16.0929 4.75834 16.2389 4.86673 16.291 5.00006C16.3365 5.1168 16.3365 5.24658 16.291 5.36334C16.239 5.49674 16.093 5.60597 15.8018 5.8233L13.4316 7.59186C13.0206 7.89852 12.8146 8.0515 12.6426 8.04791C12.4928 8.04454 12.3521 7.97447 12.2598 7.85651C12.1537 7.72081 12.1533 7.46383 12.1533 6.95026V6.14069C10.8609 6.16242 10.1145 6.23437 9.48633 6.44733C7.69605 7.05448 6.28814 8.45701 5.6748 10.2452C5.39386 11.0645 5.35083 11.7985 5.34473 13.9083C5.34382 14.2234 5.34332 14.3816 5.28223 14.501C5.22835 14.6062 5.14336 14.6916 5.03809 14.7452C4.91852 14.8059 4.76144 14.8057 4.44824 14.8057H4.37793C4.12373 14.8057 3.99617 14.8053 3.89551 14.7647C3.75446 14.7077 3.64286 14.5962 3.58594 14.4551C3.54539 14.3544 3.54495 14.2267 3.54492 13.9717C3.54492 12.2108 3.54492 10.9085 3.97266 9.66119C4.76695 7.34538 6.58966 5.52854 8.9082 4.74225C9.77664 4.44784 10.7725 4.36167 12.1533 4.33893V3.41315C12.1533 2.90009 12.1538 2.64358 12.2598 2.50787C12.3521 2.38984 12.4928 2.31887 12.6426 2.31549Z" fill="black"/>
</svg>
