<svg width="28" height="28" viewBox="0 0 28 28" fill="none" xmlns="http://www.w3.org/2000/svg">
<path d="M10.08 4.1558C10.6092 3.70627 11.4227 4.08237 11.4228 4.77689V6.84354C11.4228 6.95044 11.4228 7.0039 11.4436 7.04473C11.4619 7.08065 11.4911 7.10985 11.527 7.12815C11.5678 7.14896 11.6213 7.14896 11.7282 7.14896H22.4442C22.8015 7.14896 22.9803 7.14883 23.1259 7.19193C23.466 7.29267 23.7321 7.55885 23.8329 7.89896C23.876 8.04458 23.8759 8.22333 23.8759 8.5806C23.8759 8.9379 23.876 9.11662 23.8329 9.26224C23.7725 9.46607 23.6515 9.64178 23.492 9.77277C23.49 9.77442 23.49 9.77748 23.4919 9.77919C23.494 9.78099 23.4938 9.78426 23.4915 9.78581L12.0711 17.6121C11.8257 17.7803 11.703 17.8644 11.6872 17.9392C11.6735 18.0039 11.6943 18.071 11.7421 18.1166C11.7975 18.1695 11.9462 18.1695 12.2437 18.1695H22.9794C23.8561 18.1699 24.2577 19.2624 23.5897 19.8306L18.662 24.022C18.1328 24.4715 17.3193 24.0954 17.3192 23.4009V21.3392C17.3192 21.2322 17.3192 21.1788 17.2984 21.138C17.2801 21.102 17.2509 21.0728 17.215 21.0545C17.1742 21.0337 17.1207 21.0337 17.0138 21.0337H6.2958C5.9386 21.0337 5.75982 21.0329 5.61416 20.9898C5.2743 20.889 5.00796 20.6236 4.90713 20.2837C4.86392 20.138 4.86416 19.9587 4.86416 19.6011C4.86416 19.2439 4.86404 19.0651 4.90713 18.9195C4.97781 18.6811 5.13069 18.4801 5.33249 18.3459C5.33382 18.345 5.33422 18.3432 5.3334 18.3418C5.33258 18.3405 5.33298 18.3387 5.3343 18.3378L16.9748 10.5717C17.2271 10.4034 17.3532 10.3192 17.3697 10.2441C17.384 10.1792 17.3635 10.1116 17.3156 10.0656C17.2602 10.0122 17.1086 10.0122 16.8053 10.0122H9.08194C8.94711 10.0122 8.83777 10.0107 8.746 10.0083H5.7626C4.88576 10.008 4.48424 8.9154 5.15225 8.3472L10.08 4.1558Z" fill="black"/>
</svg>
