<svg width="28" height="28" viewBox="0 0 28 28" fill="none" xmlns="http://www.w3.org/2000/svg">
<path fill-rule="evenodd" clip-rule="evenodd" d="M23.8236 12.5878L16.5567 6.45587C15.588 5.63852 15.1037 5.22984 14.6942 5.2219C14.3383 5.215 13.9991 5.37261 13.7748 5.64908C13.5168 5.96716 13.5168 6.60086 13.5168 7.86828L13.5168 9.62164C13.5168 9.78759 13.3772 9.91957 13.2113 9.91575C12.9762 9.91033 12.7046 9.91033 12.3859 9.91033L6.21932 9.91033C5.14119 9.91033 4.60213 9.91033 4.19034 10.1201C3.82811 10.3047 3.53362 10.5992 3.34906 10.9614C3.13924 11.3732 3.13924 11.9123 3.13924 12.9904L3.13924 15.0117C3.13924 16.0898 3.13924 16.6289 3.34906 17.0407C3.53362 17.4029 3.82811 17.6974 4.19033 17.882C4.60213 18.0918 5.14119 18.0918 6.21932 18.0918L12.3859 18.0918C12.7046 18.0918 12.9762 18.0918 13.2113 18.0864C13.3772 18.0826 13.5168 18.2145 13.5168 18.3805L13.5168 20.1322C13.5168 21.3996 13.5168 22.0333 13.7748 22.3514C13.9991 22.6279 14.3383 22.7855 14.6942 22.7786C15.1037 22.7707 15.588 22.362 16.5567 21.5446L23.8236 15.4126C24.3992 14.9269 24.687 14.6841 24.7922 14.3941C24.8845 14.1396 24.8845 13.8609 24.7922 13.6064C24.687 13.3164 24.3992 13.0736 23.8236 12.5878Z" fill="black"/>
</svg>
