<svg width="28" height="28" viewBox="0 0 28 28" fill="none" xmlns="http://www.w3.org/2000/svg">
<path fill-rule="evenodd" clip-rule="evenodd" d="M15.4122 23.824L21.5442 16.5571C22.3615 15.5884 22.7702 15.1041 22.7781 14.6946C22.785 14.3387 22.6274 13.9995 22.351 13.7752C22.0329 13.5172 21.3992 13.5172 20.1318 13.5172H18.3784C18.2125 13.5172 18.0805 13.3776 18.0843 13.2117C18.0897 12.9766 18.0897 12.705 18.0897 12.3863V6.21972C18.0897 5.14159 18.0897 4.60252 17.8799 4.19073C17.6953 3.82851 17.4008 3.53401 17.0386 3.34945C16.6268 3.13964 16.0878 3.13964 15.0096 3.13964H12.9883C11.9102 3.13964 11.3711 3.13964 10.9593 3.34945C10.5971 3.53401 10.3026 3.82851 10.1181 4.19073C9.90824 4.60252 9.90824 5.14159 9.90824 6.21972V12.3863C9.90824 12.705 9.90824 12.9766 9.91366 13.2117C9.91749 13.3776 9.7855 13.5172 9.61955 13.5172H7.86782C6.60041 13.5172 5.9667 13.5172 5.64863 13.7752C5.37216 13.9995 5.21454 14.3387 5.22145 14.6946C5.22939 15.1041 5.63806 15.5884 6.45542 16.5571L12.5874 23.824C13.0731 24.3996 13.316 24.6874 13.606 24.7926C13.8604 24.8849 14.1392 24.8849 14.3936 24.7926C14.6836 24.6874 14.9265 24.3996 15.4122 23.824Z" fill="black"/>
</svg>
