<svg width="28" height="28" viewBox="0 0 28 28" fill="none" xmlns="http://www.w3.org/2000/svg">
<g clip-path="url(#clip0_85024_8582)">
<path d="M17.8174 15.5586C18.1696 15.2975 18.6758 15.5634 18.5039 15.9668C17.7849 17.6513 16.1376 18.8542 14.1865 18.9121C12.2356 18.9697 10.5213 17.8663 9.7041 16.2275C9.50831 15.8348 9.99813 15.5389 10.3652 15.7793C11.4427 16.485 12.7399 16.8797 14.125 16.8389C15.5105 16.7978 16.7832 16.3271 17.8174 15.5586Z" fill="black"/>
<path d="M10.6865 10.2285C11.5147 10.2288 12.1865 10.9003 12.1865 11.7285C12.1864 12.5567 11.5147 13.2283 10.6865 13.2285C9.85818 13.2285 9.18666 12.5568 9.18652 11.7285C9.18655 10.9001 9.85811 10.2285 10.6865 10.2285Z" fill="black"/>
<path d="M17.3271 10.2285C18.1553 10.2288 18.8271 10.9003 18.8271 11.7285C18.827 12.5567 18.1553 13.2283 17.3271 13.2285C16.4988 13.2285 15.8273 12.5568 15.8271 11.7285C15.8272 10.9001 16.4987 10.2285 17.3271 10.2285Z" fill="black"/>
<path fill-rule="evenodd" clip-rule="evenodd" d="M14.001 3.25C19.9378 3.25026 24.751 8.06312 24.751 14C24.751 19.9369 19.9378 24.7497 14.001 24.75C8.06392 24.75 3.25098 19.9371 3.25098 14C3.251 8.06296 8.06393 3.25 14.001 3.25ZM14.001 4.98242C9.02067 4.98242 4.98342 9.0197 4.9834 14C4.9834 18.9803 9.02066 23.0176 14.001 23.0176C18.9811 23.0173 23.0186 18.9802 23.0186 14C23.0185 9.01986 18.9811 4.98268 14.001 4.98242Z" fill="black"/>
</g>
<defs>
<clipPath id="clip0_85024_8582">
<rect width="28" height="28" fill="white"/>
</clipPath>
</defs>
</svg>
