<svg width="28" height="28" viewBox="0 0 28 28" fill="none" xmlns="http://www.w3.org/2000/svg">
<path d="M22.827 24.688C22.589 24.716 22.197 24.73 21.651 24.73H6.258C5.712 24.73 5.32 24.716 5.082 24.688C4.844 24.674 4.641 24.625 4.473 24.541C4.137 24.359 3.899 24.107 3.759 23.785C3.675 23.617 3.619 23.414 3.591 23.176C3.577 22.952 3.57 22.56 3.57 22C3.57 21.286 3.577 20.775 3.591 20.467C3.619 20.145 3.689 19.837 3.801 19.543C3.899 19.263 4.06 18.969 4.284 18.661C4.508 18.353 4.739 18.101 4.977 17.905C5.215 17.709 5.453 17.562 5.691 17.464C5.929 17.352 6.307 17.212 6.825 17.044C9.135 16.26 11.515 15.868 13.965 15.868C16.401 15.868 18.781 16.26 21.105 17.044C21.609 17.212 21.98 17.352 22.218 17.464C22.456 17.562 22.694 17.709 22.932 17.905C23.17 18.087 23.401 18.339 23.625 18.661C23.849 18.969 24.01 19.263 24.108 19.543C24.22 19.837 24.283 20.145 24.297 20.467C24.325 20.775 24.339 21.286 24.339 22C24.339 22.56 24.325 22.952 24.297 23.176C24.283 23.414 24.234 23.617 24.15 23.785C24.01 24.107 23.772 24.359 23.436 24.541C23.268 24.625 23.065 24.674 22.827 24.688ZM5.46 22.819C5.544 22.889 5.726 22.924 6.006 22.924H21.903C22.183 22.924 22.358 22.889 22.428 22.819C22.512 22.749 22.554 22.574 22.554 22.294V21.937C22.554 21.503 22.547 21.188 22.533 20.992C22.519 20.796 22.477 20.614 22.407 20.446C22.295 20.11 22.099 19.816 21.819 19.564C21.707 19.466 21.574 19.375 21.42 19.291C21.266 19.207 21.084 19.123 20.874 19.039L20.664 18.955C18.494 18.087 16.191 17.653 13.755 17.653C11.501 17.653 9.359 18.031 7.329 18.787C7.007 18.885 6.762 18.976 6.594 19.06C6.426 19.144 6.265 19.249 6.111 19.375C5.859 19.585 5.656 19.872 5.502 20.236C5.432 20.418 5.39 20.614 5.376 20.824C5.362 21.02 5.355 21.342 5.355 21.79V22.294C5.355 22.574 5.39 22.749 5.46 22.819ZM16.569 13.768C15.771 14.23 14.903 14.461 13.965 14.461C13.013 14.461 12.138 14.23 11.34 13.768C10.542 13.292 9.905 12.655 9.429 11.857C8.967 11.059 8.736 10.191 8.736 9.253C8.736 8.315 8.967 7.447 9.429 6.649C9.905 5.837 10.542 5.2 11.34 4.738C12.138 4.262 13.013 4.024 13.965 4.024C14.903 4.024 15.771 4.262 16.569 4.738C17.367 5.2 17.997 5.837 18.459 6.649C18.935 7.447 19.173 8.315 19.173 9.253C19.173 10.191 18.935 11.059 18.459 11.857C17.997 12.655 17.367 13.292 16.569 13.768ZM12.243 12.214C12.775 12.522 13.349 12.676 13.965 12.676C14.581 12.676 15.148 12.522 15.666 12.214C16.198 11.906 16.618 11.493 16.926 10.975C17.234 10.443 17.388 9.869 17.388 9.253C17.388 8.637 17.234 8.07 16.926 7.552C16.618 7.02 16.198 6.6 15.666 6.292C15.148 5.984 14.581 5.83 13.965 5.83C13.349 5.83 12.775 5.984 12.243 6.292C11.711 6.6 11.291 7.02 10.983 7.552C10.675 8.07 10.521 8.637 10.521 9.253C10.521 9.869 10.675 10.443 10.983 10.975C11.291 11.493 11.711 11.906 12.243 12.214Z" fill="black"/>
</svg>
