<svg width="28" height="28" viewBox="0 0 28 28" fill="none" xmlns="http://www.w3.org/2000/svg">
<g opacity="0.8">
<path d="M8.70508 23.7295H18.0879C20.0402 23.7295 21.7592 22.4434 22.3096 20.5703L24.6484 12.6094C25.1937 10.7523 23.8008 8.89158 21.8652 8.8916H15.3652L15.5957 6.34277C15.743 4.71393 14.4608 3.30859 12.8252 3.30859C11.6276 3.30862 10.5642 4.07581 10.1855 5.21191L8.05664 11.6074H5.22852C4.17937 11.6075 3.32839 12.4587 3.32812 13.5078V21.8301C3.32818 22.8794 4.17921 23.7314 5.22852 23.7314L8.70508 23.7295ZM9.60547 21.9297V12.6504L11.8936 5.78125C12.0273 5.38027 12.4025 5.1094 12.8252 5.10938C13.4024 5.10938 13.8554 5.60486 13.8037 6.17969L13.4834 9.71094L13.3945 10.6924H14.3799L21.8652 10.6914C22.5992 10.6914 23.1273 11.3973 22.9209 12.1016L20.582 20.0625C20.2568 21.1694 19.2415 21.9297 18.0879 21.9297H9.60547ZM5.22852 21.9297C5.17332 21.9297 5.12896 21.8853 5.12891 21.8301V13.5078C5.12917 13.4528 5.17345 13.4072 5.22852 13.4072H7.80469V21.9297H5.22852Z" fill="black"/>
</g>
</svg>
