<svg width="28" height="28" viewBox="0 0 28 28" fill="none" xmlns="http://www.w3.org/2000/svg">
<g opacity="0.8">
<path d="M17.5967 4.56055C19.551 4.5607 21.2708 5.84984 21.8193 7.72559L24.165 15.7471C24.7077 17.6034 23.3149 19.461 21.3809 19.4609H14.876L15.1104 22.0791C15.2562 23.7068 13.974 25.1094 12.3398 25.1094C11.1401 25.1092 10.0757 24.3394 9.69922 23.2002L7.56641 16.7451H4.85449C3.80526 16.7451 2.95427 15.8949 2.9541 14.8457V6.46094C2.9541 5.4116 3.80515 4.56055 4.85449 4.56055H17.5967ZM9.11719 6.36035V15.7031L11.4082 22.6357C11.5411 23.0375 11.9166 23.3085 12.3398 23.3086C12.9164 23.3086 13.3686 22.8145 13.3174 22.2402L12.9951 18.6406L12.9072 17.6602L13.8916 17.6611H21.3809C22.1145 17.6611 22.6434 16.9561 22.4375 16.252L20.0918 8.23047C19.7676 7.12227 18.7513 6.36051 17.5967 6.36035H9.11719ZM4.85449 6.36035C4.79926 6.36035 4.75488 6.40571 4.75488 6.46094V14.8457C4.75506 14.9008 4.79937 14.9453 4.85449 14.9453H7.31738V6.36035H4.85449Z" fill="black"/>
</g>
</svg>
