<svg width="28" height="28" viewBox="0 0 28 28" fill="none" xmlns="http://www.w3.org/2000/svg">
<path d="M18.3075 6.9307C18.3075 8.12024 17.3432 9.08455 16.1537 9.08455C14.9642 9.08455 13.9998 8.12024 13.9998 6.9307C13.9998 5.74117 14.9642 4.77686 16.1537 4.77686C17.3432 4.77686 18.3075 5.74117 18.3075 6.9307Z" fill="black"/>
<path fill-rule="evenodd" clip-rule="evenodd" d="M3.36523 18.7769C3.36523 16.4721 5.23358 14.6038 7.53831 14.6038C9.84304 14.6038 11.7114 16.4721 11.7114 18.7769C11.7114 21.0816 9.84304 22.9499 7.53831 22.9499C5.23358 22.9499 3.36523 21.0816 3.36523 18.7769ZM7.53831 16.4884C6.27443 16.4884 5.24985 17.513 5.24985 18.7769C5.24985 20.0407 6.27443 21.0653 7.53831 21.0653C8.80219 21.0653 9.82677 20.0407 9.82677 18.7769C9.82677 17.513 8.80219 16.4884 7.53831 16.4884Z" fill="black"/>
<path fill-rule="evenodd" clip-rule="evenodd" d="M16.2883 18.7769C16.2883 16.4721 18.1567 14.6038 20.4614 14.6038C22.7661 14.6038 24.6345 16.4721 24.6345 18.7769C24.6345 21.0816 22.7661 22.9499 20.4614 22.9499C18.1567 22.9499 16.2883 21.0816 16.2883 18.7769ZM20.4614 16.4884C19.1975 16.4884 18.1729 17.513 18.1729 18.7769C18.1729 20.0407 19.1975 21.0653 20.4614 21.0653C21.7253 21.0653 22.7498 20.0407 22.7498 18.7769C22.7498 17.513 21.7253 16.4884 20.4614 16.4884Z" fill="black"/>
<path d="M13.5025 8.58781C13.1234 8.45786 12.6656 8.44562 12.28 8.55512C11.8164 8.68679 11.4855 8.98649 11.215 9.23151L11.1498 9.29044C10.9465 9.47306 10.7239 9.6801 10.4873 9.91083L10.4583 9.93915C10.152 10.2378 9.87603 10.5069 9.67013 10.7487C9.45177 11.0051 9.2354 11.3162 9.14083 11.7157C9.00601 12.285 9.08906 12.8559 9.3805 13.3632C9.59886 13.7434 9.94782 13.9965 10.2514 14.1871C10.5614 14.3817 10.9712 14.597 11.4518 14.8497L11.4857 14.8675C11.5875 14.921 11.6863 14.9742 11.7818 15.0267C12.3184 15.3218 12.4379 15.3962 12.5991 15.5701C12.7228 15.7035 12.8903 15.9869 12.9476 16.1595C13.0199 16.3773 13.0298 16.5695 13.0298 17.3435V19.8527C13.0298 20.388 13.4638 20.822 13.9991 20.822C14.5343 20.822 14.9683 20.388 14.9683 19.8527L14.9683 17.2467C14.9688 16.6091 14.9691 16.0966 14.7875 15.5491C14.6429 15.1134 14.3327 14.5888 14.0207 14.2522C13.6292 13.8299 13.2452 13.619 12.7714 13.3587L12.716 13.3282C12.6102 13.27 12.5006 13.211 12.3876 13.1516C12.0638 12.9814 11.8092 12.8473 11.6055 12.7342C12.0402 12.2368 12.4514 11.788 12.7879 11.4291C13.0047 11.1978 13.1897 11.0046 13.3289 10.861L13.7841 11.3162C14.1664 11.6989 14.4673 12.0002 14.8281 12.2213C15.1461 12.4162 15.4928 12.5598 15.8554 12.6468C16.2669 12.7456 16.6927 12.7454 17.2337 12.7451L18.8452 12.745C19.3805 12.745 19.8144 12.3111 19.8144 11.7758C19.8144 11.2405 19.3805 10.8066 18.8452 10.8066H17.3274C16.6491 10.8066 16.4679 10.8003 16.3079 10.7619C16.1431 10.7224 15.9855 10.6571 15.841 10.5685C15.7007 10.4826 15.5682 10.3589 15.0886 9.87923L14.6396 9.43029L14.5686 9.35882C14.2925 9.08031 13.9595 8.74445 13.5025 8.58781Z" fill="black"/>
</svg>
