<svg width="28" height="28" viewBox="0 0 28 28" fill="none" xmlns="http://www.w3.org/2000/svg">
<path d="M13.998 17.3267C16.5546 17.3267 18.9982 17.7987 21.2412 18.6587C21.5973 18.7952 21.7754 18.8636 22.0684 19.0454C22.8262 19.5159 23.5498 20.5698 23.7178 21.4458C23.7827 21.7844 23.7832 22.074 23.7832 22.6528C23.7832 23.562 23.7824 24.0175 23.6055 24.3647C23.4498 24.6699 23.2017 24.9182 22.8965 25.0737C22.5492 25.2506 22.0938 25.2505 21.1846 25.2505H6.81445C5.9054 25.2505 5.45078 25.2506 5.10352 25.0737C4.79814 24.9181 4.54923 24.6701 4.39355 24.3647C4.21661 24.0175 4.2168 23.562 4.2168 22.6528C4.2168 22.0733 4.21718 21.7828 4.28223 21.4438C4.4505 20.5681 5.17414 19.5158 5.93164 19.0454C6.22478 18.8634 6.40312 18.7944 6.75977 18.6577C9.00135 17.7986 11.4431 17.3267 13.998 17.3267Z" fill="black"/>
<path d="M8.16406 15.563C8.51841 15.2089 9.09297 15.2088 9.44727 15.563C9.80156 15.9173 9.80141 16.4918 9.44727 16.8462C9.09289 17.2004 8.51838 17.2005 8.16406 16.8462C7.80983 16.4919 7.80986 15.9173 8.16406 15.563Z" fill="black"/>
<path d="M18.5605 15.563C18.9149 15.2087 19.4894 15.2088 19.8438 15.563C20.1979 15.9174 20.198 16.4919 19.8438 16.8462C19.4894 17.2003 18.9149 17.2003 18.5605 16.8462C18.2064 16.4919 18.2064 15.9173 18.5605 15.563Z" fill="black"/>
<path d="M14.002 6.19775C16.6072 6.19792 18.7188 8.31024 18.7188 10.9155C18.7186 13.5207 16.6071 15.6322 14.002 15.6323C11.3967 15.6323 9.28434 13.5208 9.28418 10.9155C9.28418 8.31014 11.3966 6.19775 14.002 6.19775Z" fill="black"/>
<path d="M6.88672 13.0571C7.34743 12.8605 7.88024 13.0752 8.07715 13.5356C8.27379 13.9965 8.06035 14.5303 7.59961 14.7271C7.13881 14.9235 6.60494 14.7092 6.4082 14.2485C6.21177 13.7877 6.42604 13.2538 6.88672 13.0571Z" fill="black"/>
<path d="M19.9629 13.4575C20.1537 12.9943 20.6841 12.7738 21.1475 12.9644C21.6105 13.1552 21.831 13.6847 21.6406 14.1479C21.45 14.6111 20.9203 14.8332 20.457 14.6431C19.9936 14.4524 19.7722 13.921 19.9629 13.4575Z" fill="black"/>
<path d="M6.65527 10.1001C7.15636 10.1001 7.5624 10.5063 7.5625 11.0073C7.56239 11.5084 7.15636 11.9146 6.65527 11.9146C6.15428 11.9145 5.74815 11.5083 5.74805 11.0073C5.74814 10.5063 6.15427 10.1002 6.65527 10.1001Z" fill="black"/>
<path d="M21.3555 10.1001C21.8565 10.1002 22.2626 10.5063 22.2627 11.0073C22.2626 11.5083 21.8565 11.9145 21.3555 11.9146C20.8545 11.9145 20.4483 11.5083 20.4482 11.0073C20.4483 10.5063 20.8545 10.1002 21.3555 10.1001Z" fill="black"/>
<path d="M6.36914 7.86572C6.55982 7.40233 7.09028 7.18096 7.55371 7.37158C8.01694 7.56233 8.23741 8.09281 8.04688 8.55615C7.85619 9.01931 7.32657 9.24061 6.86328 9.05029C6.39984 8.85963 6.1785 8.32918 6.36914 7.86572Z" fill="black"/>
<path d="M20.4082 7.28857C20.869 7.09229 21.402 7.30643 21.5986 7.76709C21.795 8.22784 21.5807 8.76078 21.1201 8.95752C20.6592 9.15417 20.1264 8.9398 19.9297 8.479C19.7331 8.0181 19.9473 7.48523 20.4082 7.28857Z" fill="black"/>
<path d="M8.16504 5.16846C8.51936 4.81415 9.09387 4.81423 9.44824 5.16846C9.8025 5.52282 9.80255 6.09733 9.44824 6.45166C9.0939 6.80586 8.51937 6.80588 8.16504 6.45166C7.81084 6.09733 7.81084 5.52279 8.16504 5.16846Z" fill="black"/>
<path d="M18.5596 5.16846C18.9139 4.81432 19.4884 4.81436 19.8428 5.16846C20.197 5.52278 20.1969 6.09733 19.8428 6.45166C19.4884 6.80592 18.9139 6.80588 18.5596 6.45166C18.2054 6.0973 18.2053 5.52275 18.5596 5.16846Z" fill="black"/>
<path d="M10.7686 3.4126C11.2294 3.21594 11.7622 3.43029 11.959 3.89111C12.1555 4.352 11.9413 4.8849 11.4805 5.08154C11.0197 5.27775 10.4866 5.06372 10.29 4.60303C10.0935 4.14227 10.308 3.60941 10.7686 3.4126Z" fill="black"/>
<path d="M15.9619 3.86475C16.1526 3.40155 16.6822 3.18024 17.1455 3.37061C17.6089 3.56123 17.8302 4.09175 17.6396 4.55518C17.4489 5.01852 16.9185 5.23897 16.4551 5.04834C15.992 4.85748 15.7713 4.32802 15.9619 3.86475Z" fill="black"/>
<path d="M14.0049 2.74951C14.506 2.74951 14.912 3.15567 14.9121 3.65674C14.9121 4.15789 14.506 4.56396 14.0049 4.56396C13.5038 4.56387 13.0977 4.15783 13.0977 3.65674C13.0978 3.15573 13.5039 2.74961 14.0049 2.74951Z" fill="black"/>
</svg>
