<svg width="28" height="28" viewBox="0 0 28 28" fill="none" xmlns="http://www.w3.org/2000/svg">
<path d="M13.998 17.3267C16.5546 17.3267 18.9982 17.7987 21.2412 18.6587C21.5973 18.7952 21.7755 18.8636 22.0684 19.0454C22.8262 19.5159 23.5507 20.5698 23.7188 21.4458C23.7836 21.7844 23.7832 22.0741 23.7832 22.6528C23.7832 23.562 23.7824 24.0175 23.6055 24.3647C23.4498 24.6699 23.2017 24.9182 22.8965 25.0737C22.5492 25.2506 22.0936 25.2505 21.1846 25.2505H6.81445C5.90548 25.2505 5.45076 25.2507 5.10352 25.0737C4.79815 24.9181 4.5492 24.6701 4.39355 24.3647C4.2166 24.0175 4.2168 23.562 4.2168 22.6528C4.2168 22.0735 4.21726 21.7836 4.28223 21.4448C4.45031 20.5691 5.17405 19.516 5.93164 19.0454C6.22485 18.8634 6.40394 18.7945 6.76074 18.6577C9.00214 17.7987 11.4434 17.3267 13.998 17.3267Z" fill="black"/>
<path d="M14.001 2.74951C18.5111 2.74951 22.1677 6.40542 22.168 10.9155C22.168 12.9414 21.4288 14.798 20.207 16.2251C19.881 16.6053 19.3083 16.6495 18.9277 16.3237C18.5473 15.9978 18.5033 15.425 18.8291 15.0444C19.78 13.9337 20.3535 12.4924 20.3535 10.9155C20.3533 7.40771 17.5089 4.56396 14.001 4.56396C10.4933 4.56422 7.64967 7.40787 7.64941 10.9155C7.64941 12.4924 8.22293 13.9337 9.17383 15.0444C9.49967 15.425 9.45566 15.9978 9.0752 16.3237C8.69451 16.6496 8.12084 16.6058 7.79492 16.2251C6.57314 14.798 5.83496 12.9414 5.83496 10.9155C5.83521 6.40557 9.49102 2.74977 14.001 2.74951Z" fill="black"/>
<path d="M14.002 6.19775C16.6072 6.19792 18.7188 8.31024 18.7188 10.9155C18.7186 13.5207 16.6071 15.6322 14.002 15.6323C11.3967 15.6323 9.28434 13.5208 9.28418 10.9155C9.28418 8.31014 11.3966 6.19775 14.002 6.19775Z" fill="black"/>
</svg>
