<svg width="28" height="28" viewBox="0 0 28 28" fill="none" xmlns="http://www.w3.org/2000/svg">
<path opacity="0.3" d="M8.48471 15.1809C7.39835 13.912 6.74219 12.2638 6.74219 10.4624C6.74219 6.45321 9.99227 3.20312 14.0014 3.20312C18.0106 3.20312 21.2607 6.45321 21.2607 10.4624C21.2607 12.2638 20.6045 13.912 19.5182 15.1809" stroke="black" stroke-width="1.81481" stroke-linecap="round" stroke-linejoin="round"/>
<path d="M13.998 16.873C16.5546 16.873 18.9982 17.3451 21.2412 18.2051C21.5973 18.3416 21.7754 18.4099 22.0684 18.5918C22.8262 19.0623 23.5498 20.1161 23.7178 20.9922C23.7827 21.3308 23.7832 21.6204 23.7832 22.1992C23.7832 23.1084 23.7824 23.5639 23.6055 23.9111C23.4498 24.2163 23.2017 24.4646 22.8965 24.6201C22.5492 24.797 22.0938 24.7969 21.1846 24.7969H6.81445C5.9054 24.7969 5.45078 24.797 5.10352 24.6201C4.79814 24.4645 4.54923 24.2165 4.39355 23.9111C4.21661 23.5639 4.2168 23.1084 4.2168 22.1992C4.2168 21.6196 4.21718 21.3292 4.28223 20.9902C4.4505 20.1145 5.17414 19.0622 5.93164 18.5918C6.22478 18.4098 6.40312 18.3408 6.75977 18.2041C9.00135 17.3449 11.4431 16.8731 13.998 16.873Z" fill="#110000"/>
<path d="M14.002 5.74414C16.6072 5.7443 18.7188 7.85663 18.7188 10.4619C18.7186 13.0671 16.6071 15.1785 14.002 15.1787C11.3967 15.1787 9.28434 13.0672 9.28418 10.4619C9.28418 7.85653 11.3966 5.74414 14.002 5.74414Z" fill="#110000"/>
</svg>
