<svg width="28" height="28" viewBox="0 0 28 28" fill="none" xmlns="http://www.w3.org/2000/svg">
<g clip-path="url(#clip0_85024_8598)">
<path d="M17.6589 8.21429C19.0069 8.21435 20.0697 9.36228 19.9664 10.7064L19.5098 16.6375C19.4356 17.6024 18.7687 18.4192 17.8381 18.6851L17.7033 18.7235C17.0905 18.8986 16.6483 19.4327 16.5906 20.0675L15.9789 26.7986C15.9427 27.1959 15.6094 27.5 15.2105 27.5H12.7621C12.3633 27.4999 12.0307 27.1958 11.9944 26.7986L11.382 20.0675C11.3242 19.4327 10.8821 18.8986 10.2693 18.7235L10.1344 18.6851C9.20395 18.4191 8.53695 17.6024 8.46273 16.6375L8.00695 10.7064C7.90356 9.36224 8.96637 8.21429 10.3145 8.21429H17.6589Z" fill="black"/>
<path d="M13.9863 0.5C15.6905 0.5 17.072 1.88152 17.072 3.58571C17.072 5.28991 15.6905 6.67143 13.9863 6.67143C12.2822 6.67134 10.9006 5.28985 10.9006 3.58571C10.9006 1.88158 12.2822 0.500093 13.9863 0.5Z" fill="black"/>
</g>
<defs>
<clipPath id="clip0_85024_8598">
<rect width="28" height="28" fill="white"/>
</clipPath>
</defs>
</svg>
