<svg width="28" height="28" viewBox="0 0 28 28" fill="none" xmlns="http://www.w3.org/2000/svg">
<g clip-path="url(#clip0_85024_8600)">
<path d="M15.2736 8.21484C16.1993 8.21493 17.0359 8.76633 17.4006 9.61719L20.2385 16.2383C20.8384 17.638 19.9462 19.226 18.4387 19.4414L17.2248 19.6152C16.5221 19.7156 15.9782 20.282 15.9074 20.9883L15.3264 26.8057C15.2868 27.1998 14.9549 27.4998 14.5588 27.5H12.8693C12.4731 27.5 12.1414 27.1999 12.1018 26.8057L11.5197 20.9883C11.449 20.282 10.905 19.7156 10.2024 19.6152L8.98849 19.4414C7.48118 19.2258 6.58886 17.6379 7.18868 16.2383L10.0266 9.61719C10.3913 8.76626 11.2287 8.21484 12.1545 8.21484H15.2736Z" fill="black"/>
<path d="M13.7121 0.5C15.4163 0.5 16.7981 1.88175 16.7981 3.58594C16.7979 5.29002 15.4162 6.67188 13.7121 6.67188C12.008 6.67187 10.6263 5.29002 10.6262 3.58594C10.6262 1.88175 12.0079 0.500004 13.7121 0.5Z" fill="black"/>
</g>
<defs>
<clipPath id="clip0_85024_8600">
<rect width="28" height="28" fill="white"/>
</clipPath>
</defs>
</svg>
