<svg width="28" height="28" viewBox="0 0 28 28" fill="none" xmlns="http://www.w3.org/2000/svg">
<path d="M20.5983 14.5602C20.2538 14.5602 19.974 14.8401 19.974 15.1846V18.4795H16.679C16.3349 18.4798 16.056 18.7585 16.0558 19.1027V20.0609C16.056 20.405 16.3349 20.6838 16.679 20.6841H19.974V23.9779C19.974 24.3223 20.2538 24.6011 20.5983 24.6011H21.5553C21.8998 24.601 22.1785 24.3223 22.1785 23.9779V20.6841H25.4735C25.8177 20.6839 26.0965 20.4051 26.0967 20.0609V19.1027C26.0965 18.7584 25.8177 18.4797 25.4735 18.4795H22.1785V15.1846C22.1785 14.8401 21.8998 14.5603 21.5553 14.5602H20.5983Z" fill="black" fill-opacity="0.8"/>
<path d="M13.2292 15.0832C10.6229 15.0835 8.11974 15.5133 5.79395 16.3034C5.17335 16.5143 4.31431 16.98 3.89355 17.3197C3.2666 17.8262 2.7882 18.4217 2.61751 18.9933C2.41303 19.5805 2.39648 20.2185 2.39648 21.485C2.39648 22.4747 2.39641 22.9698 2.58903 23.3478C2.75849 23.6802 3.02907 23.9509 3.36149 24.1203C3.73946 24.3126 4.23506 24.3128 5.22428 24.3128H13.8888C14.4441 24.3128 14.7219 24.3129 14.8538 24.224C14.9841 24.136 15.0449 24.0424 15.0737 23.8879C15.1026 23.7314 14.976 23.4398 14.7228 22.8568C14.3642 22.0308 14.1657 21.119 14.1657 20.1611C14.1657 18.8642 14.5296 17.6523 15.1615 16.6224C15.4966 16.0761 15.6652 15.8029 15.6536 15.6369C15.6426 15.4793 15.5832 15.3665 15.46 15.2677C15.33 15.1638 15.06 15.1482 14.5212 15.1185C14.0937 15.0949 13.6627 15.0832 13.2292 15.0832Z" fill="black" fill-opacity="0.8"/>
<path d="M13.4354 2.99951C10.6507 2.99954 8.39274 5.25745 8.39274 8.04215C8.39275 10.8268 10.6507 13.0848 13.4354 13.0848C16.2201 13.0848 18.478 10.8269 18.478 8.04215C18.478 5.25744 16.2201 2.99951 13.4354 2.99951Z" fill="black" fill-opacity="0.8"/>
</svg>
