<svg width="28" height="28" viewBox="0 0 28 28" fill="none" xmlns="http://www.w3.org/2000/svg">
<path d="M14.0635 24.9185C14.0863 24.9984 14.1035 25.0947 14.0986 25.2046C14.0984 25.2107 14.0971 25.217 14.0967 25.2231H14.0811C14.0842 25.1116 14.0774 24.9977 14.0635 24.9185ZM16.4795 10.936C16.4842 10.9377 16.5462 10.9592 16.709 11.0161C16.8654 11.0708 17.0921 11.15 17.3945 11.2563C17.9003 11.4341 18.2981 11.5984 18.5625 12.1255L18.6133 12.2358C18.7108 12.4648 18.8645 12.9843 19.04 13.6646C19.2094 14.3211 19.3838 15.0631 19.5264 15.6919C19.6378 16.1835 19.7217 16.5807 19.8936 16.9272L19.8945 16.9282C20.0029 17.1459 20.1332 17.3452 20.2881 17.5288L20.4512 17.7075C20.724 17.9831 21.0677 18.1874 21.4844 18.4438L21.5 18.4526L21.5146 18.4614L23.6875 19.6841C23.6906 19.6966 23.6973 19.7159 23.6982 19.7446C23.7 19.7981 23.6922 19.8624 23.6729 19.9253C23.6614 19.9624 23.6465 19.9913 23.6348 20.0132C23.6109 20.0202 23.5663 20.0304 23.4912 20.0308C23.3093 20.0315 23.1028 19.9737 22.9609 19.8872L22.9355 19.8726L22.9092 19.8589L19.7656 18.2153C19.3488 17.9542 19.0916 17.5444 18.75 16.4634L18.5957 15.9507C18.5292 15.686 18.3859 15.4017 18.1084 15.1958C17.8428 14.9989 17.5483 14.9423 17.2949 14.9507L17.1895 14.9575C16.9372 14.9842 16.6309 15.0812 16.3701 15.2905C16.1188 15.4923 15.9021 15.8126 15.8721 16.2261L15.8711 16.4097C15.9685 17.9988 16.496 19.2521 17.5801 20.2085L17.8037 20.396C18.4202 20.8835 19.4743 21.4501 20.3145 21.8726C21.0696 22.2522 21.7278 22.5523 21.9111 22.6353C22.7184 23.0861 22.4018 24.3226 21.4697 24.3228H13.6572C13.6516 24.3225 13.6373 24.3213 13.5996 24.3179C13.5958 24.3174 13.5906 24.3169 13.584 24.3159C13.566 24.3134 13.5427 24.3099 13.5186 24.3062C13.4944 24.3024 13.471 24.2985 13.4531 24.2954L13.4443 24.2944H13.4434C13.4385 24.2934 13.4337 24.2916 13.4287 24.2905C13.1862 24.1933 13.0176 23.9596 13.0176 23.687L13.0303 23.5552C13.0913 23.2568 13.3556 23.0319 13.6719 23.0317H15.7715C15.8449 23.0317 15.9544 23.0327 16.0518 23.0249C16.159 23.0164 16.3307 22.9936 16.5137 22.9009L16.5156 22.8999C16.7447 22.7831 16.9321 22.5958 17.0488 22.3667L17.0498 22.3647C17.142 22.1826 17.1652 22.0114 17.1738 21.9038C17.1816 21.8065 17.1807 21.6968 17.1807 21.6235V21.5815C17.1807 21.5082 17.1816 21.3986 17.1738 21.3013C17.1653 21.194 17.1416 21.0224 17.0488 20.8394V20.8374L17 20.7515C16.9145 20.6129 16.8033 20.4958 16.6758 20.4038L16.5156 20.3052L16.3828 20.2485C16.2537 20.2024 16.1376 20.1871 16.0557 20.1802C15.9566 20.1719 15.8471 20.1724 15.7715 20.1724H13.6719C11.7309 20.1726 10.1574 21.746 10.1572 23.687C10.1572 23.904 10.1777 24.1164 10.2158 24.3228H6.53125C5.59956 24.3225 5.28253 23.0865 6.08789 22.6353C6.26855 22.5535 6.92557 22.2541 7.68066 21.8745C8.5218 21.4517 9.57869 20.8844 10.1963 20.396C11.3554 19.4788 11.9493 18.2678 12.1045 16.7231L12.1299 16.4097C12.1604 15.9068 11.9174 15.5213 11.6299 15.2905C11.3692 15.0813 11.0639 14.9842 10.8115 14.9575H10.8105C10.5363 14.9288 10.1947 14.971 9.8916 15.1958C9.60916 15.4054 9.46527 15.6962 9.40039 15.9653C8.97764 17.4265 8.71035 17.9176 8.23438 18.2153L5.09082 19.8589L5.06445 19.8726L5.03906 19.8872C4.89713 19.9737 4.69158 20.0314 4.50977 20.0308C4.4326 20.0305 4.38766 20.0193 4.36426 20.0122C4.3527 19.9904 4.3393 19.9616 4.32812 19.9253C4.30873 19.8623 4.30093 19.7981 4.30273 19.7446C4.3037 19.7161 4.30939 19.6966 4.3125 19.6841L6.48535 18.4614L6.50098 18.4526L6.51562 18.4438C6.93254 18.1873 7.27591 17.9831 7.54883 17.7075H7.5498C7.77861 17.4761 7.96196 17.2185 8.10645 16.9282V16.9272C8.27848 16.5806 8.36313 16.1836 8.47461 15.6919C8.61717 15.0631 8.79153 14.3211 8.96094 13.6646C9.13658 12.9838 9.29015 12.4635 9.3877 12.2349L9.38672 12.2339C9.64963 11.6195 10.0672 11.4459 10.6064 11.2563C10.9086 11.1502 11.1346 11.0708 11.291 11.0161C11.454 10.9592 11.5163 10.9368 11.5215 10.9351C11.6018 10.911 11.6701 10.8904 11.7246 10.8735C11.7682 10.8601 11.7996 10.8499 11.8252 10.8423C11.8512 10.848 11.8839 10.8554 11.9287 10.8657C11.9839 10.8784 12.0525 10.8946 12.1338 10.9126C12.1294 10.9116 12.1358 10.9133 12.1631 10.9204C12.1872 10.9267 12.2201 10.9351 12.2637 10.9468C12.351 10.9702 12.4735 11.0034 12.6387 11.0483C13.1058 11.1753 13.4595 11.2475 13.9814 11.2583H14.0186C14.5408 11.2475 14.8943 11.1753 15.3613 11.0483C15.5265 11.0034 15.649 10.9702 15.7363 10.9468C15.7798 10.9351 15.8127 10.9267 15.8369 10.9204C15.8643 10.9133 15.8713 10.9117 15.8672 10.9126L15.8662 10.9116C15.9478 10.8935 16.017 10.8785 16.0723 10.8657C16.1167 10.8555 16.1489 10.8479 16.1748 10.8423L16.4795 10.936ZM14.0254 24.8071C14.027 24.8108 14.0277 24.815 14.0293 24.8188C14.0179 24.7952 14.0063 24.7698 13.9932 24.7456C14.0034 24.765 14.0157 24.7849 14.0254 24.8071ZM13.9414 24.6587C13.954 24.6771 13.9664 24.6981 13.9795 24.7212C13.9667 24.6984 13.953 24.6775 13.9414 24.6587ZM13.8652 3.67725C15.1655 3.67725 16.2207 4.73151 16.2207 6.03174C16.2204 7.33178 15.1652 8.38525 13.8652 8.38525C12.5659 8.38486 11.513 7.33181 11.5127 6.03174C11.5127 4.73147 12.5656 3.67764 13.8652 3.67725Z" fill="black" stroke="black" stroke-width="1.8"/>
</svg>
