<svg width="28" height="28" viewBox="0 0 28 28" fill="none" xmlns="http://www.w3.org/2000/svg">
<path d="M5.16895 16.9951C5.4605 16.9952 5.6064 16.995 5.71777 17.0518C5.81568 17.1017 5.89542 17.1814 5.94531 17.2793C6.00201 17.3907 6.00195 17.5366 6.00195 17.8281V19.4404C6.00195 20.3365 6.00237 20.7847 6.17676 21.127C6.33016 21.4279 6.57499 21.6728 6.87598 21.8262C7.21814 22.0004 7.66603 22.001 8.56152 22.001H10.1689C10.4604 22.001 10.6064 22.0009 10.7178 22.0576C10.8156 22.1076 10.8954 22.1873 10.9453 22.2852C11.0019 22.3965 11.002 22.5425 11.002 22.834V23.167C11.002 23.4584 11.0019 23.6044 10.9453 23.7158C10.8954 23.8137 10.8156 23.8934 10.7178 23.9434C10.6064 24.0001 10.4604 24.001 10.1689 24.001H9.60156C7.64175 24.001 6.66171 24.0005 5.91309 23.6191C5.25467 23.2837 4.71936 22.7482 4.38379 22.0898C4.00231 21.3412 4.00195 20.3606 4.00195 18.4004V17.8281C4.00195 17.5367 4.002 17.3907 4.05859 17.2793C4.10854 17.1813 4.18812 17.1007 4.28613 17.0508C4.39758 16.994 4.54417 16.9941 4.83594 16.9941L5.16895 16.9951Z" fill="black"/>
<path d="M23.1689 17C23.4605 17.0001 23.6064 16.9999 23.7178 17.0566C23.8157 17.1066 23.8954 17.1862 23.9453 17.2842C24.002 17.3956 24.002 17.5414 24.002 17.833V18.4004C24.002 20.3606 24.0016 21.3412 23.6201 22.0898C23.2845 22.7482 22.7492 23.2837 22.0908 23.6191C21.3422 24.0005 20.3622 24.001 18.4023 24.001H17.835C17.5435 24.001 17.3975 24.0001 17.2861 23.9434C17.1883 23.8934 17.1085 23.8137 17.0586 23.7158C17.002 23.6044 17.002 23.4584 17.002 23.167V22.834C17.002 22.5425 17.002 22.3965 17.0586 22.2852C17.1085 22.1873 17.1883 22.1076 17.2861 22.0576C17.3975 22.0009 17.5435 22.001 17.835 22.001H19.4424C20.3379 22.001 20.7858 22.0004 21.1279 21.8262C21.4289 21.6728 21.6737 21.4279 21.8271 21.127C22.0015 20.7847 22.002 20.3365 22.002 19.4404V17.833C22.002 17.5415 22.002 17.3956 22.0586 17.2842C22.1085 17.1863 22.1883 17.1066 22.2861 17.0566C22.3976 16.9999 22.5442 16.9999 22.8359 17H23.1689Z" fill="black"/>
<path d="M13.998 13.9404C15.203 13.9404 16.3597 14.1406 17.4346 14.5068C17.8584 14.6513 18.07 14.724 18.3213 14.9268C18.5448 15.1071 18.79 15.45 18.8887 15.7197C18.9994 16.0228 19 16.3137 19 16.8955C19 17.3518 18.9997 17.5805 18.9111 17.7549C18.833 17.9083 18.7081 18.0341 18.5547 18.1123C18.3802 18.2011 18.1511 18.2012 17.6943 18.2012H10.3057C9.84889 18.2012 9.6198 18.2012 9.44531 18.1123C9.29189 18.0341 9.16705 17.9083 9.08887 17.7549C9.00032 17.5805 9 17.3518 9 16.8955C9 16.3123 9.00008 16.0205 9.11133 15.7168C9.20998 15.4477 9.4547 15.1049 9.67773 14.9248C9.92958 14.7215 10.143 14.6495 10.5684 14.5049C11.6414 14.14 12.7955 13.9404 13.998 13.9404Z" fill="black"/>
<path d="M13.998 8.25C15.3841 8.25 16.5078 9.37367 16.5078 10.7598C16.5078 12.1459 15.3841 13.2695 13.998 13.2695C12.6119 13.2695 11.4883 12.1459 11.4883 10.7598C11.4883 9.37367 12.6119 8.25 13.998 8.25Z" fill="black"/>
<path d="M18.4023 4.00098C20.3622 4.00098 21.3422 4.00045 22.0908 4.38184C22.7492 4.71732 23.2845 5.25277 23.6201 5.91113C24.0016 6.65982 24.002 7.6404 24.002 9.60059V10.166C24.002 10.4578 24.0021 10.6044 23.9453 10.7158C23.8954 10.8137 23.8157 10.8935 23.7178 10.9434C23.6063 11.0001 23.4597 11.0001 23.168 11H22.835C22.5434 10.9999 22.3975 10.9992 22.2861 10.9424C22.1883 10.8924 22.1085 10.8128 22.0586 10.7148C22.002 10.6035 22.002 10.4574 22.002 10.166V8.56055C22.002 7.66446 22.0015 7.21628 21.8271 6.87402C21.6737 6.57307 21.4289 6.32816 21.1279 6.1748C20.7858 6.00062 20.3379 6.00098 19.4424 6.00098H17.835C17.5435 6.00098 17.3975 6.00011 17.2861 5.94336C17.1883 5.89342 17.1085 5.81372 17.0586 5.71582C17.002 5.60444 17.002 5.45844 17.002 5.16699V4.83398C17.002 4.54253 17.002 4.39653 17.0586 4.28516C17.1085 4.18726 17.1883 4.10756 17.2861 4.05762C17.3975 4.00087 17.5435 4.00098 17.835 4.00098H18.4023Z" fill="black"/>
<path d="M10.1689 4.00098C10.4604 4.00098 10.6064 4.00087 10.7178 4.05762C10.8156 4.10756 10.8954 4.18726 10.9453 4.28516C11.0019 4.39653 11.002 4.54253 11.002 4.83398V5.16699C11.002 5.45844 11.0019 5.60444 10.9453 5.71582C10.8954 5.81372 10.8156 5.89342 10.7178 5.94336C10.6064 6.00011 10.4604 6.00098 10.1689 6.00098H8.56152C7.66603 6.00098 7.21814 6.00062 6.87598 6.1748C6.57499 6.32816 6.33016 6.57307 6.17676 6.87402C6.00237 7.21628 6.00195 7.66446 6.00195 8.56055V10.1611C6.00195 10.4529 6.0021 10.5995 5.94531 10.7109C5.89536 10.8088 5.81566 10.8886 5.71777 10.9385C5.60633 10.9952 5.45974 10.9952 5.16797 10.9951L4.83496 10.9941C4.5434 10.9941 4.3975 10.9943 4.28613 10.9375C4.18824 10.8876 4.10848 10.8079 4.05859 10.71C4.00193 10.5986 4.00195 10.4526 4.00195 10.1611V9.60059C4.00195 7.6404 4.00231 6.65982 4.38379 5.91113C4.71936 5.25277 5.25467 4.71732 5.91309 4.38184C6.66171 4.00045 7.64175 4.00098 9.60156 4.00098H10.1689Z" fill="black"/>
</svg>
