<svg width="28" height="28" viewBox="0 0 28 28" fill="none" xmlns="http://www.w3.org/2000/svg">
<path d="M13.8408 15.5034C15.9913 15.5034 18.0558 15.8587 19.9746 16.5112C20.7339 16.7694 21.1135 16.8989 21.5635 17.2622C21.9613 17.5835 22.399 18.1942 22.5752 18.6743C22.7744 19.2174 22.7744 19.7391 22.7744 20.7817C22.7744 21.5976 22.774 22.0062 22.6152 22.3179C22.4755 22.5919 22.2525 22.8149 21.9785 22.9546C21.6668 23.1133 21.2583 23.1128 20.4424 23.1128H7.24316C6.4276 23.1128 6.01962 23.1132 5.70801 22.9546C5.43398 22.8149 5.21099 22.5919 5.07129 22.3179C4.91256 22.0062 4.91211 21.5977 4.91211 20.7817C4.91211 19.7369 4.91232 19.2145 5.1123 18.6704C5.28846 18.1912 5.72495 17.5811 6.12207 17.2602C6.57291 16.896 6.95368 16.7667 7.71484 16.5083C9.63136 15.8576 11.6934 15.5034 13.8408 15.5034Z" fill="black" fill-opacity="0.8"/>
<path d="M13.8428 5.33935C16.3184 5.33959 18.3252 7.34607 18.3252 9.82177C18.3252 12.2975 16.3184 14.3049 13.8428 14.3052C11.3669 14.3052 9.35938 12.2976 9.35938 9.82177C9.3594 7.34592 11.3669 5.33935 13.8428 5.33935Z" fill="black" fill-opacity="0.8"/>
<path d="M22.6133 2.92919C22.712 2.87238 22.8337 2.87177 22.9326 2.92822C23.0474 2.99381 23.1216 3.26093 23.2695 3.79443L23.5635 4.85595C23.6201 5.06025 23.6493 5.1629 23.7041 5.24658C23.7525 5.3205 23.8157 5.38373 23.8896 5.43212C23.9733 5.48679 24.0753 5.51521 24.2793 5.57177L25.3408 5.86669C25.8741 6.01453 26.1413 6.08797 26.207 6.20263C26.2636 6.30151 26.2637 6.42317 26.207 6.52197C26.1412 6.63654 25.8736 6.71033 25.3398 6.85693L24.2822 7.14697C24.0773 7.20325 23.9746 7.23193 23.8906 7.28661C23.8163 7.3351 23.7527 7.39888 23.7041 7.47314C23.6493 7.55698 23.6201 7.65906 23.5635 7.86376L23.2695 8.92822C23.1217 9.46281 23.0474 9.72976 22.9326 9.7954C22.8336 9.85203 22.7122 9.85228 22.6133 9.7954C22.4987 9.72944 22.4258 9.46146 22.2793 8.92626L21.9883 7.86669C21.9319 7.66086 21.9046 7.55739 21.8496 7.47314C21.801 7.3986 21.7367 7.33526 21.6621 7.28661C21.5779 7.23172 21.4751 7.20326 21.2695 7.14697L20.209 6.85693C19.6738 6.71036 19.4058 6.63659 19.3398 6.52197C19.2832 6.42314 19.2833 6.30153 19.3398 6.20263C19.4056 6.08787 19.6732 6.01356 20.208 5.86572L21.2715 5.57177C21.4765 5.51509 21.5792 5.48705 21.6631 5.43212C21.7374 5.38349 21.8011 5.31997 21.8496 5.2456C21.9043 5.16163 21.932 5.05888 21.9883 4.854L22.2793 3.7954C22.4257 3.26197 22.4988 2.99522 22.6133 2.92919Z" fill="black" fill-opacity="0.8"/>
</svg>
