<svg width="28" height="28" viewBox="0 0 28 28" fill="none" xmlns="http://www.w3.org/2000/svg">
<path d="M9.4773 8.03966C9.65874 7.97742 9.74946 7.94631 9.84533 7.951C9.9289 7.95509 10.0131 7.9813 10.0842 8.02536C10.1658 8.07592 10.2307 8.1636 10.3604 8.33898C11.4097 9.7578 12.6925 10.8884 14.5324 11.5924C16.7066 12.424 19.747 12.7826 24.4196 12.8958C24.4579 13.2601 24.4787 13.6302 24.4787 14.0046C24.4787 14.0446 24.4753 14.0849 24.4748 14.1247C24.8086 14.446 25.018 14.8963 25.0181 15.3962C25.0179 16.084 24.6236 16.6791 24.0497 16.9708C22.7691 21.3244 18.7466 24.5039 13.9785 24.5039C9.20111 24.5039 5.17187 21.3122 3.89948 16.9456C3.35279 16.6453 2.98162 16.0639 2.98145 15.3962C2.98156 14.9175 3.17288 14.4835 3.4821 14.1654L3.48113 14.1634L3.48404 14.1625C4.79001 10.9466 6.7942 8.95996 9.4773 8.03966ZM9.46965 18.0786C9.23185 18.0787 9.04654 18.2876 9.09585 18.5202C9.57669 20.7876 11.5882 22.4894 13.9988 22.4897C16.4097 22.4897 18.4228 20.7879 18.9037 18.5202C18.953 18.2877 18.7675 18.0789 18.5299 18.0786H9.46965ZM9.23046 14.0037C8.55626 14.0037 8.00946 14.5497 8.00932 15.2238C8.00932 15.8981 8.55617 16.445 9.23046 16.445C9.90474 16.445 10.4516 15.8981 10.4516 15.2238C10.4515 14.5497 9.90465 14.0037 9.23046 14.0037ZM18.8107 14.0037C18.1365 14.0037 17.5897 14.5497 17.5896 15.2238C17.5896 15.8981 18.1364 16.445 18.8107 16.445C19.485 16.4449 20.0319 15.8981 20.0319 15.2238C20.0317 14.5497 19.4849 14.0037 18.8107 14.0037ZM13.9785 3.50342C18.9145 3.50342 23.0526 6.91128 24.1756 11.5013C19.6802 11.3807 16.925 11.0213 15.0282 10.2957C14.5032 10.0948 12.8613 9.1044 11.8666 8.10266C11.0782 7.30867 10.684 6.91168 10.5847 6.86627C10.4251 6.79331 10.4797 6.80374 10.3045 6.81271C10.1954 6.8183 9.93605 6.93141 9.41729 7.15764C6.91922 8.24704 4.75352 10.1996 3.54267 13.0864C4.05693 7.42609 8.73187 3.50345 13.9785 3.50342Z" fill="black"/>
</svg>
