<svg width="28" height="28" viewBox="0 0 28 28" fill="none" xmlns="http://www.w3.org/2000/svg">
<path fill-rule="evenodd" clip-rule="evenodd" d="M11.2214 15.4331C13.4017 15.4334 15.5046 15.7538 17.4819 16.348L17.4546 16.34C17.4644 16.3429 17.4744 16.3462 17.4842 16.3491C17.7156 16.4187 17.9456 16.4909 18.1735 16.5679C18.1845 16.5716 18.1955 16.5755 18.2065 16.5793C18.2232 16.5849 18.2396 16.5926 18.2567 16.5986C18.3249 16.6229 18.3959 16.6498 18.4686 16.6795C18.5013 16.693 18.5343 16.7072 18.5677 16.7217C19.088 16.9453 19.6737 17.2772 19.9919 17.534C20.5808 18.0098 21.03 18.5694 21.1904 19.1063C21.3825 19.6578 21.3978 20.355 21.3978 21.5444C21.3978 22.4739 21.3985 22.9393 21.2178 23.2944C21.0586 23.6067 20.8043 23.861 20.492 24.0202C20.1369 24.201 19.6716 24.2013 18.742 24.2013H3.70068C2.77117 24.2013 2.30579 24.2011 1.95068 24.0202C1.63855 23.861 1.38401 23.6066 1.22493 23.2944C1.04436 22.9394 1.04492 22.4737 1.04492 21.5444C1.04493 20.355 1.06021 19.6578 1.25228 19.1063C1.41266 18.5693 1.86193 18.0098 2.45085 17.534C2.84604 17.2149 3.65408 16.7774 4.2373 16.5793C6.42224 15.837 8.77299 15.4334 11.2214 15.4331Z" fill="black" fill-opacity="0.8"/>
<path d="M23.1546 22.1893L23.1523 22.2576C23.1537 22.1932 23.154 22.1278 23.1546 22.0617V22.1893Z" fill="black" fill-opacity="0.8"/>
<path d="M19.8346 15.1961C21.4148 15.2953 22.9371 15.6002 24.3703 16.0871C24.8425 16.2476 25.4963 16.6024 25.8161 16.8607C26.2927 17.2458 26.6559 17.6987 26.7856 18.1333C26.9411 18.5797 26.9543 19.1439 26.9543 20.1066C26.9543 20.8592 26.9537 21.2364 26.8073 21.5239C26.6785 21.7766 26.4732 21.983 26.2205 22.1118C25.9331 22.2582 25.5556 22.2576 24.8032 22.2576H23.3084C23.3131 22.0266 23.3141 21.785 23.3141 21.5456L23.3118 20.7378V20.7355C23.3007 20.065 23.2894 19.5151 23.0965 18.7987L23.002 18.4797C22.7494 17.6985 22.2492 17.0285 21.7088 16.4984L21.4753 16.2796L21.473 16.2773L21.2007 16.0449L21.1973 16.0426L20.9888 15.8843C20.6601 15.6474 20.2499 15.4047 19.8346 15.1961Z" fill="black" fill-opacity="0.8"/>
<path d="M11.2214 3.79834C14.0425 3.79841 16.33 6.08592 16.3301 8.90706C16.3299 11.7281 14.0425 14.0146 11.2214 14.0146C8.40032 14.0145 6.11277 11.7281 6.11263 8.90706C6.11271 6.08598 8.40028 3.79849 11.2214 3.79834Z" fill="black" fill-opacity="0.8"/>
<path d="M18.7158 5.74089C20.9993 5.7414 22.8503 7.59307 22.8504 9.87663C22.8502 12.1601 20.9992 14.0107 18.7158 14.0112C17.9394 14.0112 17.2129 13.7966 16.5921 13.4245C17.549 12.2895 18.1559 10.8497 18.2362 9.26823V9.26481L18.2453 8.91048V8.90706C18.2452 7.83139 18.0019 6.81281 17.5697 5.90153C17.9334 5.79685 18.3184 5.7409 18.7158 5.74089Z" fill="black" fill-opacity="0.8"/>
</svg>
