<svg width="28" height="28" viewBox="0 0 28 28" fill="none" xmlns="http://www.w3.org/2000/svg">
<mask id="mask0_85024_8588" style="mask-type:alpha" maskUnits="userSpaceOnUse" x="3" y="3" width="22" height="22">
<path d="M24.0321 13.9999C24.0321 19.5389 19.5419 24.0292 14.0029 24.0292C8.46387 24.0292 3.97363 19.5389 3.97363 13.9999C3.97363 8.46094 8.46387 3.9707 14.0029 3.9707C19.5419 3.9707 24.0321 8.46094 24.0321 13.9999Z" fill="black"/>
</mask>
<g mask="url(#mask0_85024_8588)">
<path d="M14.6133 -13.6665C21.0551 -13.6665 26.2772 -8.44428 26.2773 -2.00244C26.2773 1.84643 24.4118 5.25795 21.5371 7.38232C23.089 9.14884 24.0312 11.4645 24.0312 14.0005L24.0186 14.5171C23.7496 19.8179 19.3656 24.0334 13.998 24.0337L13.4814 24.021C8.76893 23.782 4.91609 20.2909 4.11816 15.7476C3.28816 16.0135 2.40381 16.1587 1.48535 16.1587C-3.27743 16.1587 -7.13867 12.2974 -7.13867 7.53467C-7.13845 2.77207 -3.27729 -1.08838 1.48535 -1.08838C2.00087 -1.08836 2.50546 -1.04133 2.99609 -0.95459C2.96537 -1.2997 2.94922 -1.64934 2.94922 -2.00244C2.94936 -8.44424 8.17147 -13.6664 14.6133 -13.6665ZM19.9209 8.38232C18.3283 9.1979 16.5255 9.66162 14.6133 9.66162C12.9842 9.6616 11.4338 9.32639 10.0254 8.72314C9.66007 11.3736 8.09018 13.6382 5.88672 14.9497C6.35711 19.0127 9.8089 22.1665 13.998 22.1665C18.508 22.1662 22.164 18.5104 22.1641 14.0005C22.164 11.8232 21.3098 9.84641 19.9209 8.38232ZM18.5088 16.5229C18.9415 16.25 19.517 16.5714 19.2695 17.019C18.575 18.2733 17.256 19.1392 15.7188 19.1851C14.1815 19.2306 12.8129 18.4446 12.0449 17.2339C11.7709 16.8016 12.3261 16.4458 12.7744 16.6929C13.6292 17.1643 14.6176 17.4201 15.6641 17.3892C16.7109 17.3581 17.6831 17.0444 18.5088 16.5229ZM12.5811 11.8706C13.3539 11.8707 13.9811 12.4972 13.9814 13.27C13.9814 14.0431 13.3541 14.6703 12.5811 14.6704C11.8081 14.6702 11.1816 14.0431 11.1816 13.27C11.182 12.4973 11.8083 11.8709 12.5811 11.8706ZM18.7793 11.8706C19.5521 11.8707 20.1793 12.4972 20.1797 13.27C20.1797 14.0431 19.5524 14.6703 18.7793 14.6704C18.0062 14.6703 17.3799 14.0432 17.3799 13.27C17.3803 12.4972 18.0064 11.8707 18.7793 11.8706Z" fill="black" fill-opacity="0.8"/>
</g>
</svg>
