<svg width="28" height="28" viewBox="0 0 28 28" fill="none" xmlns="http://www.w3.org/2000/svg">
<path d="M11.8018 1.24995C11.911 1.22869 12.0244 1.24245 12.125 1.28998C12.2393 1.34408 12.3297 1.46145 12.5098 1.69623L12.5547 1.7558C12.7123 1.96128 12.791 2.0642 12.8164 2.17573C12.8387 2.27405 12.8326 2.37697 12.7979 2.47162C12.7584 2.57897 12.6669 2.67083 12.4844 2.85444L9.90138 5.45209C9.82231 5.53163 9.78275 5.57191 9.76954 5.61811C9.75816 5.65808 9.76045 5.70277 9.77638 5.74116C9.79479 5.78542 9.83824 5.81934 9.92384 5.88764C10.5145 6.35895 12.0233 7.51443 13.1416 7.95405C14.3046 8.4112 15.753 8.91672 17.1787 9.39057C19.0843 10.0239 20.0369 10.3408 20.3926 10.872C20.7069 11.3415 20.7924 11.9029 20.6309 12.4443C20.4479 13.0568 19.6322 13.64 18.0029 14.8056C17.7899 14.958 17.6833 15.0346 17.5733 15.0566C17.459 15.0794 17.3404 15.0629 17.2363 15.0107C17.136 14.9602 17.0536 14.86 16.8906 14.6591C16.734 14.466 16.6561 14.3687 16.627 14.2636C16.5968 14.1547 16.6023 14.0388 16.6436 13.9335C16.6834 13.8321 16.7716 13.744 16.9473 13.5683L18.1172 12.3984C18.2605 12.255 18.3319 12.1827 18.3389 12.1171C18.3449 12.0603 18.325 12.0037 18.2842 11.9638C18.237 11.9178 18.1354 11.9085 17.9336 11.8896L15.2275 11.6357C15.1126 11.6249 15.0549 11.6194 15.0108 11.6386C14.972 11.6555 14.9397 11.6852 14.9199 11.7226C14.8975 11.7652 14.899 11.8236 14.9014 11.9394L14.9121 12.4824C14.9234 13.0391 14.9291 13.318 14.9668 13.582C15.0014 13.8241 15.0508 14.04 15.124 14.2734C15.2039 14.5278 15.324 14.793 15.5645 15.3232C16.14 16.592 16.9879 18.5077 17.5371 19.9677C18.1951 21.7168 18.9445 24.1919 19.3535 25.5849C19.4579 25.9404 19.5098 26.1187 19.4697 26.2626C19.4348 26.3878 19.3525 26.4967 19.2422 26.5654C19.1154 26.6444 18.9283 26.6445 18.5547 26.6445H18.1016C17.8977 26.6445 17.795 26.6451 17.708 26.6132C17.63 26.5846 17.5626 26.5401 17.5059 26.4794C17.4426 26.4118 17.4022 26.316 17.3213 26.1249C16.0385 23.0974 13.79 18.9527 12.8359 17.2285C12.7026 16.9874 12.6361 16.8663 12.5654 16.8437C12.5045 16.8243 12.4365 16.8386 12.3877 16.8798C12.3313 16.9281 12.3161 17.0661 12.2852 17.3408L11.8574 21.1367L11.3535 25.8964C11.3255 26.1609 11.3125 26.2936 11.252 26.3935C11.1987 26.4813 11.1202 26.5509 11.0274 26.5947C10.9217 26.6444 10.7884 26.6445 10.5225 26.6445H10.0176C9.72495 26.6445 9.5786 26.6448 9.46681 26.5878C9.36846 26.5377 9.2884 26.4577 9.23829 26.3593C9.18136 26.2475 9.18166 26.1012 9.18165 25.8085L9.18067 14.7705C9.18067 13.208 9.50579 11.3627 9.70899 10.3603C9.76702 10.0741 9.79599 9.93033 9.78712 9.80366C9.77885 9.68697 9.75208 9.58471 9.70313 9.47846C9.64994 9.36315 9.56067 9.25633 9.38087 9.04389L8.35255 7.83002C7.65551 7.00648 7.30642 6.59383 7.20606 6.14643C7.11798 5.75323 7.16029 5.34221 7.3252 4.97455C7.51283 4.55626 7.93605 4.22224 8.78321 3.55463L11.3281 1.54877C11.5608 1.36543 11.6775 1.27413 11.8018 1.24995Z" fill="black" fill-opacity="0.8"/>
<path d="M15.0947 3.14838C16.2045 3.28462 16.9937 4.29549 16.8574 5.40522C16.721 6.51465 15.711 7.30392 14.6016 7.16791C13.4918 7.03168 12.7026 6.02081 12.8389 4.91108C12.9754 3.80161 13.9852 3.01223 15.0947 3.14838Z" fill="black" fill-opacity="0.8"/>
</svg>
