<svg width="28" height="28" viewBox="0 0 28 28" fill="none" xmlns="http://www.w3.org/2000/svg">
<path d="M7.24614 2.11704C7.12059 2.07427 7.05781 2.05288 6.98873 2.04329C6.76468 2.01219 6.49476 2.11117 6.34393 2.27974C6.29743 2.33172 6.2702 2.37718 6.21575 2.46812C5.54359 3.59069 5.15723 4.90406 5.15723 6.30765C5.15723 7.31954 5.35802 8.28452 5.72195 9.16493C5.77525 9.29386 5.80191 9.35837 5.85423 9.42968C5.99387 9.62001 6.27173 9.74585 6.50689 9.72526C6.595 9.71754 6.67637 9.68982 6.83912 9.63438C7.11691 9.53974 7.25581 9.49242 7.33348 9.44138C7.59168 9.27168 7.68692 9.07501 7.65995 8.76722C7.65184 8.67463 7.58898 8.4972 7.46325 8.14233C7.25999 7.5686 7.14936 6.95105 7.14936 6.30765C7.14936 5.38468 7.37702 4.51488 7.77924 3.75135C7.97379 3.38204 8.07106 3.19738 8.09242 3.11121C8.18005 2.75766 8.08435 2.51723 7.77773 2.3206C7.703 2.27268 7.55071 2.2208 7.24614 2.11704Z" fill="black"/>
<path d="M17.1912 3.1112C17.2126 3.19737 17.3098 3.38203 17.5044 3.75134C17.9066 4.51488 18.1343 5.38468 18.1343 6.30765C18.1343 6.95105 18.0236 7.56861 17.8204 8.14234C17.6946 8.49721 17.6318 8.67464 17.6237 8.76723C17.5967 9.07502 17.692 9.27169 17.9502 9.44139C18.0278 9.49243 18.1667 9.53975 18.4445 9.63439C18.6073 9.68983 18.6886 9.71755 18.7767 9.72526C19.0119 9.74586 19.2898 9.62002 19.4294 9.42968C19.4817 9.35837 19.5084 9.29389 19.5617 9.16494C19.9256 8.28452 20.1264 7.31954 20.1264 6.30765C20.1264 4.90405 19.74 3.59069 19.0679 2.46812C19.0134 2.37718 18.9862 2.33171 18.9397 2.27973C18.7889 2.11116 18.5189 2.01218 18.2949 2.04328C18.2258 2.05287 18.163 2.07426 18.0375 2.11703C17.7329 2.22079 17.5806 2.27267 17.5059 2.32059C17.1993 2.51722 17.1036 2.75765 17.1912 3.1112Z" fill="black"/>
<path d="M12.6418 3.95518C13.6601 3.95518 14.4855 4.78061 14.4855 5.79882V10.7904C14.4855 11.1599 14.4855 11.3446 14.5483 11.5006C14.6038 11.6382 14.6936 11.7594 14.8093 11.8524C14.9404 11.9577 15.1171 12.0113 15.4707 12.1184L19.8522 13.446C21.2374 13.8657 21.93 14.0756 22.4177 14.4971C22.8477 14.8688 23.1647 15.3536 23.3327 15.8966C23.5232 16.5124 23.4377 17.231 23.2666 18.6683L23.0804 20.2321C22.9 21.7476 22.8098 22.5054 22.4562 23.0767C22.1447 23.5801 21.6928 23.9814 21.1561 24.2312C20.5469 24.5148 19.7838 24.5148 18.2577 24.5148H13.5949C13.2159 24.5148 12.9108 24.5148 12.6576 24.5036C11.387 24.5802 10.1214 23.952 9.44166 22.7747L5.74007 16.3633C5.23097 15.4815 5.5331 14.3539 6.4149 13.8448C7.2967 13.3357 8.42425 13.6379 8.93335 14.5197L10.8196 17.7867V14.459C10.8196 14.429 10.8196 14.414 10.8192 14.4017L10.8187 14.3852L10.8177 14.3688C10.8169 14.3565 10.8134 14.3204 10.8066 14.2483C10.801 14.1901 10.7982 14.1311 10.7982 14.0715V5.79882C10.7982 4.78061 11.6236 3.95518 12.6418 3.95518Z" fill="black"/>
</svg>
