<svg width="28" height="28" viewBox="0 0 28 28" fill="none" xmlns="http://www.w3.org/2000/svg">
<path fill-rule="evenodd" clip-rule="evenodd" d="M25.4569 12.6461C23.058 8.68409 18.8236 6.05273 14.0001 6.05273C9.17661 6.05273 4.94215 8.68407 2.54318 12.6463C2.03901 13.479 2.03899 14.5219 2.54314 15.3546C4.94194 19.3168 9.17649 21.9482 14.0001 21.9482C18.8237 21.9482 23.0583 19.3167 25.457 15.3543C25.9611 14.5216 25.961 13.4787 25.4569 12.6461ZM13.9974 18.8845C16.6964 18.8845 18.8843 16.6966 18.8843 13.9976C18.8843 11.2987 16.6964 9.11072 13.9974 9.11072C11.2985 9.11072 9.11052 11.2987 9.11052 13.9976C9.11052 16.6966 11.2985 18.8845 13.9974 18.8845ZM16.8267 13.9976C16.8267 15.5602 15.56 16.8269 13.9974 16.8269C12.4349 16.8269 11.1682 15.5602 11.1682 13.9976C11.1682 12.4351 12.4349 11.1684 13.9974 11.1684C15.56 11.1684 16.8267 12.4351 16.8267 13.9976Z" fill="black"/>
</svg>
