<svg width="28" height="28" viewBox="0 0 28 28" fill="none" xmlns="http://www.w3.org/2000/svg">
<path d="M12.9042 7.24707C13.7887 7.24721 14.5058 7.96419 14.5058 8.84863V13.1855C14.5058 13.5061 14.506 13.6664 14.5605 13.8018C14.6087 13.9213 14.6866 14.0266 14.7871 14.1074C14.9009 14.1989 15.0543 14.2459 15.3613 14.3389L19.1679 15.4922C20.3711 15.8567 20.9727 16.0392 21.3964 16.4053C21.7699 16.7281 22.0454 17.1495 22.1914 17.6211C22.3569 18.1561 22.2824 18.7807 22.1337 20.0293L21.9726 21.3877C21.8159 22.7043 21.7378 23.363 21.4306 23.8594C21.16 24.2966 20.7669 24.6453 20.3007 24.8623C19.7716 25.1086 19.1086 25.1084 17.7832 25.1084H13.7324C13.4032 25.1084 13.1378 25.1084 12.9179 25.0986C11.8142 25.1652 10.7145 24.6194 10.124 23.5967L6.90815 18.0264C6.46605 17.2604 6.72828 16.2812 7.49409 15.8389C8.26016 15.3966 9.24028 15.6587 9.68257 16.4248L11.3212 19.2637V16.3721C11.3212 16.3461 11.3206 16.333 11.3203 16.3223V16.3086L11.3193 16.2939C11.3186 16.2833 11.3155 16.252 11.3095 16.1895C11.3047 16.1389 11.3027 16.087 11.3027 16.0352V8.84863C11.3027 7.96411 12.0197 7.24707 12.9042 7.24707Z" fill="black"/>
<path d="M13.1845 2.01465C16.2307 2.16957 18.6531 4.68874 18.6533 7.77344L18.6464 8.07031C18.5473 10.0233 17.4749 11.7183 15.9062 12.6846V10.9318C15.9062 10.7288 15.9062 10.6273 15.9202 10.5446C15.9359 10.4516 15.9457 10.4175 15.9816 10.3304C16.0135 10.2528 16.0936 10.1245 16.2539 9.8679C16.6333 9.26018 16.8534 8.54264 16.8535 7.77344C16.8533 5.58328 15.0777 3.80709 12.8876 3.80664C10.6972 3.80664 8.92098 5.583 8.92085 7.77344C8.9209 8.55748 9.14878 9.28801 9.5416 9.90317C9.70793 10.1636 9.7911 10.2939 9.82421 10.3727C9.86142 10.4612 9.8715 10.4957 9.8878 10.5904C9.90229 10.6746 9.90229 10.7782 9.90229 10.9853V12.7061C8.31494 11.7434 7.22872 10.0376 7.12886 8.07031L7.12104 7.77344C7.12118 4.58889 9.70307 2.00684 12.8876 2.00684L13.1845 2.01465Z" fill="black"/>
</svg>
