<svg width="28" height="28" viewBox="0 0 28 28" fill="none" xmlns="http://www.w3.org/2000/svg">
<path d="M3.09097 11.7793C9.77201 12.9642 18.3861 12.9491 24.9162 11.7812C25.2967 11.7132 25.6641 11.9605 25.7384 12.3398L25.9689 13.5166C26.0433 13.8959 25.7966 14.2645 25.4162 14.333C23.2763 14.7177 20.9304 14.9828 18.5031 15.1289V22.9951C18.5031 24.0997 17.6076 24.9951 16.5031 24.9951H11.508C10.4036 24.9949 9.50796 24.0996 9.50796 22.9951V15.127C7.09755 14.981 4.75422 14.7165 2.59683 14.332C2.21633 14.2642 1.96777 13.897 2.04116 13.5176L2.26968 12.3389C2.34335 11.9595 2.71038 11.7118 3.09097 11.7793ZM13.9611 3.04102C16.1835 3.04102 17.9865 4.84301 17.9865 7.06543C17.9862 9.2876 16.1833 11.0889 13.9611 11.0889C11.7392 11.0885 9.93794 9.28737 9.93765 7.06543C9.93765 4.84325 11.739 3.0414 13.9611 3.04102Z" fill="black"/>
</svg>
