<svg width="28" height="28" viewBox="0 0 28 28" fill="none" xmlns="http://www.w3.org/2000/svg">
<path d="M18.2178 23.8174C20.1775 23.8174 21.1576 23.8178 21.9063 23.4365C22.5648 23.101 23.1 22.5648 23.4355 21.9063C23.817 21.1576 23.8174 20.1778 23.8174 18.2178L23.8174 9.78223C23.8174 7.82221 23.817 6.84241 23.4355 6.09375C23.1 5.43518 22.5648 4.89903 21.9063 4.56348C21.1576 4.18219 20.1775 4.18262 18.2178 4.18262L9.77734 4.18262C7.81764 4.18262 6.83749 4.18223 6.08887 4.56348C5.4303 4.89903 4.89415 5.43518 4.55859 6.09375C4.17733 6.84237 4.17774 7.82251 4.17774 9.78223L4.17774 18.2178C4.17774 20.1775 4.17732 21.1576 4.5586 21.9063C4.89415 22.5648 5.4303 23.101 6.08887 23.4365C6.83748 23.8178 7.81765 23.8174 9.77735 23.8174L18.2178 23.8174ZM14.6045 20.2617C13.2261 20.1917 11.9655 19.6759 10.9629 18.8564C10.7463 18.6794 10.7437 18.3562 10.9414 18.1582L11.2256 17.874C11.4174 17.682 11.7262 17.6801 11.9404 17.8467C12.7652 18.4881 13.802 18.87 14.9277 18.8701C17.6172 18.8698 19.7977 16.6895 19.7979 14C19.7977 11.3105 17.6172 9.13023 14.9277 9.12988C13.8018 9.12996 12.766 9.51339 11.9414 10.1553C11.7272 10.322 11.4184 10.32 11.2266 10.1279L10.9424 9.84375C10.7448 9.6459 10.7467 9.32274 10.9629 9.14551C12.0432 8.26162 13.4232 7.72957 14.9277 7.72949L15.25 7.73731C18.5629 7.90534 21.1981 10.6454 21.1982 14L21.1895 14.3223C21.0216 17.6352 18.2823 20.2702 14.9277 20.2705L14.6045 20.2617ZM9.47754 17.0459C9.26432 17.0403 9.01216 16.8245 8.50879 16.3936L6.40723 14.5947C6.16414 14.3866 6.0419 14.2822 5.99707 14.1582C5.95786 14.0494 5.95842 13.9303 5.99707 13.8213C6.04122 13.697 6.16229 13.5914 6.4043 13.3818L8.50586 11.5625C9.01071 11.1254 9.26363 10.9066 9.47754 10.9004C9.66325 10.8952 9.84131 10.9764 9.95899 11.1201C10.0944 11.2859 10.094 11.6209 10.0938 12.2891L10.0928 12.6338L11.9463 12.6367C12.2218 12.6374 12.445 12.8613 12.4453 13.1367L12.4453 14.833C12.4452 15.1094 12.2207 15.3334 11.9443 15.333L10.0928 15.3291L10.0928 15.665C10.0925 16.3281 10.0918 16.6598 9.95703 16.8252C9.83985 16.9687 9.6628 17.0504 9.47754 17.0459ZM14.2998 15.334C14.0246 15.3327 13.8018 15.1092 13.8018 14.834L13.8018 13.1387C13.8018 12.8619 14.027 12.6378 14.3037 12.6387L14.9766 12.6406C15.2517 12.6418 15.4744 12.8655 15.4746 13.1406L15.4746 14.8369C15.4745 15.1137 15.2494 15.3379 14.9727 15.3369L14.2998 15.334Z" fill="currentColor"/>
</svg>
