<svg width="28" height="28" viewBox="0 0 28 28" fill="none" xmlns="http://www.w3.org/2000/svg">
<path d="M5.376 15.049L11.319 20.992C11.487 21.16 11.571 21.307 11.571 21.433C11.571 21.545 11.494 21.678 11.34 21.832L10.941 22.231C10.759 22.413 10.598 22.497 10.458 22.483C10.332 22.483 10.185 22.399 10.017 22.231L2.751 14.965C2.471 14.685 2.331 14.412 2.331 14.146C2.345 13.866 2.478 13.6 2.73 13.348L10.017 6.04C10.185 5.872 10.339 5.788 10.479 5.788C10.619 5.788 10.773 5.872 10.941 6.04L11.298 6.397C11.466 6.565 11.55 6.719 11.55 6.859C11.55 6.999 11.48 7.139 11.34 7.279L5.376 13.243H24.948C25.158 13.243 25.319 13.299 25.431 13.411C25.557 13.509 25.62 13.649 25.62 13.831V14.398C25.62 14.608 25.564 14.769 25.452 14.881C25.34 14.993 25.172 15.049 24.948 15.049H5.376Z" fill="currentColor"/>
</svg>
