<svg width="28" height="28" viewBox="0 0 28 28" fill="none" xmlns="http://www.w3.org/2000/svg">
<path d="M18.816 24.016C18.27 24.058 17.339 24.079 16.023 24.079H10.353C9.051 24.079 8.12 24.058 7.56 24.016C7.014 23.974 6.545 23.855 6.153 23.659C5.775 23.477 5.439 23.232 5.145 22.924C4.851 22.63 4.606 22.294 4.41 21.916C4.214 21.524 4.088 21.055 4.032 20.509C3.99 19.949 3.969 19.018 3.969 17.716V12.088C3.969 10.772 3.99 9.841 4.032 9.295C4.088 8.735 4.214 8.259 4.41 7.867C4.802 7.111 5.383 6.53 6.153 6.124C6.545 5.928 7.014 5.809 7.56 5.767C8.12 5.725 9.051 5.704 10.353 5.704H12.6C12.782 5.704 12.922 5.753 13.02 5.851C13.132 5.949 13.188 6.103 13.188 6.313V6.88C13.188 7.09 13.132 7.244 13.02 7.342C12.922 7.44 12.782 7.489 12.6 7.489H9.45C8.694 7.489 8.155 7.503 7.833 7.531C7.525 7.559 7.252 7.629 7.014 7.741C6.552 7.993 6.223 8.329 6.027 8.749C5.915 8.973 5.845 9.246 5.817 9.568C5.789 9.876 5.775 10.408 5.775 11.164V18.619C5.775 19.361 5.789 19.893 5.817 20.215C5.845 20.537 5.915 20.81 6.027 21.034C6.237 21.482 6.566 21.818 7.014 22.042C7.252 22.154 7.525 22.224 7.833 22.252C8.155 22.28 8.694 22.294 9.45 22.294H16.947C17.703 22.294 18.235 22.28 18.543 22.252C18.865 22.224 19.138 22.154 19.362 22.042C19.824 21.832 20.16 21.496 20.37 21.034C20.482 20.81 20.552 20.537 20.58 20.215C20.608 19.893 20.622 19.361 20.622 18.619V15.385C20.622 15.189 20.664 15.035 20.748 14.923C20.846 14.811 21.028 14.755 21.294 14.755H21.756C22.008 14.755 22.176 14.811 22.26 14.923C22.358 15.035 22.407 15.189 22.407 15.385V17.716C22.407 19.018 22.386 19.949 22.344 20.509C22.302 21.055 22.183 21.524 21.987 21.916C21.791 22.294 21.539 22.63 21.231 22.924C20.937 23.232 20.608 23.477 20.244 23.659C19.852 23.855 19.376 23.974 18.816 24.016ZM12.285 16.876C12.145 16.876 12.005 16.806 11.865 16.666L11.424 16.225C11.284 16.085 11.221 15.945 11.235 15.805C11.249 15.651 11.326 15.504 11.466 15.364L20.874 5.956H16.884C16.716 5.956 16.583 5.914 16.485 5.83C16.401 5.732 16.359 5.592 16.359 5.41V4.696C16.359 4.528 16.408 4.402 16.506 4.318C16.604 4.22 16.73 4.171 16.884 4.171H22.806C23.198 4.171 23.485 4.269 23.667 4.465C23.849 4.647 23.94 4.934 23.94 5.326V11.185C23.94 11.381 23.891 11.528 23.793 11.626C23.709 11.71 23.576 11.752 23.394 11.752H22.68C22.498 11.752 22.365 11.71 22.281 11.626C22.197 11.528 22.155 11.381 22.155 11.185V7.237L12.684 16.687C12.558 16.799 12.425 16.862 12.285 16.876Z" fill="currentColor"/>
</svg>
