<svg width="28" height="28" viewBox="0 0 28 28" fill="none" xmlns="http://www.w3.org/2000/svg">
<path d="M20.601 23.848C20.125 23.89 19.313 23.911 18.165 23.911H9.765C8.631 23.911 7.819 23.89 7.329 23.848C6.839 23.806 6.426 23.701 6.09 23.533C5.418 23.197 4.907 22.693 4.557 22.021C4.389 21.671 4.284 21.258 4.242 20.782C4.2 20.292 4.179 19.48 4.179 18.346V9.925C4.179 8.777 4.2 7.965 4.242 7.489C4.284 6.999 4.389 6.586 4.557 6.25C4.907 5.564 5.418 5.053 6.09 4.717C6.426 4.549 6.839 4.444 7.329 4.402C7.819 4.36 8.631 4.339 9.765 4.339H18.165C19.313 4.339 20.125 4.36 20.601 4.402C21.091 4.444 21.504 4.549 21.84 4.717C22.512 5.053 23.023 5.564 23.373 6.25C23.541 6.586 23.646 6.999 23.688 7.489C23.73 7.965 23.751 8.777 23.751 9.925V18.346C23.751 19.48 23.73 20.292 23.688 20.782C23.646 21.258 23.541 21.671 23.373 22.021C23.023 22.693 22.512 23.197 21.84 23.533C21.504 23.701 21.091 23.806 20.601 23.848ZM9.471 15.112C9.471 15.252 9.52 15.371 9.618 15.469L13.524 19.375C13.664 19.515 13.811 19.592 13.965 19.606C14.119 19.606 14.266 19.536 14.406 19.396L18.291 15.511C18.389 15.413 18.438 15.287 18.438 15.133C18.452 14.979 18.41 14.853 18.312 14.755L18.081 14.524C17.969 14.412 17.836 14.356 17.682 14.356C17.542 14.356 17.416 14.412 17.304 14.524L14.658 17.149V8.455C14.658 8.315 14.595 8.196 14.469 8.098C14.343 8 14.217 7.951 14.091 7.951H13.839C13.699 7.951 13.566 8 13.44 8.098C13.328 8.182 13.272 8.301 13.272 8.455V17.149L10.626 14.524C10.528 14.412 10.395 14.356 10.227 14.356C10.059 14.356 9.912 14.433 9.786 14.587L9.597 14.776C9.513 14.86 9.471 14.972 9.471 15.112Z" fill="black"/>
</svg>
