<svg width="28" height="28" viewBox="0 0 28 28" fill="none" xmlns="http://www.w3.org/2000/svg">
<path d="M19.383 19.291C19.229 19.319 19.054 19.242 18.858 19.06L18.459 18.661C18.319 18.521 18.256 18.381 18.27 18.241C18.284 18.087 18.361 17.94 18.501 17.8L21.336 14.965H18.438C17.584 14.965 16.94 14.951 16.506 14.923C16.086 14.895 15.687 14.825 15.309 14.713C14.609 14.489 13.986 14.167 13.44 13.747C13.146 13.523 12.866 13.257 12.6 12.949C12.348 12.627 11.949 12.102 11.403 11.374L11.088 10.933C10.528 10.177 10.143 9.673 9.933 9.421C9.737 9.169 9.534 8.966 9.324 8.812C8.932 8.504 8.498 8.28 8.022 8.14C7.756 8.07 7.441 8.028 7.077 8.014C6.713 7.986 6.111 7.972 5.271 7.972H4.179C3.955 7.972 3.78 7.937 3.654 7.867C3.542 7.783 3.486 7.629 3.486 7.405V6.733C3.486 6.537 3.549 6.397 3.675 6.313C3.801 6.229 3.969 6.187 4.179 6.187H5.418C6.272 6.187 6.909 6.201 7.329 6.229C7.763 6.257 8.169 6.327 8.547 6.439C9.191 6.621 9.814 6.936 10.416 7.384C10.738 7.622 11.032 7.909 11.298 8.245C11.578 8.581 11.963 9.085 12.453 9.757L12.768 10.198C13.258 10.884 13.622 11.367 13.86 11.647C14.098 11.927 14.322 12.151 14.532 12.319C14.896 12.613 15.33 12.837 15.834 12.991C16.086 13.075 16.38 13.124 16.716 13.138C17.066 13.152 17.689 13.159 18.585 13.159H21.315L18.438 10.261C18.326 10.135 18.263 10.009 18.249 9.883C18.235 9.743 18.298 9.603 18.438 9.463L18.9 9.001C19.026 8.875 19.166 8.819 19.32 8.833C19.474 8.847 19.6 8.903 19.698 9.001L24.003 13.306C24.283 13.572 24.43 13.817 24.444 14.041C24.458 14.251 24.332 14.489 24.066 14.755L19.887 18.955C19.719 19.137 19.551 19.249 19.383 19.291ZM7.329 22.021C6.909 22.049 6.272 22.063 5.418 22.063H4.158C3.934 22.063 3.766 22.014 3.654 21.916C3.542 21.818 3.486 21.657 3.486 21.433V20.866C3.486 20.67 3.535 20.523 3.633 20.425C3.745 20.313 3.906 20.257 4.116 20.257H5.271C6.167 20.257 6.783 20.25 7.119 20.236C7.469 20.222 7.77 20.173 8.022 20.089C8.526 19.935 8.96 19.718 9.324 19.438C9.534 19.27 9.744 19.053 9.954 18.787C10.178 18.521 10.556 18.031 11.088 17.317L12.327 15.616C12.439 15.462 12.565 15.364 12.705 15.322C12.845 15.266 13.006 15.294 13.188 15.406L13.692 15.721C13.86 15.819 13.958 15.952 13.986 16.12C14.014 16.274 13.979 16.421 13.881 16.561L12.453 18.472C12.285 18.696 12.159 18.871 12.075 18.997C11.641 19.571 11.319 19.977 11.109 20.215C10.913 20.453 10.682 20.67 10.416 20.866C9.856 21.286 9.233 21.601 8.547 21.811C8.169 21.923 7.763 21.993 7.329 22.021Z" fill="black"/>
</svg>
