<svg width="28" height="28" viewBox="0 0 28 28" fill="none" xmlns="http://www.w3.org/2000/svg">
<path d="M22.617 22.84C22.533 22.938 22.414 22.987 22.26 22.987L19.026 23.071C18.844 23.071 18.704 23.008 18.606 22.882C18.522 22.756 18.501 22.609 18.543 22.441L19.341 19.438C19.397 19.242 19.481 19.109 19.593 19.039C19.705 18.969 19.824 18.948 19.95 18.976C20.076 19.004 20.181 19.067 20.265 19.165L20.601 19.585C20.657 19.655 20.713 19.69 20.769 19.69C20.839 19.69 20.895 19.662 20.937 19.606C21.595 18.71 22.064 17.723 22.344 16.645C22.638 15.553 22.708 14.447 22.554 13.327C22.414 12.193 22.05 11.122 21.462 10.114C20.832 9.008 20.006 8.098 18.984 7.384C17.976 6.67 16.856 6.194 15.624 5.956C14.406 5.704 13.167 5.718 11.907 5.998C11.739 6.026 11.606 6.026 11.508 5.998C11.41 5.956 11.319 5.851 11.235 5.683L10.899 5.116C10.815 4.962 10.808 4.808 10.878 4.654C10.948 4.486 11.081 4.374 11.277 4.318C12.817 3.926 14.336 3.87 15.834 4.15C17.346 4.43 18.725 5.011 19.971 5.893C21.217 6.761 22.232 7.867 23.016 9.211C23.744 10.443 24.185 11.752 24.339 13.138C24.507 14.51 24.402 15.868 24.024 17.212C23.66 18.556 23.051 19.795 22.197 20.929C22.099 21.055 22.05 21.174 22.05 21.286C22.05 21.384 22.092 21.489 22.176 21.601L22.617 22.168C22.701 22.266 22.743 22.378 22.743 22.504C22.743 22.644 22.701 22.756 22.617 22.84ZM16.737 24.31C16.667 24.492 16.52 24.611 16.296 24.667C14.812 25.003 13.335 25.017 11.865 24.709C10.409 24.401 9.072 23.813 7.854 22.945C6.636 22.091 5.649 21.006 4.893 19.69C4.165 18.444 3.717 17.128 3.549 15.742C3.395 14.342 3.507 12.97 3.885 11.626C4.263 10.282 4.886 9.05 5.754 7.93C5.824 7.832 5.852 7.734 5.838 7.636C5.838 7.524 5.789 7.405 5.691 7.279L5.313 6.754C5.257 6.67 5.229 6.572 5.229 6.46C5.243 6.334 5.285 6.229 5.355 6.145C5.439 6.047 5.551 5.998 5.691 5.998L8.946 5.914C9.156 5.9 9.303 5.97 9.387 6.124C9.471 6.264 9.478 6.453 9.408 6.691L8.589 9.673C8.561 9.799 8.491 9.897 8.379 9.967C8.281 10.023 8.169 10.044 8.043 10.03C7.931 10.016 7.833 9.96 7.749 9.862L7.35 9.379C7.294 9.309 7.217 9.274 7.119 9.274C7.035 9.274 6.965 9.309 6.909 9.379C6.265 10.275 5.803 11.262 5.523 12.34C5.257 13.418 5.201 14.517 5.355 15.637C5.509 16.743 5.873 17.793 6.447 18.787C7.063 19.851 7.854 20.74 8.82 21.454C9.8 22.154 10.878 22.637 12.054 22.903C13.23 23.169 14.427 23.19 15.645 22.966C15.841 22.924 15.995 22.924 16.107 22.966C16.233 23.022 16.324 23.113 16.38 23.239L16.716 23.827C16.814 23.981 16.821 24.142 16.737 24.31Z" fill="black"/>
</svg>
