<svg width="28" height="28" viewBox="0 0 28 28" fill="none" xmlns="http://www.w3.org/2000/svg">
<path d="M2.352 9.148C2.352 8.868 2.45 8.63 2.646 8.434L8.442 2.659C8.582 2.519 8.729 2.449 8.883 2.449C9.037 2.449 9.184 2.519 9.324 2.659L9.702 3.037C9.856 3.177 9.933 3.324 9.933 3.478C9.933 3.632 9.863 3.779 9.723 3.919L5.376 8.245H17.745C19.201 8.245 20.538 8.616 21.756 9.358C22.974 10.1 23.926 11.101 24.612 12.361C25.312 13.607 25.634 14.965 25.578 16.435C25.522 17.821 25.137 19.095 24.423 20.257C23.709 21.405 22.757 22.315 21.567 22.987C20.377 23.659 19.089 23.995 17.703 23.995H7.266C7.07 23.995 6.916 23.939 6.804 23.827C6.692 23.715 6.636 23.561 6.636 23.365V22.819C6.636 22.623 6.692 22.469 6.804 22.357C6.916 22.245 7.07 22.189 7.266 22.189H17.703C18.781 22.189 19.775 21.93 20.685 21.412C21.609 20.894 22.344 20.194 22.89 19.312C23.45 18.416 23.751 17.429 23.793 16.351C23.835 15.231 23.59 14.188 23.058 13.222C22.526 12.242 21.784 11.472 20.832 10.912C19.894 10.338 18.865 10.051 17.745 10.051H5.397L9.723 14.377C9.863 14.517 9.933 14.664 9.933 14.818C9.933 14.972 9.856 15.119 9.702 15.259L9.324 15.637C9.184 15.777 9.037 15.847 8.883 15.847C8.729 15.847 8.582 15.777 8.442 15.637L2.646 9.841C2.45 9.645 2.352 9.414 2.352 9.148Z" fill="black"/>
</svg>
