<svg width="28" height="28" viewBox="0 0 28 28" fill="none" xmlns="http://www.w3.org/2000/svg">
<path d="M16.506 25.969C15.932 26.025 14.973 26.053 13.629 26.053H9.744C8.4 26.053 7.441 26.025 6.867 25.969C6.293 25.927 5.803 25.801 5.397 25.591C4.669 25.185 4.116 24.632 3.738 23.932C3.528 23.526 3.395 23.036 3.339 22.462C3.297 21.888 3.276 20.929 3.276 19.585V15.7C3.276 14.356 3.297 13.397 3.339 12.823C3.395 12.249 3.528 11.766 3.738 11.374C4.13 10.632 4.683 10.079 5.397 9.715C5.803 9.505 6.293 9.379 6.867 9.337C7.441 9.281 8.4 9.253 9.744 9.253H13.629C14.973 9.253 15.932 9.281 16.506 9.337C17.08 9.379 17.57 9.505 17.976 9.715C18.326 9.897 18.641 10.128 18.921 10.408C19.215 10.688 19.453 11.01 19.635 11.374C19.845 11.766 19.971 12.249 20.013 12.823C20.069 13.397 20.097 14.356 20.097 15.7V19.585C20.097 20.929 20.069 21.888 20.013 22.462C19.971 23.036 19.845 23.526 19.635 23.932C19.453 24.282 19.215 24.597 18.921 24.877C18.641 25.157 18.326 25.395 17.976 25.591C17.57 25.801 17.08 25.927 16.506 25.969ZM7.14 24.226C7.462 24.254 8.015 24.268 8.799 24.268H14.574C15.358 24.268 15.911 24.254 16.233 24.226C16.555 24.198 16.835 24.121 17.073 23.995C17.465 23.799 17.787 23.484 18.039 23.05C18.151 22.826 18.221 22.546 18.249 22.21C18.277 21.874 18.291 21.321 18.291 20.551V14.755C18.291 13.985 18.277 13.432 18.249 13.096C18.221 12.76 18.151 12.48 18.039 12.256C17.787 11.822 17.465 11.507 17.073 11.311C16.835 11.185 16.555 11.108 16.233 11.08C15.911 11.052 15.358 11.038 14.574 11.038H8.799C8.015 11.038 7.462 11.052 7.14 11.08C6.818 11.108 6.538 11.185 6.3 11.311C5.894 11.521 5.572 11.836 5.334 12.256C5.222 12.48 5.152 12.76 5.124 13.096C5.096 13.432 5.082 13.985 5.082 14.755V20.551C5.082 21.321 5.096 21.874 5.124 22.21C5.152 22.546 5.222 22.826 5.334 23.05C5.572 23.47 5.894 23.785 6.3 23.995C6.538 24.121 6.818 24.198 7.14 24.226ZM24.465 14.776C24.353 14.874 24.22 14.923 24.066 14.923H23.457C23.247 14.923 23.093 14.874 22.995 14.776C22.897 14.664 22.848 14.524 22.848 14.356C22.848 13.152 22.827 12.291 22.785 11.773C22.743 11.241 22.652 10.772 22.512 10.366C22.204 9.484 21.714 8.714 21.042 8.056C20.384 7.384 19.607 6.894 18.711 6.586C18.403 6.488 18.046 6.418 17.64 6.376C17.248 6.334 16.716 6.306 16.044 6.292V7.552C16.044 7.748 16.002 7.902 15.918 8.014C15.834 8.126 15.729 8.182 15.603 8.182C15.477 8.182 15.344 8.133 15.204 8.035L12.096 5.725C11.956 5.627 11.886 5.494 11.886 5.326C11.886 5.158 11.956 5.025 12.096 4.927L15.204 2.617C15.33 2.519 15.456 2.47 15.582 2.47C15.722 2.47 15.834 2.526 15.918 2.638C16.002 2.736 16.044 2.904 16.044 3.142V4.486C16.786 4.5 17.409 4.535 17.913 4.591C18.417 4.647 18.879 4.745 19.299 4.885C20.461 5.277 21.469 5.907 22.323 6.775C23.191 7.629 23.821 8.637 24.213 9.799C24.409 10.359 24.528 10.954 24.57 11.584C24.612 12.214 24.633 13.138 24.633 14.356C24.633 14.524 24.577 14.664 24.465 14.776Z" fill="black"/>
</svg>
