<svg width="28" height="28" viewBox="0 0 28 28" fill="none" xmlns="http://www.w3.org/2000/svg">
<path d="M12.348 13.075C12.138 13.285 11.83 13.39 11.424 13.39H4.641C4.473 13.39 4.34 13.348 4.242 13.264C4.144 13.166 4.095 13.047 4.095 12.907V12.067C4.095 11.941 4.144 11.829 4.242 11.731C4.34 11.633 4.473 11.584 4.641 11.584H9.618L4.41 6.376C4.298 6.264 4.235 6.131 4.221 5.977C4.207 5.823 4.27 5.676 4.41 5.536L4.851 5.095C4.991 4.955 5.138 4.899 5.292 4.927C5.446 4.941 5.579 5.011 5.691 5.137L10.878 10.324V5.368C10.878 5.2 10.92 5.067 11.004 4.969C11.088 4.857 11.214 4.801 11.382 4.801H12.18C12.348 4.801 12.474 4.857 12.558 4.969C12.642 5.067 12.684 5.2 12.684 5.368V12.13C12.684 12.536 12.572 12.851 12.348 13.075ZM15.54 16.225C15.764 16.001 16.079 15.889 16.485 15.889H23.268C23.436 15.889 23.569 15.938 23.667 16.036C23.765 16.12 23.814 16.232 23.814 16.372V17.212C23.814 17.338 23.765 17.45 23.667 17.548C23.569 17.646 23.436 17.695 23.268 17.695H18.291L23.499 22.903C23.611 23.015 23.674 23.148 23.688 23.302C23.702 23.456 23.639 23.603 23.499 23.743L23.058 24.184C22.918 24.324 22.771 24.38 22.617 24.352C22.463 24.338 22.33 24.268 22.218 24.142L17.031 18.955V23.911C17.031 24.079 16.989 24.212 16.905 24.31C16.821 24.422 16.695 24.478 16.527 24.478H15.729C15.561 24.478 15.435 24.422 15.351 24.31C15.267 24.212 15.225 24.079 15.225 23.911V17.149C15.225 16.743 15.33 16.435 15.54 16.225Z" fill="black"/>
</svg>
