<svg width="28" height="28" viewBox="0 0 28 28" fill="none" xmlns="http://www.w3.org/2000/svg">
<circle cx="14.001" cy="13.998" r="9.85" stroke="black" stroke-opacity="0.1" stroke-width="1.8"/>
<path d="M14.0009 3.24805C19.9379 3.2481 24.7509 8.06102 24.7509 13.998C24.7509 19.9351 19.9379 24.748 14.0009 24.748C13.9612 24.748 13.9213 24.7476 13.8817 24.7471C13.4197 24.7407 13.0663 24.3488 13.0663 23.8867V23.8359C13.0663 23.3353 13.5002 22.9482 14.0009 22.9482C18.9438 22.9482 22.9511 18.941 22.9511 13.998C22.9511 9.05513 18.9438 5.04791 14.0009 5.04785C13.5002 5.04787 13.0663 4.65981 13.0663 4.15918V4.1084C13.0663 3.64632 13.4197 3.25509 13.8817 3.24902C13.9213 3.24851 13.9612 3.24805 14.0009 3.24805Z" fill="black"/>
<path d="M13.828 8.92188C13.9402 8.88556 14.0615 8.88551 14.1737 8.92188C14.2376 8.94262 14.2982 8.98101 14.37 9.04199L14.6376 9.29883L17.6102 12.2715C17.8317 12.4929 17.9426 12.6048 17.9843 12.7324C18.0207 12.8445 18.0205 12.966 17.9843 13.0781C17.9428 13.2059 17.8307 13.3186 17.6073 13.542C17.3839 13.7654 17.2712 13.8773 17.1435 13.9189C17.0311 13.9554 16.9101 13.9554 16.7977 13.9189C16.6699 13.8774 16.5585 13.7667 16.3368 13.5449L14.9013 12.1094V17.9727C14.9013 18.2859 14.9006 18.4437 14.8397 18.5635C14.7862 18.6685 14.7005 18.7539 14.5956 18.8076C14.4758 18.8686 14.3171 18.8691 14.0009 18.8691C13.6847 18.8691 13.5269 18.8686 13.4071 18.8076C13.3018 18.7539 13.2157 18.6688 13.162 18.5635C13.1011 18.4437 13.1005 18.286 13.1005 17.9727V12.1094L11.6649 13.5449C11.4434 13.7665 11.3317 13.8773 11.204 13.9189C11.0917 13.9554 10.9706 13.9554 10.8583 13.9189C10.7305 13.8774 10.618 13.7656 10.3944 13.542C10.171 13.3185 10.059 13.2059 10.0175 13.0781C9.98125 12.9659 9.98106 12.8446 10.0175 12.7324C10.0592 12.6048 10.1701 12.4929 10.3915 12.2715L13.3642 9.29883L13.6317 9.04199C13.6677 9.01147 13.7013 8.98658 13.7333 8.9668C13.7649 8.94728 13.7963 8.9322 13.828 8.92188Z" fill="black"/>
</svg>
