<svg width="28" height="28" viewBox="0 0 28 28" fill="none" xmlns="http://www.w3.org/2000/svg">
<circle cx="14.001" cy="13.998" r="9.85" stroke="black" stroke-opacity="0.1" stroke-width="1.8"/>
<path d="M14.0009 3.24805C19.938 3.24807 24.7509 8.061 24.7509 13.998C24.7509 19.9351 19.938 24.748 14.0009 24.748C13.9613 24.748 13.9214 24.7476 13.8818 24.7471C13.4198 24.7407 13.0664 24.3488 13.0664 23.8867V23.8359C13.0664 23.3353 13.5003 22.9482 14.0009 22.9482C18.9439 22.9482 22.9511 18.941 22.9511 13.998C22.9511 9.05511 18.9439 5.04787 14.0009 5.04785C13.5003 5.04787 13.0664 4.65981 13.0664 4.15918V4.1084C13.0664 3.64634 13.4198 3.25513 13.8818 3.24902C13.9214 3.24851 13.9613 3.24805 14.0009 3.24805Z" fill="black"/>
<path d="M14.0009 8.89551C14.317 8.89551 14.4749 8.89609 14.5947 8.95703C14.7 9.0107 14.7861 9.09587 14.8398 9.20117C14.9008 9.32096 14.9013 9.47839 14.9013 9.79199V15.6553L16.3369 14.2197C16.5586 13.998 16.67 13.8873 16.7978 13.8457C16.9101 13.8093 17.0312 13.8093 17.1435 13.8457C17.2713 13.8873 17.3838 13.9991 17.6074 14.2227C17.8309 14.4462 17.9428 14.5587 17.9843 14.6865C18.0207 14.7988 18.0208 14.92 17.9843 15.0322C17.9427 15.16 17.8319 15.2715 17.6103 15.4932L14.6377 18.4658L14.3701 18.7227C14.334 18.7533 14.3006 18.778 14.2685 18.7979C14.2368 18.8175 14.2056 18.8324 14.1738 18.8428C14.0615 18.8792 13.9403 18.8791 13.8281 18.8428C13.7642 18.822 13.7036 18.7837 13.6318 18.7227L13.3642 18.4658L10.3916 15.4932C10.1699 15.2715 10.0591 15.16 10.0175 15.0322C9.98107 14.92 9.98119 14.7988 10.0175 14.6865C10.0591 14.5587 10.1709 14.4462 10.3945 14.2227C10.6181 13.9991 10.7305 13.8873 10.8584 13.8457C10.9707 13.8093 11.0917 13.8092 11.2041 13.8457C11.3319 13.8873 11.4433 13.998 11.665 14.2197L13.1006 15.6553V9.79199C13.1006 9.47836 13.101 9.32096 13.1621 9.20117C13.2157 9.09606 13.3012 9.01071 13.4062 8.95703C13.526 8.89602 13.6847 8.89551 14.0009 8.89551Z" fill="black"/>
</svg>
