<svg width="28" height="28" viewBox="0 0 28 28" fill="none" xmlns="http://www.w3.org/2000/svg">
<path d="M17.9404 16.875C17.828 16.8385 17.7071 16.8385 17.5947 16.875C17.4669 16.9166 17.3544 17.0284 17.1309 17.252C16.9076 17.4752 16.7955 17.5871 16.7539 17.7148C16.7175 17.8272 16.7174 17.9492 16.7539 18.0615C16.7956 18.189 16.9067 18.3003 17.1279 18.5215L20.1572 21.5508H17.7471C17.4335 21.5508 17.276 21.5503 17.1562 21.6113C17.051 21.665 16.9658 21.7512 16.9121 21.8564C16.8513 21.9761 16.8506 22.1345 16.8506 22.4502C16.8506 22.7662 16.8511 22.9252 16.9121 23.0449C16.9658 23.1499 17.0512 23.2355 17.1562 23.2891C17.276 23.35 17.4336 23.3506 17.7471 23.3506H22.4541C22.7675 23.3506 22.9252 23.35 23.0449 23.2891C23.1499 23.2355 23.2354 23.1499 23.2891 23.0449C23.3177 22.9887 23.3328 22.9234 23.3408 22.8379C23.3498 22.7422 23.3506 22.6195 23.3506 22.4541V17.7471C23.3506 17.4337 23.3499 17.276 23.2891 17.1562C23.2355 17.0512 23.15 16.9658 23.0449 16.9121C22.9251 16.8511 22.7665 16.8506 22.4502 16.8506C22.1341 16.8506 21.9762 16.8511 21.8564 16.9121C21.7512 16.9658 21.665 17.051 21.6113 17.1562C21.5505 17.276 21.5508 17.4338 21.5508 17.7471V20.3984L18.4014 17.249C18.1797 17.0273 18.0682 16.9166 17.9404 16.875Z" fill="currentColor" fill-opacity="0.9"/>
<path d="M10.4062 16.875C10.2938 16.8385 10.173 16.8385 10.0605 16.875C9.93276 16.9166 9.82127 17.0274 9.59961 17.249L6.4502 20.3984V17.7471C6.4502 17.4338 6.4505 17.276 6.38965 17.1562C6.33599 17.051 6.24981 16.9658 6.14453 16.9121C6.02477 16.8511 5.86692 16.8506 5.55078 16.8506C5.23449 16.8506 5.07585 16.8511 4.95605 16.9121C4.85103 16.9658 4.76551 17.0512 4.71191 17.1562C4.65106 17.276 4.65039 17.4338 4.65039 17.7471V22.4541C4.65039 22.6195 4.65117 22.7422 4.66016 22.8379C4.66822 22.9234 4.68327 22.9887 4.71191 23.0449C4.76558 23.1499 4.85102 23.2355 4.95605 23.2891C5.07582 23.35 5.23341 23.3506 5.54688 23.3506H10.2539C10.5674 23.3506 10.725 23.35 10.8447 23.2891C10.9498 23.2355 11.0352 23.1499 11.0889 23.0449C11.1499 22.9252 11.1504 22.7662 11.1504 22.4502C11.1504 22.1345 11.1497 21.9761 11.0889 21.8564C11.0352 21.7512 10.95 21.665 10.8447 21.6113C10.7249 21.5503 10.5675 21.5508 10.2539 21.5508H7.84375L10.873 18.5215C11.0942 18.3003 11.2054 18.189 11.2471 18.0615C11.2836 17.9492 11.2835 17.8272 11.2471 17.7148C11.2055 17.5871 11.0934 17.4752 10.8701 17.252C10.6465 17.0284 10.5341 16.9166 10.4062 16.875Z" fill="currentColor" fill-opacity="0.9"/>
<path d="M17.7471 4.64941C17.4335 4.64941 17.276 4.65088 17.1562 4.71191C17.0512 4.76557 16.9657 4.85099 16.9121 4.95605C16.8513 5.0758 16.8506 5.23485 16.8506 5.55078C16.8506 5.86649 16.8511 6.02485 16.9121 6.14453C16.9658 6.24968 17.051 6.33604 17.1562 6.38965C17.276 6.45059 17.4336 6.4502 17.7471 6.4502H20.1572L17.1279 9.47949C16.9067 9.70074 16.7955 9.81182 16.7539 9.93945C16.7175 10.0518 16.7174 10.1738 16.7539 10.2861C16.7956 10.4137 16.9077 10.5258 17.1309 10.749C17.3544 10.9725 17.4669 11.0844 17.5947 11.126C17.707 11.1624 17.8281 11.1624 17.9404 11.126C18.0682 11.0844 18.1798 10.9735 18.4014 10.752L21.5508 7.60254V10.2539C21.5508 10.5672 21.5503 10.725 21.6113 10.8447C21.665 10.9499 21.7512 11.0352 21.8564 11.0889C21.9762 11.1498 22.1342 11.1504 22.4502 11.1504C22.7663 11.1504 22.9252 11.1498 23.0449 11.0889C23.1499 11.0353 23.2354 10.9497 23.2891 10.8447C23.3501 10.725 23.3506 10.5672 23.3506 10.2539V5.54688C23.3506 5.3815 23.3498 5.25882 23.3408 5.16309C23.3328 5.07753 23.3176 5.0123 23.2891 4.95605C23.2354 4.85095 23.15 4.76557 23.0449 4.71191C22.9251 4.65088 22.7677 4.64941 22.4541 4.64941H17.7471Z" fill="currentColor" fill-opacity="0.9"/>
<path d="M5.54688 4.64941C5.23325 4.64941 5.07585 4.65088 4.95605 4.71191C4.85099 4.76557 4.76553 4.85097 4.71191 4.95605C4.68334 5.01229 4.66819 5.07755 4.66016 5.16309C4.65121 5.25882 4.65039 5.3815 4.65039 5.54688V10.2539C4.65039 10.5672 4.65091 10.725 4.71191 10.8447C4.76555 10.9497 4.85107 11.0353 4.95605 11.0889C5.07582 11.1498 5.23466 11.1504 5.55078 11.1504C5.86675 11.1504 6.02479 11.1498 6.14453 11.0889C6.24976 11.0352 6.33594 10.9499 6.38965 10.8447C6.45065 10.725 6.4502 10.5672 6.4502 10.2539V7.60254L9.59961 10.752C9.82119 10.9735 9.93275 11.0844 10.0605 11.126C10.1729 11.1624 10.2939 11.1624 10.4062 11.126C10.5341 11.0844 10.6466 10.9725 10.8701 10.749C11.0933 10.5259 11.2054 10.4137 11.2471 10.2861C11.2836 10.1738 11.2835 10.0518 11.2471 9.93945C11.2055 9.81182 11.0943 9.70076 10.873 9.47949L7.84375 6.4502H10.2539C10.5673 6.4502 10.725 6.45056 10.8447 6.38965C10.9499 6.33605 11.0352 6.24967 11.0889 6.14453C11.1498 6.02485 11.1504 5.86649 11.1504 5.55078C11.1504 5.23483 11.1497 5.0758 11.0889 4.95605C11.0353 4.85097 10.9498 4.76557 10.8447 4.71191C10.7249 4.65088 10.5675 4.64941 10.2539 4.64941H5.54688Z" fill="currentColor" fill-opacity="0.9"/>
</svg>
