<svg width="28" height="28" viewBox="0 0 28 28" fill="none" xmlns="http://www.w3.org/2000/svg">
<path d="M13.2222 4.66497C13.5737 4.3135 14.1442 4.3135 14.4957 4.66497L17.2085 7.37884C17.4303 7.60054 17.542 7.71098 17.5835 7.8388C17.6201 7.95127 17.6201 8.07301 17.5835 8.18548C17.542 8.31328 17.4292 8.4248 17.2056 8.64837C16.9821 8.87188 16.8705 8.98377 16.7427 9.02532C16.6304 9.06183 16.5094 9.06177 16.397 9.02532C16.2692 8.98378 16.1579 8.87307 15.9361 8.6513L14.8316 7.54681V15.955L21.5601 19.8378L21.1031 18.1308C21.022 17.828 20.9814 17.6763 21.0093 17.5449C21.034 17.4293 21.0944 17.3241 21.1822 17.245C21.2821 17.1551 21.4353 17.115 21.7408 17.0331C22.0462 16.9513 22.1991 16.9095 22.3306 16.9374C22.4462 16.962 22.5513 17.0234 22.6304 17.1113C22.7201 17.2111 22.7603 17.3626 22.8414 17.665L23.8355 21.372L23.8541 21.4618C23.9271 21.9122 23.6489 22.3539 23.1988 22.4745L19.4918 23.4677C19.1889 23.5488 19.0373 23.5894 18.9058 23.5615C18.7902 23.5369 18.6851 23.4764 18.606 23.3886C18.516 23.2887 18.475 23.1355 18.3931 22.83C18.3113 22.5245 18.2704 22.3717 18.2984 22.2402C18.323 22.1246 18.3835 22.0195 18.4712 21.9404C18.5712 21.8504 18.723 21.8096 19.0259 21.7284L20.5337 21.3232L13.9996 17.5517L7.46538 21.3232L8.97417 21.7284C9.27711 21.8096 9.42895 21.8504 9.52886 21.9404C9.61666 22.0195 9.67713 22.1246 9.70171 22.2402C9.72966 22.3717 9.68884 22.5245 9.60698 22.83C9.52512 23.1355 9.48405 23.2887 9.39409 23.3886C9.31499 23.4764 9.20989 23.5369 9.09429 23.5615C8.9628 23.5894 8.81121 23.5489 8.50835 23.4677L4.80132 22.4745C4.32134 22.3459 4.03609 21.852 4.1646 21.372L5.15874 17.665C5.23976 17.3626 5.27998 17.2111 5.36968 17.1113C5.44878 17.0234 5.55386 16.962 5.66948 16.9374C5.80098 16.9095 5.95384 16.9513 6.25933 17.0331C6.56479 17.115 6.71801 17.1551 6.81792 17.245C6.90574 17.3241 6.96615 17.4293 6.99077 17.5449C7.01872 17.6763 6.97815 17.828 6.89702 18.1308L6.43804 19.8378L13.0318 16.0322V7.40032L11.7818 8.6513C11.5603 8.87279 11.4495 8.98367 11.3218 9.02532C11.2094 9.06187 11.0876 9.06187 10.9751 9.02532C10.8474 8.98372 10.7357 8.87185 10.5123 8.64837C10.2888 8.42493 10.1769 8.31319 10.1353 8.18548C10.0988 8.07301 10.0988 7.95127 10.1353 7.8388C10.1769 7.7111 10.2878 7.60037 10.5093 7.37884L13.2222 4.66497Z" fill="currentColor" fill-opacity="0.9"/>
</svg>
