<svg width="28" height="28" viewBox="0 0 28 28" fill="none" xmlns="http://www.w3.org/2000/svg">
<path fill-rule="evenodd" clip-rule="evenodd" d="M18.4004 8.19727C20.3603 8.19727 21.3402 8.19765 22.0889 8.5791C22.7473 8.91465 23.2826 9.44992 23.6182 10.1084C23.9995 10.857 24 11.8371 24 13.7969V17.5977C24 19.5574 23.9996 20.5375 23.6182 21.2861C23.2826 21.9446 22.7473 22.4799 22.0889 22.8154C21.3402 23.1968 20.3602 23.1973 18.4004 23.1973H9.59961C7.63977 23.1973 6.65976 23.1968 5.91113 22.8154C5.25268 22.4799 4.71739 21.9446 4.38184 21.2861C4.0004 20.5375 4 19.5574 4 17.5977V13.7969C4 11.8371 4.00048 10.857 4.38184 10.1084C4.71737 9.44992 5.25266 8.91465 5.91113 8.5791C6.65977 8.19765 7.63969 8.19727 9.59961 8.19727H18.4004ZM14.1826 16.4639C13.2494 16.464 12.3533 16.6185 11.5205 16.9014C11.2982 16.9769 10.9904 17.144 10.8398 17.2656C10.6155 17.447 10.4439 17.6597 10.3828 17.8643C10.3097 18.0744 10.3037 18.3406 10.3037 18.7939C10.3037 19.1479 10.3041 19.3257 10.373 19.4609C10.4337 19.5797 10.5305 19.6767 10.6494 19.7373C10.7848 19.8062 10.9622 19.8057 11.3164 19.8057H17.0488C17.403 19.8057 17.5805 19.8062 17.7158 19.7373C17.8347 19.6767 17.9315 19.5797 17.9922 19.4609C18.0611 19.3257 18.0605 19.1479 18.0605 18.7939C18.0605 18.3406 18.0546 18.0744 17.9814 17.8643C17.9204 17.6598 17.7496 17.4469 17.5254 17.2656C17.3749 17.1441 17.067 16.977 16.8447 16.9014C16.012 16.6185 15.1158 16.464 14.1826 16.4639ZM14.1826 12.0303C13.1075 12.0303 12.2354 12.9014 12.2354 13.9766C12.2355 15.0517 13.1075 15.9238 14.1826 15.9238C15.2577 15.9238 16.1298 15.0517 16.1299 13.9766C16.1298 12.9014 15.2578 12.0303 14.1826 12.0303Z" fill="currentColor" fill-opacity="0.8"/>
<path d="M18.499 4.80371C19.7144 4.80371 20.7856 5.42287 21.4131 6.36328C21.4952 6.48631 21.536 6.54835 21.5322 6.61523C21.529 6.66959 21.4965 6.73082 21.4531 6.76367C21.3996 6.80401 21.3182 6.80371 21.1562 6.80371H6.8418C6.67981 6.80371 6.59842 6.80409 6.54492 6.76367C6.5015 6.73082 6.46905 6.66959 6.46582 6.61523C6.46201 6.54836 6.50386 6.4863 6.58594 6.36328C7.21343 5.4231 8.28386 4.80374 9.49902 4.80371H18.499Z" fill="currentColor" fill-opacity="0.8"/>
</svg>
