<svg width="28" height="28" viewBox="0 0 28 28" fill="none" xmlns="http://www.w3.org/2000/svg">
<path d="M14.826 24.373C14.728 24.527 14.56 24.604 14.322 24.604H5.439C4.879 24.604 4.48 24.59 4.242 24.562C4.004 24.548 3.801 24.499 3.633 24.415C3.311 24.247 3.059 24.002 2.877 23.68C2.807 23.512 2.758 23.309 2.73 23.071C2.716 22.833 2.709 22.434 2.709 21.874V21.685C2.709 20.985 2.716 20.481 2.73 20.173C2.758 19.851 2.828 19.55 2.94 19.27C3.038 19.046 3.178 18.808 3.36 18.556C3.556 18.29 3.745 18.066 3.927 17.884C4.165 17.688 4.403 17.534 4.641 17.422C4.893 17.31 5.271 17.17 5.775 17.002C6.937 16.596 8.127 16.288 9.345 16.078C10.577 15.868 11.83 15.763 13.104 15.763C13.874 15.763 14.455 15.777 14.847 15.805C15.071 15.819 15.246 15.903 15.372 16.057C15.498 16.211 15.498 16.386 15.372 16.582L14.91 17.338C14.784 17.534 14.602 17.618 14.364 17.59C13.804 17.548 13.314 17.527 12.894 17.527C10.584 17.527 8.386 17.926 6.3 18.724L6.069 18.808C5.887 18.892 5.726 18.976 5.586 19.06C5.446 19.13 5.313 19.207 5.187 19.291C4.935 19.487 4.753 19.753 4.641 20.089C4.585 20.229 4.55 20.397 4.536 20.593C4.522 20.775 4.515 20.992 4.515 21.244V21.475V22.168C4.515 22.448 4.55 22.623 4.62 22.693C4.704 22.777 4.879 22.819 5.145 22.819H13.923C14.091 22.819 14.21 22.84 14.28 22.882C14.364 22.924 14.434 23.008 14.49 23.134L14.868 23.932C14.938 24.086 14.924 24.233 14.826 24.373ZM19.047 23.134C19.495 23.4 19.985 23.533 20.517 23.533C20.755 23.533 20.986 23.505 21.21 23.449C21.448 23.407 21.658 23.337 21.84 23.239L17.913 19.291C17.703 19.711 17.598 20.152 17.598 20.614C17.598 21.146 17.724 21.636 17.976 22.084C18.242 22.532 18.599 22.882 19.047 23.134ZM22.869 24.688C22.155 25.108 21.371 25.318 20.517 25.318C19.663 25.318 18.872 25.108 18.144 24.688C17.43 24.268 16.856 23.694 16.422 22.966C16.002 22.252 15.792 21.468 15.792 20.614C15.792 19.76 16.002 18.976 16.422 18.262C16.856 17.534 17.43 16.96 18.144 16.54C18.872 16.12 19.663 15.91 20.517 15.91C21.371 15.91 22.155 16.12 22.869 16.54C23.583 16.96 24.15 17.534 24.57 18.262C25.004 18.976 25.221 19.76 25.221 20.614C25.221 21.468 25.011 22.252 24.591 22.966C24.171 23.694 23.597 24.268 22.869 24.688ZM20.517 17.716C19.985 17.716 19.544 17.821 19.194 18.031L23.1 21.958C23.324 21.538 23.436 21.09 23.436 20.614C23.436 20.096 23.303 19.613 23.037 19.165C22.785 18.717 22.435 18.367 21.987 18.115C21.539 17.849 21.049 17.716 20.517 17.716ZM15.708 13.18C14.966 13.614 14.161 13.831 13.293 13.831C12.425 13.831 11.62 13.614 10.878 13.18C10.136 12.746 9.548 12.158 9.114 11.416C8.68 10.674 8.463 9.869 8.463 9.001C8.463 8.133 8.68 7.328 9.114 6.586C9.548 5.83 10.136 5.235 10.878 4.801C11.62 4.367 12.425 4.15 13.293 4.15C14.161 4.15 14.966 4.367 15.708 4.801C16.464 5.235 17.059 5.83 17.493 6.586C17.927 7.328 18.144 8.133 18.144 9.001C18.144 9.869 17.927 10.674 17.493 11.416C17.059 12.158 16.464 12.746 15.708 13.18ZM11.781 11.605C12.243 11.871 12.747 12.004 13.293 12.004C13.853 12.004 14.364 11.871 14.826 11.605C15.288 11.339 15.652 10.975 15.918 10.513C16.184 10.051 16.317 9.547 16.317 9.001C16.317 8.455 16.184 7.951 15.918 7.489C15.652 7.027 15.288 6.663 14.826 6.397C14.364 6.131 13.853 5.998 13.293 5.998C12.747 5.998 12.243 6.131 11.781 6.397C11.319 6.663 10.955 7.027 10.689 7.489C10.423 7.951 10.29 8.455 10.29 9.001C10.29 9.547 10.423 10.051 10.689 10.513C10.955 10.975 11.319 11.339 11.781 11.605Z" fill="currentColor"/>
</svg>
