<svg width="28" height="28" viewBox="0 0 28 28" fill="none" xmlns="http://www.w3.org/2000/svg">
<path d="M14.7284 14.5425C14.8159 14.5425 14.8902 14.6064 14.9032 14.6929L15.3729 19.3013C15.3968 19.5351 15.7273 19.5609 15.787 19.3335L16.8817 15.1626C17.0035 14.8529 17.3258 14.6697 17.6542 14.7231L20.1806 15.1362C21.25 15.3112 22.1055 16.1204 22.3407 17.1782L23.4794 22.3042C23.602 22.8561 23.1824 23.3794 22.6171 23.3794H5.37783C4.81285 23.3789 4.39295 22.8559 4.51553 22.3042L5.6542 17.1782C5.8893 16.1203 6.74588 15.3113 7.81533 15.1362L10.3417 14.7231C10.6701 14.6696 10.9913 14.853 11.1132 15.1626L12.2079 19.3335C12.2676 19.5609 12.5981 19.5352 12.622 19.3013L13.0917 14.6929C13.1046 14.6065 13.1792 14.5427 13.2665 14.5425H14.7284Z" fill="currentColor"/>
<path d="M13.997 4.31982C16.3865 4.31994 18.3241 6.25739 18.3241 8.64697C18.324 11.0365 16.3865 12.974 13.997 12.9741C11.6075 12.9739 9.66993 11.0364 9.66982 8.64697C9.66989 6.25748 11.6075 4.32007 13.997 4.31982Z" fill="currentColor"/>
</svg>
