<svg width="28" height="28" viewBox="0 0 28 28" fill="none" xmlns="http://www.w3.org/2000/svg">
<path d="M19.362 23.386C17.724 24.352 15.925 24.835 13.965 24.835C12.005 24.835 10.199 24.352 8.547 23.386C6.909 22.42 5.614 21.118 4.662 19.48C3.71 17.842 3.234 16.057 3.234 14.125C3.234 12.179 3.717 10.387 4.683 8.749C5.649 7.111 6.951 5.809 8.589 4.843C10.227 3.877 12.019 3.394 13.965 3.394C15.911 3.394 17.703 3.877 19.341 4.843C20.979 5.809 22.274 7.111 23.226 8.749C24.192 10.387 24.675 12.179 24.675 14.125C24.675 16.057 24.199 17.849 23.247 19.501C22.295 21.139 21 22.434 19.362 23.386ZM10.815 22.483C11.823 22.861 12.873 23.05 13.965 23.05C15.057 23.05 16.1 22.861 17.094 22.483C18.088 22.105 18.984 21.573 19.782 20.887C18.984 19.753 18.081 18.885 17.073 18.283C16.065 17.681 15.029 17.38 13.965 17.38C12.901 17.38 11.865 17.681 10.857 18.283C9.849 18.885 8.939 19.753 8.127 20.887C8.925 21.573 9.821 22.105 10.815 22.483ZM5.523 17.023C5.845 17.947 6.3 18.787 6.888 19.543C7.826 18.297 8.897 17.331 10.101 16.645C11.319 15.945 12.607 15.595 13.965 15.595C15.309 15.595 16.59 15.945 17.808 16.645C19.026 17.331 20.104 18.297 21.042 19.543C21.63 18.787 22.085 17.947 22.407 17.023C22.729 16.099 22.89 15.133 22.89 14.125C22.89 12.501 22.484 11.01 21.672 9.652C20.874 8.28 19.789 7.195 18.417 6.397C17.059 5.599 15.575 5.2 13.965 5.2C12.341 5.2 10.843 5.599 9.471 6.397C8.113 7.195 7.035 8.28 6.237 9.652C5.439 11.01 5.04 12.501 5.04 14.125C5.04 15.133 5.201 16.099 5.523 17.023ZM15.897 14.272C15.309 14.622 14.665 14.797 13.965 14.797C13.265 14.797 12.614 14.622 12.012 14.272C11.424 13.922 10.955 13.453 10.605 12.865C10.255 12.263 10.08 11.612 10.08 10.912C10.08 10.212 10.255 9.568 10.605 8.98C10.955 8.378 11.424 7.902 12.012 7.552C12.614 7.202 13.265 7.027 13.965 7.027C14.665 7.027 15.309 7.202 15.897 7.552C16.499 7.902 16.975 8.378 17.325 8.98C17.675 9.568 17.85 10.212 17.85 10.912C17.85 11.612 17.675 12.263 17.325 12.865C16.975 13.453 16.499 13.922 15.897 14.272ZM12.537 12.319C12.929 12.711 13.405 12.907 13.965 12.907C14.511 12.907 14.98 12.711 15.372 12.319C15.764 11.927 15.96 11.458 15.96 10.912C15.96 10.366 15.764 9.897 15.372 9.505C14.98 9.113 14.511 8.917 13.965 8.917C13.405 8.917 12.929 9.113 12.537 9.505C12.159 9.897 11.97 10.366 11.97 10.912C11.97 11.458 12.159 11.927 12.537 12.319Z" fill="currentColor"/>
</svg>
