<svg width="28" height="28" viewBox="0 0 28 28" fill="none" xmlns="http://www.w3.org/2000/svg">
<path d="M19.215 23.197C17.605 24.135 15.855 24.604 13.965 24.604C12.075 24.604 10.325 24.135 8.715 23.197C7.105 22.259 5.831 20.992 4.893 19.396C3.955 17.786 3.486 16.036 3.486 14.146C3.486 12.242 3.955 10.492 4.893 8.896C5.831 7.286 7.105 6.012 8.715 5.074C10.325 4.136 12.075 3.667 13.965 3.667C15.855 3.667 17.605 4.136 19.215 5.074C20.825 6.012 22.099 7.286 23.037 8.896C23.975 10.492 24.444 12.242 24.444 14.146C24.444 16.036 23.975 17.786 23.037 19.396C22.099 20.992 20.825 22.259 19.215 23.197ZM18.018 23.05C17.374 23.106 16.289 23.134 14.763 23.134H13.167C11.641 23.134 10.549 23.106 9.891 23.05C9.247 23.008 8.694 22.868 8.232 22.63C7.336 22.154 6.657 21.468 6.195 20.572C6.195 20.544 6.188 20.523 6.174 20.509C6.188 20.453 6.202 20.404 6.216 20.362C7.266 18.836 8.456 17.653 9.786 16.813C11.116 15.959 12.509 15.532 13.965 15.532C15.421 15.532 16.814 15.959 18.144 16.813C19.474 17.653 20.664 18.836 21.714 20.362C21.756 20.418 21.763 20.488 21.735 20.572C21.511 21.006 21.224 21.398 20.874 21.748C20.524 22.098 20.132 22.392 19.698 22.63C19.236 22.868 18.676 23.008 18.018 23.05ZM9.702 21.475C11.004 22.231 12.425 22.609 13.965 22.609C15.505 22.609 16.919 22.231 18.207 21.475C19.509 20.719 20.538 19.697 21.294 18.409C22.064 17.107 22.449 15.686 22.449 14.146C22.449 12.606 22.064 11.192 21.294 9.904C20.538 8.602 19.509 7.573 18.207 6.817C16.919 6.047 15.505 5.662 13.965 5.662C12.425 5.662 11.004 6.047 9.702 6.817C8.414 7.573 7.385 8.602 6.615 9.904C5.859 11.192 5.481 12.606 5.481 14.146C5.481 15.686 5.859 17.107 6.615 18.409C7.385 19.697 8.414 20.719 9.702 21.475ZM15.624 14.041C15.12 14.335 14.567 14.482 13.965 14.482C13.363 14.482 12.81 14.335 12.306 14.041C11.802 13.747 11.403 13.348 11.109 12.844C10.815 12.326 10.668 11.773 10.668 11.185C10.668 10.583 10.815 10.03 11.109 9.526C11.403 9.022 11.802 8.623 12.306 8.329C12.81 8.035 13.363 7.888 13.965 7.888C14.567 7.888 15.12 8.035 15.624 8.329C16.128 8.623 16.527 9.022 16.821 9.526C17.115 10.03 17.262 10.583 17.262 11.185C17.262 11.773 17.115 12.326 16.821 12.844C16.527 13.348 16.128 13.747 15.624 14.041Z" fill="currentColor"/>
</svg>
