<svg width="28" height="28" viewBox="0 0 28 28" fill="none" xmlns="http://www.w3.org/2000/svg">
<path d="M14.0007 9.61523C16.4218 9.61558 18.3844 11.5788 18.3845 14C18.3843 16.4211 16.4218 18.3834 14.0007 18.3838C11.5793 18.3838 9.61606 16.4213 9.6159 14C9.61597 11.5786 11.5792 9.61523 14.0007 9.61523Z" fill="currentColor" fill-opacity="0.8"/>
<path fill-rule="evenodd" clip-rule="evenodd" d="M14.0222 5.22461C19.3387 5.22475 23.7725 8.5285 25.7458 12.8721C26.0689 13.5835 26.0682 14.4003 25.7438 15.1113C23.758 19.4626 19.2866 22.7821 14.0222 22.7822C8.75622 22.782 4.28712 19.4625 2.30145 15.1113C1.97698 14.4002 1.97636 13.5835 2.2995 12.8721C4.27267 8.52869 8.70419 5.22481 14.0222 5.22461ZM14.0222 7.25C9.5722 7.2502 5.82023 10.0208 4.14422 13.71C4.0633 13.8882 4.0631 14.0927 4.14422 14.2705C5.83417 17.9735 9.62752 20.7557 14.0222 20.7559C18.4153 20.7557 22.211 17.9735 23.9011 14.2705C23.9821 14.0927 23.982 13.8881 23.9011 13.71C22.225 10.0206 18.4708 7.25014 14.0222 7.25Z" fill="currentColor" fill-opacity="0.8"/>
</svg>
