<svg width="28" height="28" viewBox="0 0 28 28" fill="none" xmlns="http://www.w3.org/2000/svg">
<path fill-rule="evenodd" clip-rule="evenodd" d="M13.999 3.49902C19.798 3.49902 24.499 8.20003 24.499 13.999C24.499 19.798 19.798 24.499 13.999 24.499C8.20003 24.499 3.49902 19.798 3.49902 13.999C3.49902 8.20003 8.20003 3.49902 13.999 3.49902ZM18.6553 16.9424C19.0896 16.2495 18.0859 15.8052 17.4131 16.2705C16.4241 16.9546 15.2528 17.3505 13.9971 17.3506C12.7431 17.3506 11.573 16.9557 10.585 16.2734C9.91176 15.8087 8.90872 16.2537 9.34375 16.9463C10.3538 18.5536 12.0611 19.6103 13.998 19.6104C15.9365 19.6102 17.6454 18.5519 18.6553 16.9424ZM10.4355 9.7373C9.58836 9.7373 8.90137 10.475 8.90137 11.3848C8.90157 12.2943 9.58849 13.0322 10.4355 13.0322C11.2825 13.0321 11.9695 12.2943 11.9697 11.3848C11.9697 10.4751 11.2826 9.73743 10.4355 9.7373ZM17.5586 9.7373C16.7114 9.7373 16.0244 10.475 16.0244 11.3848C16.0246 12.2943 16.7115 13.0322 17.5586 13.0322C18.4056 13.0321 19.0926 12.2943 19.0928 11.3848C19.0928 10.4751 18.4057 9.73743 17.5586 9.7373Z" fill="currentColor"/>
</svg>
