<svg width="28" height="28" viewBox="0 0 28 28" fill="none" xmlns="http://www.w3.org/2000/svg">
<path d="M13.9998 7.80427C12.8103 7.80427 11.846 6.83996 11.846 5.65043C11.846 4.46089 12.8103 3.49658 13.9998 3.49658C15.1894 3.49658 16.1537 4.46089 16.1537 5.65043C16.1537 6.83996 15.1894 7.80427 13.9998 7.80427Z" fill="currentColor"/>
<path fill-rule="evenodd" clip-rule="evenodd" d="M10.6631 13.9073C10.6654 13.0443 10.9332 12.2118 11.4177 11.5168C11.4172 11.5355 11.4169 11.5543 11.4169 11.5731V17.7388C11.4169 18.4697 11.2262 19.188 10.8635 19.8226L9.39077 22.4C9.12519 22.8647 9.28667 23.4568 9.75143 23.7224C10.2162 23.9879 10.8083 23.8265 11.0738 23.3617L12.5466 20.7844C13.0766 19.8569 13.3554 18.8071 13.3554 17.7388V15.4175L15.2709 18.9749L16.8632 23.2211C17.0512 23.7224 17.6099 23.9763 18.1111 23.7883C18.6123 23.6004 18.8662 23.0417 18.6783 22.5405L17.0629 18.2328C17.0476 18.1919 17.0295 18.1521 17.0088 18.1136L15.5092 15.3288V12.8433C16.0228 13.5808 16.6933 14.1984 17.475 14.6502C17.6359 14.7432 17.8035 14.827 18.0637 14.9571L18.4142 15.1324C18.893 15.3717 19.4752 15.1777 19.7146 14.6989C19.954 14.2201 19.7599 13.6379 19.2811 13.3985L18.9579 13.2369C18.6616 13.0888 18.5491 13.0321 18.4451 12.9719C17.8079 12.6037 17.2787 12.0745 16.9104 11.4373C16.8503 11.3333 16.7936 11.2208 16.6455 10.9245L16.3579 10.3495L16.3561 10.3459C15.3114 8.28389 12.6074 7.75217 10.8598 9.26509L10.8319 9.28947L10.8109 9.30789L10.8095 9.30908C9.48816 10.471 8.72897 12.1441 8.72463 13.9036L8.72462 13.906L8.72461 15.3424C8.7246 15.8776 9.15854 16.3116 9.69383 16.3116C10.2291 16.3116 10.6631 15.8777 10.6631 15.3424L10.6631 13.9084L10.6631 13.9073Z" fill="currentColor"/>
</svg>
