<svg width="28" height="28" viewBox="0 0 28 28" fill="none" xmlns="http://www.w3.org/2000/svg">
<path d="M14 3.24902C19.9376 3.24902 24.751 8.0624 24.751 14C24.751 19.9376 19.9376 24.751 14 24.751C8.0624 24.751 3.24902 19.9376 3.24902 14C3.24902 8.0624 8.0624 3.24902 14 3.24902ZM14 5.04883C9.05651 5.04883 5.04883 9.05651 5.04883 14C5.04883 18.9435 9.05651 22.9512 14 22.9512C18.9435 22.9512 22.9512 18.9435 22.9512 14C22.9512 9.05651 18.9435 5.04883 14 5.04883ZM9.33496 11.0215C9.91479 11.0215 10.3847 11.4915 10.3848 12.0713V14.2383C10.3844 14.8178 9.91461 15.2881 9.33496 15.2881C8.7554 15.288 8.28556 14.8178 8.28516 14.2383V12.0713C8.28526 11.4915 8.75522 11.0216 9.33496 11.0215ZM15.6992 11.0215C16.2791 11.0215 16.7489 11.4915 16.749 12.0713V14.2383C16.7486 14.8178 16.2789 15.2881 15.6992 15.2881C15.1197 15.288 14.6498 14.8178 14.6494 14.2383V12.0713C14.6495 11.4915 15.1195 11.0216 15.6992 11.0215Z" fill="currentColor"/>
</svg>
