<svg width="28" height="28" viewBox="0 0 28 28" fill="none" xmlns="http://www.w3.org/2000/svg">
<g clip-path="url(#clip0_85024_8602)">
<path d="M17.5853 9.17198C18.0832 10.0239 18.3328 10.4498 18.5832 10.7369C18.8274 11.0168 19.0314 11.199 19.3375 11.4094C19.6515 11.6252 20.0406 11.7956 20.8186 12.1371L21.3467 12.3695C21.7015 12.5252 21.8792 12.6029 21.9895 12.7287C22.0997 12.8545 22.1649 13.0141 22.1747 13.1811C22.1966 13.5589 21.9062 14.2869 21.6302 14.5455C21.5076 14.6603 21.3503 14.7311 21.1829 14.7461C21.0156 14.761 20.8326 14.6936 20.4665 14.5598L19.1666 14.0849C18.4545 13.8246 18.0983 13.6947 17.7797 13.5066C17.4171 13.2924 17.0896 13.0226 16.8105 12.7072C16.5652 12.4301 16.3703 12.1045 15.9794 11.4544C15.876 11.2824 15.8236 11.197 15.7706 11.176C15.535 11.0832 15.5032 11.4869 15.4492 11.8638C15.2695 13.1181 15.1012 14.4052 15.1012 15.6754C15.1012 16.4264 15.8894 17.207 16.5159 17.8673C17.1424 18.5275 17.8056 19.3103 18.2495 20.2106L20.5732 25.5586C20.7567 25.9307 20.82 26.1742 20.8186 26.3528C20.8173 26.5098 20.7667 26.6629 20.6743 26.7898C20.4274 27.1286 19.5515 27.5827 19.1267 27.582C18.966 27.5818 18.8096 27.5302 18.6804 27.4346C18.5334 27.3257 18.4384 27.1329 18.2495 26.7479L16.0899 22.3447C15.8305 21.8158 15.701 21.5509 15.5444 21.3038C15.4052 21.0842 15.2501 20.8745 15.0807 20.6774C14.8899 20.4553 14.674 20.2541 14.2435 19.8514L11.4524 17.2404C10.5877 16.4316 10.1412 15.3605 10.263 14.1442C10.3848 12.928 10.6567 11.4085 10.8413 10.0389C10.8557 9.93246 10.715 9.85496 10.6264 9.93246C10.5293 10.0181 10.424 10.1012 10.3294 10.1897C9.74481 10.7362 9.2083 11.4195 9.04396 12.2249L8.49878 14.7461C8.42915 15.0891 8.39452 15.261 8.31147 15.3847C8.1984 15.553 8.02164 15.6685 7.82223 15.7051C7.47923 15.7678 6.83469 15.6306 6.54488 15.4359C6.38114 15.3257 6.2671 15.1554 6.22759 14.962C6.19862 14.8197 6.22852 14.6534 6.289 14.3213L7.00082 10.8048C7.33979 9.43981 7.80883 9.09912 8.49878 8.4298C11.9344 5.23106 15.2628 5.19811 17.5853 9.17198Z" fill="black"/>
<path d="M12.1994 19.2796C12.3134 19.4352 12.3703 19.5131 12.4053 19.5993C12.4364 19.6757 12.4546 19.7567 12.4594 19.839C12.4647 19.9319 12.4467 20.0266 12.4105 20.2161L12.3424 20.5733C12.2273 21.0034 12.1697 21.2189 12.0896 21.4249C12.0183 21.6078 11.9338 21.7855 11.8367 21.9561C11.7274 22.1483 11.5964 22.3284 11.3352 22.689L8.3277 26.8212C8.0744 27.1709 7.90033 27.3154 7.73596 27.3978C7.59142 27.4702 7.42739 27.4945 7.26821 27.4664C6.85909 27.394 6.08515 26.8033 5.89976 26.4234C5.83161 26.2834 5.809 26.1257 5.83426 25.972C5.86301 25.7972 5.98284 25.6303 6.2232 25.2975L8.8823 21.6159C9.1706 21.2168 9.31491 21.0171 9.43295 20.8033C9.53782 20.6133 9.62711 20.415 9.70009 20.2106C9.78224 19.9806 9.83629 19.7403 9.94471 19.2598L10.244 17.5406C10.2853 17.3036 10.3059 17.1851 10.3629 17.1374C10.4123 17.096 10.4785 17.0805 10.5412 17.0957C10.6134 17.1132 10.6844 17.2102 10.8265 17.4044L12.1994 19.2796Z" fill="black"/>
<path d="M13.9827 0.418457C15.3655 0.418457 16.487 1.53929 16.4873 2.92199C16.4873 4.30487 15.3656 5.42654 13.9827 5.42654C12.5999 5.42645 11.4792 4.30482 11.4792 2.92199C11.4794 1.53934 12.6 0.418542 13.9827 0.418457Z" fill="black"/>
</g>
<defs>
<clipPath id="clip0_85024_8602">
<rect width="28" height="28" fill="white"/>
</clipPath>
</defs>
</svg>
