<svg width="28" height="28" viewBox="0 0 28 28" fill="none" xmlns="http://www.w3.org/2000/svg">
<path d="M15.792 24.037C15.694 24.149 15.54 24.205 15.33 24.205H6.321C5.775 24.205 5.383 24.191 5.145 24.163C4.907 24.149 4.704 24.1 4.536 24.016C4.186 23.834 3.941 23.589 3.801 23.281C3.717 23.113 3.661 22.91 3.633 22.672C3.619 22.434 3.612 22.035 3.612 21.475C3.612 20.761 3.626 20.25 3.654 19.942C3.682 19.62 3.752 19.312 3.864 19.018C3.962 18.738 4.123 18.444 4.347 18.136C4.571 17.814 4.802 17.562 5.04 17.38C5.264 17.184 5.488 17.037 5.712 16.939C5.95 16.841 6.335 16.694 6.867 16.498C8.085 16.106 9.303 15.812 10.521 15.616C11.739 15.406 13.034 15.322 14.406 15.364L15.414 15.385C15.61 15.399 15.764 15.462 15.876 15.574C15.988 15.686 16.037 15.833 16.023 16.015L15.981 16.603C15.967 16.841 15.897 17.002 15.771 17.086C15.645 17.156 15.47 17.184 15.246 17.17C14.658 17.142 14.175 17.128 13.797 17.128C11.557 17.128 9.422 17.506 7.392 18.262L7.224 18.325C6.944 18.423 6.727 18.507 6.573 18.577C6.433 18.647 6.3 18.745 6.174 18.871C5.852 19.193 5.649 19.473 5.565 19.711C5.495 19.879 5.453 20.068 5.439 20.278C5.425 20.474 5.418 20.803 5.418 21.265V21.895C5.418 22.091 5.453 22.224 5.523 22.294C5.607 22.378 5.74 22.42 5.922 22.42H15.33C15.75 22.42 15.96 22.609 15.96 22.987V23.575C15.96 23.785 15.904 23.939 15.792 24.037ZM19.929 24.436C19.775 24.492 19.614 24.436 19.446 24.268L19.005 23.806C18.851 23.652 18.795 23.498 18.837 23.344C18.879 23.204 19.012 23.015 19.236 22.777L21.168 20.824H13.776C13.622 20.824 13.489 20.768 13.377 20.656C13.265 20.544 13.209 20.411 13.209 20.257V19.585C13.209 19.431 13.265 19.298 13.377 19.186C13.489 19.074 13.622 19.018 13.776 19.018H21.168L19.005 16.855C18.879 16.743 18.809 16.61 18.795 16.456C18.795 16.302 18.865 16.155 19.005 16.015L19.446 15.574C19.586 15.434 19.733 15.378 19.887 15.406C20.041 15.42 20.174 15.483 20.286 15.595L23.835 19.144C24.143 19.452 24.29 19.718 24.276 19.942C24.276 20.152 24.129 20.404 23.835 20.698L20.496 24.058C20.286 24.268 20.097 24.394 19.929 24.436ZM16.422 13.285C15.68 13.719 14.875 13.936 14.007 13.936C13.139 13.936 12.334 13.719 11.592 13.285C10.85 12.851 10.262 12.263 9.828 11.521C9.394 10.779 9.177 9.974 9.177 9.106C9.177 8.224 9.394 7.412 9.828 6.67C10.262 5.928 10.843 5.34 11.571 4.906C12.313 4.472 13.125 4.255 14.007 4.255C14.889 4.255 15.694 4.472 16.422 4.906C17.164 5.34 17.752 5.928 18.186 6.67C18.62 7.412 18.837 8.224 18.837 9.106C18.837 9.974 18.62 10.779 18.186 11.521C17.752 12.263 17.164 12.851 16.422 13.285ZM12.516 11.668C12.978 11.934 13.475 12.067 14.007 12.067C14.539 12.067 15.029 11.934 15.477 11.668C15.939 11.402 16.296 11.045 16.548 10.597C16.814 10.135 16.947 9.638 16.947 9.106C16.947 8.574 16.814 8.084 16.548 7.636C16.296 7.174 15.939 6.81 15.477 6.544C15.029 6.278 14.539 6.145 14.007 6.145C13.475 6.145 12.978 6.278 12.516 6.544C12.068 6.81 11.711 7.174 11.445 7.636C11.179 8.084 11.046 8.574 11.046 9.106C11.046 9.638 11.179 10.135 11.445 10.597C11.711 11.045 12.068 11.402 12.516 11.668Z" fill="currentColor"/>
</svg>
