<svg width="28" height="28" viewBox="0 0 28 28" fill="none" xmlns="http://www.w3.org/2000/svg">
<path d="M22.05 23.218C21.91 23.232 21.77 23.169 21.63 23.029L4.956 6.355C4.774 6.173 4.69 6.012 4.704 5.872C4.718 5.718 4.809 5.557 4.977 5.389L5.292 5.074C5.46 4.906 5.614 4.829 5.754 4.843C5.908 4.843 6.055 4.913 6.195 5.053L22.848 21.727C23.002 21.881 23.086 22.028 23.1 22.168C23.114 22.308 23.044 22.455 22.89 22.609L22.512 22.987C22.358 23.141 22.204 23.218 22.05 23.218ZM18.249 21.979C16.793 22.511 15.365 22.777 13.965 22.777C12.369 22.777 10.794 22.455 9.24 21.811C7.686 21.167 6.293 20.271 5.061 19.123C3.829 17.961 2.884 16.645 2.226 15.175C2.072 14.839 1.995 14.489 1.995 14.125C1.995 13.747 2.072 13.39 2.226 13.054C2.562 12.284 2.989 11.556 3.507 10.87C4.025 10.184 4.606 9.547 5.25 8.959L6.51 10.24C5.936 10.758 5.425 11.318 4.977 11.92C4.529 12.508 4.151 13.138 3.843 13.81C3.759 14.006 3.759 14.216 3.843 14.44C4.417 15.7 5.236 16.827 6.3 17.821C7.364 18.801 8.561 19.571 9.891 20.131C11.235 20.691 12.593 20.971 13.965 20.971C14.917 20.971 15.876 20.831 16.842 20.551L18.249 21.979ZM15.015 18.724C14.679 18.808 14.322 18.85 13.944 18.85C13.09 18.85 12.299 18.64 11.571 18.22C10.843 17.786 10.262 17.205 9.828 16.477C9.408 15.749 9.198 14.951 9.198 14.083C9.198 13.719 9.24 13.362 9.324 13.012L11.067 14.776C11.193 15.294 11.431 15.735 11.781 16.099C11.977 16.309 12.201 16.491 12.453 16.645C12.705 16.799 12.978 16.904 13.272 16.96L15.015 18.724ZM9.807 6.208C11.165 5.718 12.551 5.473 13.965 5.473C15.575 5.473 17.157 5.795 18.711 6.439C20.265 7.083 21.651 7.979 22.869 9.127C24.101 10.275 25.046 11.577 25.704 13.033C25.858 13.369 25.935 13.726 25.935 14.104C25.935 14.468 25.858 14.818 25.704 15.154C25.004 16.666 24.024 18.003 22.764 19.165L21.504 17.884C22.638 16.834 23.492 15.679 24.066 14.419C24.15 14.195 24.15 13.985 24.066 13.789C23.492 12.529 22.68 11.402 21.63 10.408C20.58 9.414 19.383 8.644 18.039 8.098C16.709 7.538 15.351 7.258 13.965 7.258C13.125 7.258 12.222 7.384 11.256 7.636L9.807 6.208ZM13.062 9.463C13.328 9.407 13.629 9.379 13.965 9.379C14.833 9.379 15.631 9.596 16.359 10.03C17.087 10.45 17.661 11.024 18.081 11.752C18.515 12.48 18.732 13.271 18.732 14.125C18.732 14.405 18.697 14.72 18.627 15.07L16.779 13.201C16.709 12.963 16.604 12.746 16.464 12.55C16.338 12.34 16.184 12.151 16.002 11.983C15.736 11.717 15.379 11.5 14.931 11.332L13.062 9.463Z" fill="currentColor"/>
</svg>
