<svg width="28" height="28" viewBox="0 0 28 28" fill="none" xmlns="http://www.w3.org/2000/svg">
<path d="M18.669 21.79C17.129 22.434 15.561 22.756 13.965 22.756C12.369 22.756 10.794 22.434 9.24 21.79C7.686 21.146 6.293 20.25 5.061 19.102C3.829 17.954 2.884 16.645 2.226 15.175C2.072 14.839 1.995 14.489 1.995 14.125C1.995 13.747 2.072 13.39 2.226 13.054C2.884 11.584 3.822 10.275 5.04 9.127C6.272 7.979 7.658 7.083 9.198 6.439C10.752 5.795 12.341 5.473 13.965 5.473C15.575 5.473 17.157 5.795 18.711 6.439C20.265 7.083 21.651 7.979 22.869 9.127C24.101 10.275 25.046 11.584 25.704 13.054C25.858 13.39 25.935 13.747 25.935 14.125C25.935 14.489 25.858 14.839 25.704 15.175C25.032 16.645 24.08 17.954 22.848 19.102C21.616 20.25 20.223 21.146 18.669 21.79ZM9.891 20.131C11.235 20.691 12.593 20.971 13.965 20.971C15.323 20.971 16.667 20.691 17.997 20.131C19.341 19.571 20.545 18.794 21.609 17.8C22.673 16.806 23.492 15.679 24.066 14.419C24.15 14.223 24.15 14.013 24.066 13.789C23.492 12.543 22.68 11.423 21.63 10.429C20.58 9.435 19.383 8.665 18.039 8.119C16.709 7.559 15.351 7.279 13.965 7.279C12.579 7.279 11.214 7.559 9.87 8.119C8.54 8.665 7.343 9.435 6.279 10.429C5.229 11.409 4.417 12.529 3.843 13.789C3.759 14.013 3.759 14.223 3.843 14.419C4.417 15.679 5.236 16.806 6.3 17.8C7.364 18.794 8.561 19.571 9.891 20.131ZM16.338 18.241C15.61 18.661 14.819 18.871 13.965 18.871C13.111 18.871 12.32 18.661 11.592 18.241C10.864 17.807 10.283 17.226 9.849 16.498C9.429 15.77 9.219 14.979 9.219 14.125C9.219 13.257 9.429 12.459 9.849 11.731C10.283 11.003 10.864 10.429 11.592 10.009C12.32 9.575 13.111 9.358 13.965 9.358C14.819 9.358 15.61 9.575 16.338 10.009C17.066 10.429 17.64 11.003 18.06 11.731C18.494 12.459 18.711 13.257 18.711 14.125C18.711 14.979 18.494 15.77 18.06 16.498C17.64 17.226 17.066 17.807 16.338 18.241ZM12.474 16.687C12.936 16.953 13.433 17.086 13.965 17.086C14.497 17.086 14.987 16.953 15.435 16.687C15.897 16.421 16.261 16.064 16.527 15.616C16.793 15.154 16.926 14.657 16.926 14.125C16.926 13.593 16.793 13.103 16.527 12.655C16.261 12.193 15.897 11.829 15.435 11.563C14.987 11.297 14.497 11.164 13.965 11.164C13.433 11.164 12.936 11.297 12.474 11.563C12.026 11.829 11.669 12.193 11.403 12.655C11.137 13.103 11.004 13.593 11.004 14.125C11.004 14.657 11.137 15.154 11.403 15.616C11.669 16.064 12.026 16.421 12.474 16.687Z" fill="currentColor"/>
</svg>
