<svg width="28" height="28" viewBox="0 0 28 28" fill="none" xmlns="http://www.w3.org/2000/svg">
<path fill-rule="evenodd" clip-rule="evenodd" d="M17.7314 10.3696C18.3111 10.5734 19.0579 10.8584 19.4795 11.8452C19.6656 12.2824 19.9342 13.3138 20.1777 14.3286C20.2379 14.5667 20.5012 15.0314 20.5078 15.0425C20.8074 15.5827 21.513 16.0073 22.0215 16.3579L23.3203 17.2534C24.1921 17.8555 24.3497 19.2154 23.9463 19.7642L22.6328 21.3921C22.6433 21.4144 22.8843 21.9399 22.8838 23.02C22.8829 24.1236 21.9875 25.0197 20.8838 25.02H7.11621C6.01242 25.0197 5.1171 24.1237 5.11621 23.02C5.11575 21.9355 5.35955 21.4103 5.36816 21.3921L4.05371 19.7642C3.65036 19.2152 3.80772 17.8553 4.67969 17.2534L5.97852 16.3579C6.48711 16.0072 7.19262 15.5829 7.49219 15.0425C7.49604 15.0363 7.76185 14.568 7.82227 14.3286C8.06583 13.3137 8.33442 12.2823 8.52051 11.8452C8.94218 10.8582 9.6888 10.5734 10.2686 10.3696C10.5357 10.2757 10.6693 10.2288 10.7794 10.2158C10.9691 10.1935 11.0477 10.2022 11.2279 10.2655C11.3325 10.3023 11.5159 10.4169 11.8827 10.6463C13.1726 11.4527 14.8234 11.4528 16.1137 10.6471C16.4829 10.4166 16.6676 10.3013 16.7729 10.2645C16.9519 10.202 17.0298 10.1934 17.2181 10.2153C17.3289 10.2282 17.4631 10.2753 17.7314 10.3696ZM10.8652 12.0679C10.5807 12.1679 10.461 12.2226 10.373 12.2847C10.3203 12.322 10.2492 12.3824 10.1768 12.5513C10.1101 12.7081 9.97119 13.1616 9.79297 13.8521C9.72969 14.0972 9.66983 14.324 9.58398 14.5854C9.4982 14.8467 9.44824 14.9966 9.44824 14.9966C9.16323 15.6706 8.7363 16.2777 8.18359 16.7573C7.95587 16.9549 7.73229 17.1445 7.58984 17.2544L5.86914 18.4165C5.6525 18.5845 5.58902 18.8854 5.71973 19.1265L6.12695 19.6782C6.32341 19.9452 6.68445 20.0065 6.95801 19.8247L8.59863 18.73C8.99804 18.4634 9.34674 18.1258 9.62695 17.7358L10.4287 16.6187C10.7834 16.1249 11.4255 15.9297 11.9951 16.1421C12.1844 16.2134 12.2402 16.4096 12.1758 16.6147L11.1133 18.644C10.7951 19.2509 10.3253 19.7674 9.75098 20.1411L7.28027 21.7485C7.05387 21.8963 6.91701 22.149 6.91699 22.4194C6.91795 22.8604 7.27568 23.2189 7.7168 23.2192H10.7119V22.9653C10.7122 21.3089 12.0554 19.9665 13.7119 19.9663L15.459 19.9653C15.7679 19.9657 16.0185 20.2168 16.0186 20.5259V21.2056C16.0183 21.5145 15.7679 21.7659 15.459 21.7661H13.7119C13.0491 21.7662 12.5116 22.3036 12.5117 22.9663V23.2192H20.2832C20.7243 23.2188 21.0821 22.8604 21.083 22.4194C21.083 22.1492 20.946 21.8963 20.7197 21.7485L18.249 20.1411C17.6748 19.7674 17.2048 19.2508 16.8867 18.644L15.8242 16.6147C15.7599 16.4096 15.8155 16.2133 16.0049 16.1421C16.5745 15.9297 17.2165 16.125 17.5713 16.6187L18.373 17.7358C18.6532 18.1256 19.0021 18.4635 19.4014 18.73L21.042 19.8247C21.3156 20.0063 21.6767 19.9453 21.873 19.6782L22.2803 19.1265C22.411 18.8854 22.3473 18.5846 22.1309 18.4165L20.4102 17.2544C20.2678 17.1445 20.044 16.9548 19.8164 16.7573C19.2638 16.2778 18.8367 15.6704 18.5518 14.9966C18.5502 14.9919 18.5004 14.8425 18.416 14.5854C18.3302 14.3241 18.2703 14.0971 18.207 13.8521C18.0289 13.1619 17.8899 12.7083 17.8232 12.5513C17.7509 12.3828 17.6797 12.322 17.627 12.2847C17.539 12.2227 17.4189 12.1678 17.1348 12.0679C17.0555 12.04 16.968 12.0487 16.8958 12.0915L16.8203 12.1362C15.0613 13.1717 12.8728 13.1483 11.1367 12.0747C11.07 12.0333 10.9882 12.0245 10.9142 12.0506C10.8981 12.0563 10.8818 12.0621 10.8652 12.0679Z" fill="currentColor"/>
<path fill-rule="evenodd" clip-rule="evenodd" d="M14 2.97998C15.9878 2.98016 17.6002 4.59181 17.6006 6.57959L17.5957 6.76514C17.4991 8.66698 15.9258 10.18 14 10.1802L13.8154 10.1753C11.9133 10.079 10.4006 8.50555 10.4004 6.57959C10.4008 4.59183 12.0122 2.98019 14 2.97998ZM14 4.77979C13.0063 4.78 12.2006 5.58594 12.2002 6.57959C12.2005 7.57335 13.0062 8.38016 14 8.38037C14.9938 8.38019 15.8005 7.57337 15.8008 6.57959C15.8004 5.58592 14.9937 4.77997 14 4.77979Z" fill="currentColor"/>
</svg>
