<svg width="28" height="28" viewBox="0 0 28 28" fill="none" xmlns="http://www.w3.org/2000/svg">
<path fill-rule="evenodd" clip-rule="evenodd" d="M13.9997 13.3607C16.8882 13.3607 19.2298 11.0191 19.2298 8.13054C19.2298 5.24201 16.8882 2.90039 13.9997 2.90039C11.1112 2.90039 8.76953 5.24201 8.76953 8.13054C8.76953 11.0191 11.1112 13.3607 13.9997 13.3607ZM4.5083 23.6053C4.87194 23.7906 5.34799 23.7906 6.30008 23.7906H21.6995C22.6516 23.7906 23.1276 23.7906 23.4913 23.6053C23.8112 23.4423 24.0712 23.1822 24.2342 22.8624C24.4195 22.4987 24.4195 22.0227 24.4195 21.0706C24.4195 19.8524 24.4034 19.1391 24.2067 18.5744C24.0427 18.0244 23.5829 17.452 22.9797 16.9646C22.5752 16.6378 21.7482 16.1893 21.1509 15.9864C18.9136 15.2264 16.5068 14.8128 13.9998 14.8125C11.4927 14.8128 9.08594 15.2264 6.8487 15.9864C6.25136 16.1893 5.42442 16.6378 5.01989 16.9646C4.41666 17.452 3.95691 18.0244 3.79285 18.5744C3.59616 19.1391 3.58008 19.8524 3.58008 21.0706C3.58008 22.0227 3.58008 22.4987 3.76537 22.8624C3.92835 23.1822 4.18842 23.4423 4.5083 23.6053Z" fill="currentColor"/>
</svg>
