<svg width="28" height="28" viewBox="0 0 28 28" fill="none" xmlns="http://www.w3.org/2000/svg">
<path d="M13.9277 15.8066C15.4197 15.8068 16.8759 15.9546 18.2822 16.2334L14.2988 23.1348C13.9891 23.6718 13.9355 24.2579 14.0742 24.7852H6.22852C5.27666 24.7852 4.80014 24.7848 4.43652 24.5996C4.11665 24.4366 3.85634 24.1763 3.69336 23.8564C3.50809 23.4928 3.50781 23.0165 3.50781 22.0645C3.50781 20.8464 3.52403 20.1331 3.7207 19.5684C3.88479 19.0184 4.34505 18.4463 4.94824 17.959C5.35275 17.6322 6.1791 17.1834 6.77637 16.9805C9.01361 16.2204 11.4207 15.8069 13.9277 15.8066ZM13.9277 3.89453C16.8162 3.89457 19.1582 6.23649 19.1582 9.125C19.158 12.0134 16.8161 14.3545 13.9277 14.3545C11.0393 14.3545 8.69744 12.0134 8.69727 9.125C8.69727 6.23647 11.0392 3.89453 13.9277 3.89453Z" fill="currentColor"/>
<path d="M20.2839 16.0949C20.5918 15.5615 21.3617 15.5615 21.6696 16.0949L26.1374 23.8341C26.4451 24.3674 26.0607 25.0333 25.445 25.0333H21.4225L22.4802 23.3947C22.5306 23.3164 22.5197 23.2134 22.4548 23.1466L21.3298 21.9894C21.2424 21.8993 21.2581 21.7517 21.363 21.6827L22.4977 20.9386C22.6123 20.8633 22.6187 20.6976 22.5104 20.6134L21.2731 19.6515C21.206 19.599 21.1791 19.5095 21.2067 19.4288L21.4948 18.59C21.5301 18.4869 21.3985 18.4094 21.3259 18.4904L20.2516 19.6945C20.1745 19.7809 20.1864 19.9155 20.278 19.9865L21.0182 20.5597C21.1247 20.6426 21.1204 20.8051 21.0094 20.882L19.5212 21.9103C19.4243 21.9772 19.4065 22.113 19.4821 22.2033L20.4352 23.3419C20.4996 23.419 20.4965 23.5318 20.4284 23.6056L19.1061 25.0333H16.5085C15.8928 25.0333 15.5084 24.3674 15.8161 23.8341L20.2839 16.0949Z" fill="currentColor"/>
</svg>
