<svg width="28" height="28" viewBox="0 0 28 28" fill="none" xmlns="http://www.w3.org/2000/svg">
<path fill-rule="evenodd" clip-rule="evenodd" d="M21.7217 15.7998C24.2208 15.9266 26.208 17.9938 26.208 20.5244L26.2021 20.7676C26.0754 23.2666 24.009 25.2537 21.4785 25.2539L21.2344 25.248C18.816 25.1253 16.8766 23.186 16.7539 20.7676L16.748 20.5244C16.748 17.9121 18.8662 15.7939 21.4785 15.7939L21.7217 15.7998ZM18.8711 19.1904C18.6658 19.5908 18.5479 20.0436 18.5479 20.5244C18.5481 22.1424 19.8604 23.4541 21.4785 23.4541C21.9592 23.454 22.4113 23.3351 22.8115 23.1299L18.8711 19.1904ZM21.4785 17.5938C20.9977 17.5938 20.5449 17.7117 20.1445 17.917L24.084 21.8574C24.2892 21.4572 24.4081 21.0051 24.4082 20.5244C24.4082 18.9063 23.0965 17.594 21.4785 17.5938Z" fill="currentColor"/>
<path d="M13.9971 15.7549C15.1321 15.7549 16.2465 15.8406 17.334 16.0039C16.1126 17.1245 15.3467 18.7343 15.3467 20.5225C15.3468 22.1039 15.9463 23.5456 16.9297 24.6328H6.2998C5.3482 24.6328 4.87138 24.6324 4.50781 24.4473C4.18854 24.2844 3.92855 24.0243 3.76562 23.7051C3.5804 23.3416 3.58008 22.8645 3.58008 21.9131C3.58008 20.6942 3.58034 20.0838 3.81348 19.4492C4.01894 18.8903 4.529 18.179 4.99219 17.8047C5.51822 17.3797 5.96237 17.2283 6.85059 16.9268C9.08651 16.1676 11.4917 15.7549 13.9971 15.7549Z" fill="currentColor"/>
<path d="M14.001 3.89453C16.8893 3.89477 19.2305 6.23759 19.2305 9.12598C19.23 12.014 16.889 14.3552 14.001 14.3555C11.1127 14.3555 8.77094 12.0141 8.77051 9.12598C8.77051 6.23744 11.1124 3.89453 14.001 3.89453Z" fill="currentColor"/>
</svg>
