<svg width="28" height="28" viewBox="0 0 28 28" fill="none" xmlns="http://www.w3.org/2000/svg">
<path d="M9.08105 16.0474C10.9852 16.0476 12.8135 16.3617 14.5127 16.939C14.9663 17.0931 15.5941 17.4339 15.9014 17.6821C16.3594 18.0522 16.7083 18.4872 16.833 18.9048C16.9824 19.3337 16.9951 19.876 16.9951 20.8013C16.9951 21.524 16.9951 21.8855 16.8545 22.1616C16.7307 22.4046 16.533 22.6023 16.29 22.7261C16.0138 22.8668 15.6518 22.8667 14.9287 22.8667H3.2334C2.51027 22.8667 2.14827 22.8668 1.87207 22.7261C1.62912 22.6023 1.43141 22.4046 1.30762 22.1616C1.16704 21.8855 1.16699 21.524 1.16699 20.8013C1.16699 19.876 1.17971 19.3337 1.3291 18.9048C1.45381 18.4872 1.80272 18.0522 2.26074 17.6821C2.56807 17.4339 3.19583 17.0931 3.64941 16.939C5.34865 16.3617 7.17692 16.0476 9.08105 16.0474Z" fill="currentColor" fill-opacity="0.8"/>
<path d="M19.6357 16.6636C21.3678 16.6638 23.0305 16.95 24.5762 17.4751C24.9889 17.6153 25.5603 17.9251 25.8398 18.1509C26.2566 18.4876 26.5741 18.8832 26.6875 19.2632C26.8234 19.6534 26.835 20.1462 26.835 20.9878C26.835 21.6455 26.835 21.9748 26.707 22.2261C26.5944 22.447 26.4143 22.6262 26.1934 22.7388C25.9421 22.8668 25.6129 22.8667 24.9551 22.8667H19.1572C18.7605 22.8666 18.4873 22.4378 18.5459 22.0454C18.5598 21.9522 18.5694 21.8632 18.5762 21.7798C18.5992 21.4978 18.5987 21.1686 18.5986 20.8481V20.7388C18.5988 19.9351 18.599 19.1238 18.3594 18.4106C18.2321 18.0029 18.0218 17.6342 17.7734 17.3101C17.6132 17.1009 17.7224 16.7795 17.9844 16.7515C18.5265 16.6937 19.0776 16.6636 19.6357 16.6636Z" fill="currentColor" fill-opacity="0.8"/>
<path d="M19.6357 7.50049C21.6313 7.50049 23.2489 9.1182 23.249 11.1138C23.249 13.1095 21.6314 14.728 19.6357 14.728C17.6401 14.7279 16.0225 13.1094 16.0225 11.1138C16.0226 9.11827 17.6402 7.5006 19.6357 7.50049Z" fill="currentColor" fill-opacity="0.8"/>
<path d="M9.08105 6.06689C11.275 6.06689 13.0537 7.84564 13.0537 10.0396C13.0536 12.2334 11.2749 14.0122 9.08105 14.0122C6.88741 14.012 5.10949 12.2332 5.10938 10.0396C5.10938 7.84578 6.88734 6.06712 9.08105 6.06689Z" fill="currentColor" fill-opacity="0.8"/>
</svg>
