<svg width="28" height="28" viewBox="0 0 28 28" fill="none" xmlns="http://www.w3.org/2000/svg">
<path d="M16.4434 16.541C16.7205 16.4033 17.0608 16.499 17.2109 16.7695L17.4443 17.1904C17.594 17.4607 17.4969 17.803 17.2207 17.9414C16.2094 18.4483 15.1853 18.7744 14.001 18.7744C12.8022 18.7743 11.7901 18.4477 10.7822 17.9414C10.506 17.8027 10.4089 17.4608 10.5586 17.1904L10.792 16.7695C10.9421 16.499 11.2819 16.4035 11.5586 16.542C12.3212 16.9241 13.0676 17.1747 14.001 17.1748C14.9132 17.1748 15.6774 16.9217 16.4434 16.541Z" fill="currentColor" fill-opacity="0.8"/>
<path d="M10.501 10.334C10.6555 10.334 10.7329 10.3333 10.7979 10.3418C11.2466 10.4009 11.6001 10.7544 11.6592 11.2031C11.6677 11.268 11.667 11.3455 11.667 11.5V12.167C11.667 12.3215 11.6677 12.3989 11.6592 12.4639C11.6001 12.9126 11.2466 13.2661 10.7979 13.3252C10.7329 13.3337 10.6555 13.334 10.501 13.334C10.3462 13.334 10.2681 13.3338 10.2031 13.3252C9.75453 13.266 9.40184 12.9125 9.34277 12.4639C9.33424 12.3989 9.33398 12.3216 9.33398 12.167V11.5C9.33398 11.3454 9.33424 11.2681 9.34277 11.2031C9.40184 10.7545 9.75453 10.401 10.2031 10.3418C10.2681 10.3332 10.3462 10.334 10.501 10.334Z" fill="currentColor" fill-opacity="0.8"/>
<path d="M17.501 10.334C17.6555 10.334 17.7329 10.3333 17.7979 10.3418C18.2466 10.4009 18.6001 10.7544 18.6592 11.2031C18.6677 11.268 18.667 11.3455 18.667 11.5V12.167C18.667 12.3215 18.6677 12.3989 18.6592 12.4639C18.6001 12.9126 18.2466 13.2661 17.7979 13.3252C17.7329 13.3337 17.6555 13.334 17.501 13.334C17.3462 13.334 17.2681 13.3338 17.2031 13.3252C16.7545 13.266 16.4018 12.9125 16.3428 12.4639C16.3342 12.3989 16.334 12.3216 16.334 12.167V11.5C16.334 11.3454 16.3342 11.2681 16.3428 11.2031C16.4018 10.7545 16.7545 10.401 17.2031 10.3418C17.2681 10.3332 17.3462 10.334 17.501 10.334Z" fill="currentColor" fill-opacity="0.8"/>
<path fill-rule="evenodd" clip-rule="evenodd" d="M14 3C20.0751 3 25 7.92487 25 14C25 20.0751 20.0751 25 14 25C7.92487 25 3 20.0751 3 14C3 7.92487 7.92487 3 14 3ZM14 4.7998C8.91898 4.7998 4.7998 8.91898 4.7998 14C4.7998 19.081 8.91898 23.2002 14 23.2002C19.081 23.2002 23.2002 19.081 23.2002 14C23.2002 8.91898 19.081 4.7998 14 4.7998Z" fill="currentColor" fill-opacity="0.8"/>
</svg>
