<svg width="28" height="28" viewBox="0 0 28 28" fill="none" xmlns="http://www.w3.org/2000/svg">
<path d="M4.65039 16.501C4.96632 16.501 5.12441 16.5006 5.24414 16.5615C5.34951 16.6152 5.43557 16.7013 5.48926 16.8066C5.55012 16.9264 5.5498 17.0832 5.5498 17.3965V18.7725C5.5498 20.0603 5.55012 20.7043 5.80078 21.1963C6.02126 21.629 6.37301 21.9807 6.80566 22.2012C7.29766 22.4519 7.94235 22.4521 9.23047 22.4521H10.1035C10.4171 22.4521 10.5746 22.4517 10.6943 22.5127C10.7996 22.5664 10.8848 22.6525 10.9385 22.7578C10.9995 22.8775 11 23.0366 11 23.3545C11 23.6673 10.9995 23.8242 10.9404 23.9424C10.8862 24.0508 10.7988 24.1392 10.6904 24.1934C10.5723 24.2524 10.4177 24.252 10.1094 24.252C7.90742 24.252 6.80597 24.2517 5.96191 23.8301C5.18718 23.4429 4.55902 22.8148 4.17188 22.04C3.7502 21.196 3.75 20.0946 3.75 17.8926V17.3965C3.75 17.083 3.7505 16.9264 3.81152 16.8066C3.86521 16.7013 3.95031 16.6152 4.05566 16.5615C4.17545 16.5005 4.33409 16.501 4.65039 16.501Z" fill="currentColor" fill-opacity="0.8"/>
<path d="M23.3496 16.501C23.6659 16.501 23.8245 16.5005 23.9443 16.5615C24.0497 16.6152 24.1348 16.7013 24.1885 16.8066C24.2495 16.9264 24.25 17.083 24.25 17.3965V17.8926C24.25 20.0946 24.2498 21.196 23.8281 22.04C23.441 22.8148 22.8128 23.4429 22.0381 23.8301C21.194 24.2518 20.0926 24.252 17.8906 24.252C17.5824 24.252 17.4277 24.2524 17.3096 24.1934C17.2011 24.1392 17.1128 24.0509 17.0586 23.9424C16.9996 23.8242 17 23.6672 17 23.3545C17 23.0367 16.9996 22.8775 17.0605 22.7578C17.1142 22.6524 17.2003 22.5664 17.3057 22.5127C17.4254 22.4518 17.5823 22.4521 17.8955 22.4521H18.7695C20.0577 22.4521 20.7023 22.4519 21.1943 22.2012C21.627 21.9807 21.9787 21.629 22.1992 21.1963C22.4499 20.7043 22.4502 20.0603 22.4502 18.7725V17.3965C22.4502 17.0832 22.4499 16.9264 22.5107 16.8066C22.5644 16.7013 22.6505 16.6152 22.7559 16.5615C22.8756 16.5006 23.0337 16.501 23.3496 16.501Z" fill="currentColor" fill-opacity="0.8"/>
<path d="M14.1172 14.8135C15.2211 14.8136 16.2815 14.9964 17.2666 15.3311C17.5296 15.4205 17.8933 15.6179 18.0713 15.7617C18.3367 15.9762 18.54 16.2277 18.6123 16.4697C18.6988 16.7184 18.7051 17.0331 18.7051 17.5693C18.7051 17.9884 18.7056 18.1983 18.624 18.3584C18.5523 18.4991 18.4376 18.6138 18.2969 18.6855C18.1368 18.7671 17.927 18.7666 17.5078 18.7666H10.7266C10.3081 18.7666 10.0985 18.7669 9.93848 18.6855C9.79777 18.6139 9.68311 18.499 9.61133 18.3584C9.52976 18.1983 9.5293 17.9884 9.5293 17.5693C9.5293 17.0331 9.53651 16.7184 9.62305 16.4697C9.69536 16.2278 9.89783 15.9761 10.1631 15.7617C10.3412 15.6178 10.7057 15.4204 10.9688 15.3311C11.9538 14.9964 13.0134 14.8136 14.1172 14.8135Z" fill="currentColor" fill-opacity="0.8"/>
<path d="M14.1172 9.56836C15.389 9.56836 16.4208 10.5993 16.4209 11.8711C16.4208 13.1429 15.389 14.1748 14.1172 14.1748C12.8455 14.1747 11.8146 13.1428 11.8145 11.8711C11.8146 10.5994 12.8455 9.5685 14.1172 9.56836Z" fill="currentColor" fill-opacity="0.8"/>
<path d="M10.1094 3.74902C10.4177 3.74902 10.5723 3.74858 10.6904 3.80762C10.7988 3.86177 10.8862 3.95023 10.9404 4.05859C10.9995 4.17677 11 4.33365 11 4.64648C11 4.96447 10.9995 5.12341 10.9385 5.24316C10.8848 5.34849 10.7997 5.43461 10.6943 5.48828C10.5745 5.54932 10.4171 5.54883 10.1035 5.54883H9.23047C7.94235 5.54883 7.29766 5.54912 6.80566 5.7998C6.37302 6.02029 6.02127 6.37204 5.80078 6.80469C5.5501 7.29668 5.5498 7.94137 5.5498 9.22949V9.60449C5.5498 9.91812 5.55029 10.0755 5.48926 10.1953C5.43556 10.3006 5.34943 10.3858 5.24414 10.4395C5.12439 10.5005 4.96771 10.501 4.6543 10.501H4.5791C4.32839 10.501 4.20294 10.5004 4.10352 10.4609C3.96011 10.404 3.846 10.2909 3.78906 10.1475C3.74966 10.0481 3.75 9.92234 3.75 9.67188C3.75 7.88089 3.74965 6.98466 4.03125 6.27441C4.43784 5.24906 5.25004 4.43686 6.27539 4.03027C6.98564 3.74867 7.88187 3.74902 9.67285 3.74902H10.1094Z" fill="currentColor" fill-opacity="0.8"/>
<path d="M18.3271 3.74902C20.1181 3.74902 21.0144 3.74867 21.7246 4.03027C22.75 4.43686 23.5622 5.24906 23.9688 6.27441C24.2504 6.98466 24.25 7.88089 24.25 9.67188C24.25 9.92234 24.2503 10.0481 24.2109 10.1475C24.154 10.2909 24.0399 10.404 23.8965 10.4609C23.7971 10.5004 23.6716 10.501 23.4209 10.501H23.3457C23.0323 10.501 22.8756 10.5005 22.7559 10.4395C22.6506 10.3858 22.5644 10.3006 22.5107 10.1953C22.4497 10.0755 22.4502 9.91812 22.4502 9.60449V9.22949C22.4502 7.94137 22.4499 7.29668 22.1992 6.80469C21.9787 6.37204 21.627 6.02029 21.1943 5.7998C20.7023 5.54912 20.0577 5.54883 18.7695 5.54883H17.8955C17.5822 5.54883 17.4254 5.54925 17.3057 5.48828C17.2003 5.43459 17.1142 5.34853 17.0605 5.24316C16.9997 5.12344 17 4.96425 17 4.64648C17 4.33367 16.9996 4.17677 17.0586 4.05859C17.1128 3.95009 17.2011 3.86183 17.3096 3.80762C17.4277 3.74863 17.5824 3.74902 17.8906 3.74902H18.3271Z" fill="currentColor" fill-opacity="0.8"/>
</svg>
