<svg width="28" height="28" viewBox="0 0 28 28" fill="none" xmlns="http://www.w3.org/2000/svg">
<path d="M17.4482 14.6689C18.413 14.669 19.3381 14.8319 20.1963 15.1299C20.4374 15.2136 20.5587 15.2557 20.7256 15.3701C20.9815 15.5459 21.2443 15.9155 21.3262 16.2148C21.3794 16.4099 21.3799 16.5871 21.3799 16.9404C21.3799 17.3173 21.38 17.5063 21.3066 17.6504C21.242 17.7771 21.1384 17.8807 21.0117 17.9453C20.8676 18.0185 20.6787 18.0186 20.3018 18.0186H14.5957C14.2188 18.0186 14.0298 18.0186 13.8857 17.9453C13.759 17.8807 13.6555 17.7771 13.5908 17.6504C13.5175 17.5063 13.5176 17.3172 13.5176 16.9404C13.5176 16.5863 13.5178 16.4083 13.5713 16.2129C13.6534 15.9139 13.9163 15.5447 14.1719 15.3691C14.3391 15.2544 14.4604 15.2127 14.7021 15.1289C15.5598 14.8315 16.4843 14.6689 17.4482 14.6689Z" fill="currentColor" fill-opacity="0.8"/>
<path d="M9.87012 15.7002C10.0934 15.7002 10.2051 15.7 10.2949 15.7314C10.4557 15.7877 10.5824 15.9144 10.6387 16.0752C10.67 16.1649 10.6699 16.2769 10.6699 16.5C10.6699 16.723 10.67 16.8351 10.6387 16.9248C10.5824 17.0855 10.4557 17.2123 10.2949 17.2686C10.2052 17.2999 10.0934 17.2998 9.87012 17.2998H7.46973C7.24649 17.2998 7.13469 17.2999 7.04492 17.2686C6.88419 17.2123 6.75748 17.0855 6.70117 16.9248C6.66989 16.8351 6.66992 16.723 6.66992 16.5C6.66992 16.2769 6.66984 16.1649 6.70117 16.0752C6.75745 15.9144 6.8841 15.7877 7.04492 15.7314C7.1347 15.7 7.24644 15.7002 7.46973 15.7002H9.87012Z" fill="currentColor" fill-opacity="0.8"/>
<path d="M17.4502 10.1943C18.5399 10.1945 19.4229 11.0782 19.4229 12.168C19.4226 13.2575 18.5397 14.1405 17.4502 14.1406C16.3605 14.1406 15.4769 13.2576 15.4766 12.168C15.4766 11.0781 16.3604 10.1943 17.4502 10.1943Z" fill="currentColor" fill-opacity="0.8"/>
<path d="M11.8701 10.7002C12.0934 10.7002 12.2051 10.7 12.2949 10.7314C12.4557 10.7877 12.5824 10.9144 12.6387 11.0752C12.67 11.1649 12.6699 11.2769 12.6699 11.5C12.6699 11.723 12.67 11.8351 12.6387 11.9248C12.5824 12.0855 12.4557 12.2123 12.2949 12.2686C12.2052 12.2999 12.0934 12.2998 11.8701 12.2998H7.46973C7.24649 12.2998 7.13469 12.2999 7.04492 12.2686C6.88419 12.2123 6.75748 12.0855 6.70117 11.9248C6.66989 11.8351 6.66992 11.723 6.66992 11.5C6.66992 11.2769 6.66984 11.1649 6.70117 11.0752C6.75745 10.9144 6.8841 10.7877 7.04492 10.7314C7.1347 10.7 7.24644 10.7002 7.46973 10.7002H11.8701Z" fill="currentColor" fill-opacity="0.8"/>
<path fill-rule="evenodd" clip-rule="evenodd" d="M18.3457 5C20.5857 5 21.7059 4.99968 22.5615 5.43555C23.314 5.81898 23.9261 6.43112 24.3096 7.18359C24.7455 8.03924 24.7461 9.16018 24.7461 11.4004V16.5996C24.7461 18.8398 24.7455 19.9608 24.3096 20.8164C23.9261 21.5689 23.314 22.181 22.5615 22.5645C21.7059 23.0003 20.5857 23 18.3457 23H9.65039C7.41018 23 6.28924 23.0004 5.43359 22.5645C4.68109 22.181 4.06902 21.5689 3.68555 20.8164C3.24957 19.9608 3.25 18.8398 3.25 16.5996V11.4004C3.25 9.16018 3.24957 8.03924 3.68555 7.18359C4.06902 6.43109 4.68109 5.81902 5.43359 5.43555C6.28924 4.99957 7.41018 5 9.65039 5H18.3457ZM8.73047 6.7998C7.44235 6.7998 6.79766 6.8001 6.30566 7.05078C5.87302 7.27127 5.52127 7.62302 5.30078 8.05566C5.0501 8.54766 5.0498 9.19235 5.0498 10.4805V17.5195C5.0498 18.8077 5.0501 19.4523 5.30078 19.9443C5.52127 20.377 5.87302 20.7287 6.30566 20.9492C6.79766 21.1999 7.44235 21.2002 8.73047 21.2002H19.2656C20.5535 21.2002 21.1975 21.1998 21.6895 20.9492C22.1222 20.7287 22.4748 20.3771 22.6953 19.9443C22.946 19.4523 22.9453 18.8076 22.9453 17.5195V10.4805C22.9453 9.19238 22.946 8.54766 22.6953 8.05566C22.4748 7.62289 22.1222 7.27129 21.6895 7.05078C21.1975 6.80021 20.5535 6.7998 19.2656 6.7998H8.73047Z" fill="currentColor" fill-opacity="0.8"/>
</svg>
