<svg width="28" height="28" viewBox="0 0 28 28" fill="none" xmlns="http://www.w3.org/2000/svg">
<path d="M17.4472 22.3325C17.3468 22.3651 17.238 22.3651 17.1376 22.3325C17.0236 22.2953 16.9242 22.1962 16.7265 21.9985L16.5858 21.8569C16.3879 21.6589 16.288 21.5599 16.2509 21.4458C16.2183 21.3456 16.2185 21.2374 16.2509 21.1372C16.288 21.023 16.3878 20.9231 16.5858 20.7251L22.411 14.8999L3.04287 14.8999C2.72829 14.8999 2.57031 14.8995 2.4501 14.8383C2.34465 14.7845 2.25884 14.6987 2.20498 14.5932C2.14372 14.473 2.14346 14.3149 2.14346 13.9995C2.1437 13.6846 2.14389 13.5268 2.20498 13.4067C2.25891 13.301 2.34537 13.2144 2.45108 13.1606C2.57121 13.0997 2.72874 13.1001 3.04287 13.1001L22.4101 13.1001L16.5858 7.27486C16.3879 7.07697 16.288 6.97781 16.2509 6.86373C16.2183 6.76332 16.2183 6.65458 16.2509 6.55416C16.288 6.44004 16.3879 6.34098 16.5858 6.14303L16.7265 6.00143C16.9243 5.80363 17.0236 5.70462 17.1376 5.66744C17.238 5.63484 17.3468 5.63482 17.4472 5.66744C17.5613 5.70455 17.6605 5.80361 17.8583 6.00143L24.7255 12.8686C25.1213 13.2644 25.3193 13.4626 25.3935 13.6909C25.4587 13.8917 25.4587 14.1082 25.3935 14.309C25.3193 14.5373 25.1213 14.7355 24.7255 15.1313L17.8583 21.9985C17.6604 22.1964 17.5613 22.2954 17.4472 22.3325Z" fill="currentColor"/>
</svg>
