<svg width="28" height="28" viewBox="0 0 28 28" fill="none" xmlns="http://www.w3.org/2000/svg">
<path fill-rule="evenodd" clip-rule="evenodd" d="M12.5878 4.17748L6.45587 11.4444C5.63852 12.413 5.22984 12.8974 5.2219 13.3068C5.215 13.6628 5.37261 14.002 5.64908 14.2263C5.96715 14.4843 6.60086 14.4843 7.86828 14.4843H9.62163C9.78759 14.4843 9.91957 14.6238 9.91575 14.7897C9.91033 15.0249 9.91033 15.2965 9.91033 15.6152V21.7817C9.91033 22.8599 9.91033 23.3989 10.1201 23.8107C10.3047 24.173 10.5992 24.4675 10.9614 24.652C11.3732 24.8618 11.9123 24.8618 12.9904 24.8618H15.0117C16.0898 24.8618 16.6289 24.8618 17.0407 24.652C17.4029 24.4675 17.6974 24.173 17.882 23.8107C18.0918 23.3989 18.0918 22.8599 18.0918 21.7817V15.6152C18.0918 15.2965 18.0918 15.0249 18.0864 14.7897C18.0826 14.6238 18.2145 14.4843 18.3805 14.4843H20.1322C21.3996 14.4843 22.0333 14.4843 22.3514 14.2263C22.6279 14.002 22.7855 13.6628 22.7786 13.3068C22.7707 12.8974 22.362 12.413 21.5446 11.4444L15.4126 4.17748C14.9269 3.60186 14.6841 3.31405 14.3941 3.20887C14.1396 3.11657 13.8609 3.11657 13.6064 3.20887C13.3164 3.31405 13.0736 3.60186 12.5878 4.17748Z" fill="currentColor"/>
</svg>
