<svg width="28" height="28" viewBox="0 0 28 28" fill="none" xmlns="http://www.w3.org/2000/svg">
<path fill-rule="evenodd" clip-rule="evenodd" d="M4.17748 15.4122L11.4444 21.5442C12.413 22.3615 12.8974 22.7702 13.3068 22.7781C13.6628 22.785 14.002 22.6274 14.2263 22.351C14.4843 22.0329 14.4843 21.3992 14.4843 20.1318L14.4843 18.3784C14.4843 18.2125 14.6238 18.0805 14.7897 18.0843C15.0249 18.0897 15.2965 18.0897 15.6152 18.0897L21.7817 18.0897C22.8599 18.0897 23.3989 18.0897 23.8107 17.8799C24.173 17.6953 24.4675 17.4008 24.652 17.0386C24.8618 16.6268 24.8618 16.0878 24.8618 15.0096L24.8618 12.9883C24.8618 11.9102 24.8618 11.3711 24.652 10.9593C24.4675 10.5971 24.173 10.3026 23.8107 10.1181C23.3989 9.90824 22.8599 9.90824 21.7817 9.90824L15.6152 9.90824C15.2965 9.90824 15.0249 9.90824 14.7897 9.91366C14.6238 9.91749 14.4843 9.78551 14.4843 9.61955L14.4843 7.86782C14.4843 6.60041 14.4843 5.9667 14.2263 5.64863C14.002 5.37216 13.6628 5.21454 13.3068 5.22145C12.8974 5.22939 12.413 5.63806 11.4444 6.45542L4.17748 12.5874C3.60186 13.0731 3.31405 13.316 3.20887 13.606C3.11658 13.8604 3.11658 14.1392 3.20887 14.3936C3.31405 14.6836 3.60186 14.9265 4.17748 15.4122Z" fill="currentColor"/>
</svg>
