<svg width="28" height="28" viewBox="0 0 28 28" fill="none" xmlns="http://www.w3.org/2000/svg">
<path d="M18.2354 4.27588C20.1949 4.27588 21.1752 4.27555 21.9238 4.65674C22.5824 4.99228 23.1176 5.52849 23.4531 6.18701C23.8346 6.93567 23.835 7.91548 23.835 9.87549L23.835 18.311C23.835 20.271 23.8346 21.2509 23.4531 21.9995C23.1176 22.658 22.5824 23.1942 21.9238 23.5298C21.1752 23.911 20.1949 23.9106 18.2354 23.9106L9.79493 23.9106C7.83538 23.9106 6.85504 23.911 6.10645 23.5298C5.44797 23.1942 4.9117 22.658 4.57618 21.9995C4.19496 21.2509 4.19532 20.2707 4.19532 18.311L4.19532 9.87549C4.19532 7.91586 4.19495 6.93562 4.57617 6.18701C4.9117 5.52851 5.44797 4.9923 6.10645 4.65674C6.85503 4.27552 7.83539 4.27588 9.79492 4.27588L18.2354 4.27588ZM14.623 7.83154C13.2444 7.90151 11.9832 8.41725 10.9805 9.23682C10.7639 9.41385 10.7614 9.73706 10.959 9.93506L11.2432 10.2192C11.435 10.4113 11.7437 10.4132 11.958 10.2466C12.7829 9.60506 13.8204 9.22315 14.9463 9.22315C17.6355 9.22373 19.8163 11.4039 19.8164 14.0933C19.8163 16.7826 17.6355 18.9628 14.9463 18.9634C13.8202 18.9634 12.7837 18.58 11.959 17.938C11.7448 17.7713 11.436 17.7733 11.2441 17.9653L10.96 18.2495C10.7624 18.4475 10.7649 18.7706 10.9814 18.9478C12.0618 19.8316 13.4417 20.3638 14.9463 20.3638L15.2686 20.356C18.5812 20.1877 21.2167 17.4477 21.2168 14.0933L21.208 13.771C21.0402 10.4582 18.3006 7.82332 14.9463 7.82276L14.623 7.83154ZM13.6543 11.02C13.4692 11.0155 13.292 11.0975 13.1748 11.2407C13.04 11.4061 13.0393 11.7381 13.0391 12.4009L13.0391 12.7368L11.1875 12.7329C10.9113 12.7324 10.6869 12.9568 10.6865 13.2329L10.6865 14.9292C10.6868 15.2047 10.91 15.4286 11.1856 15.4292L13.0391 15.4321L13.0381 15.7769C13.0378 16.4449 13.0375 16.78 13.1729 16.9458C13.2906 17.0896 13.4686 17.1707 13.6543 17.1655C13.8681 17.159 14.1214 16.9403 14.626 16.5034L16.7275 14.6841C16.9693 14.4748 17.0907 14.3689 17.1348 14.2446C17.1732 14.1358 17.1739 14.0163 17.1348 13.9077C17.0899 13.7838 16.9675 13.6791 16.7246 13.4712L14.623 11.6724C14.12 11.2417 13.8674 11.0258 13.6543 11.02ZM8.15918 12.729C7.88253 12.7279 7.65764 12.9524 7.65723 13.229L7.65723 14.9253C7.65747 15.2005 7.88005 15.4242 8.15528 15.4253L8.82813 15.4272C9.10468 15.4279 9.33008 15.2039 9.33008 14.9272L9.33008 13.2319C9.32982 12.957 9.1069 12.7334 8.83203 12.7319L8.15918 12.729Z" fill="black"/>
</svg>
