<svg width="28" height="28" viewBox="0 0 28 28" fill="none" xmlns="http://www.w3.org/2000/svg">
<path d="M19.803 25.192C19.257 25.248 18.333 25.276 17.031 25.276H10.899C9.597 25.276 8.666 25.248 8.106 25.192C7.546 25.15 7.07 25.031 6.678 24.835C6.314 24.653 5.978 24.408 5.67 24.1C5.376 23.806 5.131 23.47 4.935 23.092C4.739 22.7 4.62 22.231 4.578 21.685C4.536 21.125 4.515 20.194 4.515 18.892V13.285C4.515 12.235 4.529 11.486 4.557 11.038C4.585 10.576 4.662 10.184 4.788 9.862C4.998 9.358 5.292 8.917 5.67 8.539C6.062 8.147 6.51 7.846 7.014 7.636C7.322 7.524 7.686 7.454 8.106 7.426C8.54 7.384 9.212 7.363 10.122 7.363H10.647C11.053 7.363 11.256 7.566 11.256 7.972V8.455C11.256 8.721 11.2 8.91 11.088 9.022C10.976 9.12 10.808 9.169 10.584 9.169H9.975C9.233 9.169 8.701 9.183 8.379 9.211C8.057 9.225 7.784 9.288 7.56 9.4C7.098 9.638 6.762 9.974 6.552 10.408C6.44 10.646 6.37 10.926 6.342 11.248C6.314 11.556 6.3 12.081 6.3 12.823V19.795C6.3 20.537 6.314 21.069 6.342 21.391C6.37 21.713 6.44 21.986 6.552 22.21C6.762 22.672 7.098 23.008 7.56 23.218C7.784 23.33 8.057 23.4 8.379 23.428C8.701 23.456 9.233 23.47 9.975 23.47H17.955C18.697 23.47 19.222 23.456 19.53 23.428C19.852 23.4 20.132 23.33 20.37 23.218C20.818 22.994 21.147 22.658 21.357 22.21C21.469 21.986 21.539 21.713 21.567 21.391C21.595 21.069 21.609 20.537 21.609 19.795V12.823C21.609 12.081 21.595 11.556 21.567 11.248C21.539 10.926 21.469 10.646 21.357 10.408C21.147 9.974 20.818 9.638 20.37 9.4C20.132 9.288 19.852 9.225 19.53 9.211C19.222 9.183 18.697 9.169 17.955 9.169H17.367C17.143 9.169 16.968 9.12 16.842 9.022C16.716 8.924 16.653 8.742 16.653 8.476V7.972C16.653 7.748 16.709 7.594 16.821 7.51C16.947 7.412 17.101 7.363 17.283 7.363H17.766C18.704 7.363 19.383 7.384 19.803 7.426C20.237 7.454 20.608 7.531 20.916 7.657C21.42 7.853 21.861 8.147 22.239 8.539C22.631 8.917 22.925 9.358 23.121 9.862C23.261 10.184 23.345 10.576 23.373 11.038C23.401 11.486 23.415 12.235 23.415 13.285V18.892C23.415 20.194 23.387 21.125 23.331 21.685C23.289 22.231 23.17 22.7 22.974 23.092C22.792 23.47 22.547 23.806 22.239 24.1C21.945 24.408 21.609 24.653 21.231 24.835C20.839 25.031 20.363 25.15 19.803 25.192ZM13.965 19.732C13.699 19.732 13.419 19.585 13.125 19.291L9.03 15.238C8.834 15.042 8.729 14.867 8.715 14.713C8.715 14.545 8.778 14.398 8.904 14.272L9.366 13.81C9.492 13.684 9.625 13.628 9.765 13.642C9.905 13.642 10.031 13.698 10.143 13.81L13.062 16.687V3.541C13.062 3.387 13.111 3.254 13.209 3.142C13.321 3.03 13.454 2.974 13.608 2.974H14.301C14.455 2.974 14.588 3.03 14.7 3.142C14.812 3.254 14.868 3.387 14.868 3.541V16.687L17.724 13.831C17.836 13.719 17.962 13.656 18.102 13.642C18.256 13.614 18.41 13.67 18.564 13.81L19.005 14.23C19.145 14.37 19.208 14.524 19.194 14.692C19.18 14.846 19.117 14.979 19.005 15.091L14.784 19.291C14.504 19.571 14.231 19.718 13.965 19.732Z" fill="currentColor"/>
</svg>
