<svg width="28" height="28" viewBox="0 0 28 28" fill="none" xmlns="http://www.w3.org/2000/svg">
<path d="M21.042 24.625C20.468 24.681 19.509 24.709 18.165 24.709H14.49C13.118 24.709 12.145 24.681 11.571 24.625C10.997 24.583 10.507 24.457 10.101 24.247C9.373 23.841 8.82 23.288 8.442 22.588C8.232 22.182 8.099 21.713 8.043 21.181C8.001 20.635 7.98 19.795 7.98 18.661V18.136C7.98 17.982 8.029 17.849 8.127 17.737C8.239 17.625 8.386 17.569 8.568 17.569H9.177C9.387 17.569 9.541 17.625 9.639 17.737C9.737 17.835 9.786 17.968 9.786 18.136V19.627C9.786 20.187 9.8 20.621 9.828 20.929C9.856 21.223 9.926 21.482 10.038 21.706C10.276 22.126 10.598 22.441 11.004 22.651C11.242 22.777 11.522 22.854 11.844 22.882C12.166 22.91 12.719 22.924 13.503 22.924H19.11C19.894 22.924 20.447 22.91 20.769 22.882C21.091 22.854 21.371 22.777 21.609 22.651C22.001 22.455 22.323 22.14 22.575 21.706C22.687 21.482 22.757 21.202 22.785 20.866C22.813 20.53 22.827 19.977 22.827 19.207V10.051C22.827 9.281 22.813 8.728 22.785 8.392C22.757 8.056 22.687 7.776 22.575 7.552C22.323 7.118 22.001 6.803 21.609 6.607C21.371 6.481 21.091 6.404 20.769 6.376C20.447 6.348 19.894 6.334 19.11 6.334H13.503C12.719 6.334 12.166 6.348 11.844 6.376C11.522 6.404 11.242 6.481 11.004 6.607C10.598 6.817 10.276 7.132 10.038 7.552C9.926 7.776 9.856 8.042 9.828 8.35C9.8 8.644 9.786 9.071 9.786 9.631V11.101C9.786 11.283 9.73 11.423 9.618 11.521C9.52 11.619 9.38 11.668 9.198 11.668H8.589C8.407 11.668 8.26 11.619 8.148 11.521C8.036 11.423 7.98 11.283 7.98 11.101V10.534C7.98 9.414 8.001 8.588 8.043 8.056C8.099 7.524 8.232 7.062 8.442 6.67C8.638 6.306 8.876 5.984 9.156 5.704C9.436 5.424 9.751 5.193 10.101 5.011C10.507 4.801 10.997 4.675 11.571 4.633C12.145 4.577 13.104 4.549 14.448 4.549H18.165C19.509 4.549 20.468 4.577 21.042 4.633C21.616 4.675 22.106 4.801 22.512 5.011C22.862 5.193 23.177 5.424 23.457 5.704C23.751 5.984 23.989 6.306 24.171 6.67C24.381 7.062 24.507 7.545 24.549 8.119C24.605 8.693 24.633 9.652 24.633 10.996V18.241C24.633 19.585 24.605 20.544 24.549 21.118C24.507 21.692 24.381 22.182 24.171 22.588C23.793 23.288 23.24 23.841 22.512 24.247C22.106 24.457 21.616 24.583 21.042 24.625ZM19.467 14.629C19.481 14.853 19.362 15.084 19.11 15.322L14.784 19.669C14.672 19.781 14.532 19.844 14.364 19.858C14.196 19.858 14.028 19.767 13.86 19.585L13.503 19.207C13.363 19.067 13.3 18.927 13.314 18.787C13.342 18.633 13.412 18.5 13.524 18.388L16.38 15.511H3.885C3.731 15.511 3.598 15.462 3.486 15.364C3.374 15.252 3.318 15.119 3.318 14.965V14.293C3.318 14.139 3.374 14.006 3.486 13.894C3.598 13.782 3.731 13.726 3.885 13.726H16.359L13.461 10.807C13.363 10.695 13.307 10.569 13.293 10.429C13.293 10.289 13.363 10.149 13.503 10.009L13.944 9.568C14.084 9.428 14.224 9.372 14.364 9.4C14.518 9.414 14.651 9.477 14.763 9.589L19.131 13.957C19.355 14.167 19.467 14.391 19.467 14.629Z" fill="currentColor"/>
</svg>
