<svg width="28" height="28" viewBox="0 0 28 28" fill="none" xmlns="http://www.w3.org/2000/svg">
<path d="M6.153 23.134C5.929 23.134 5.768 23.078 5.67 22.966C5.572 22.854 5.523 22.679 5.523 22.441V20.572C5.523 19.662 5.53 18.801 5.544 17.989C5.558 17.163 5.586 16.477 5.628 15.931C5.684 15.287 5.768 14.713 5.88 14.209C6.006 13.705 6.181 13.243 6.405 12.823C6.783 12.081 7.266 11.416 7.854 10.828C8.442 10.226 9.107 9.736 9.849 9.358C10.269 9.134 10.724 8.966 11.214 8.854C11.718 8.742 12.299 8.658 12.957 8.602C13.769 8.546 15.316 8.518 17.598 8.518L22.764 8.539L18.48 4.276C18.284 4.094 18.186 3.926 18.186 3.772C18.2 3.618 18.291 3.457 18.459 3.289L18.774 2.974C18.942 2.806 19.103 2.729 19.257 2.743C19.411 2.743 19.579 2.834 19.761 3.016L25.473 8.728C25.669 8.924 25.767 9.162 25.767 9.442C25.767 9.722 25.669 9.96 25.473 10.156L19.887 15.763C19.607 16.043 19.39 16.183 19.236 16.183C19.096 16.183 18.914 16.071 18.69 15.847L18.543 15.7C18.305 15.462 18.186 15.266 18.186 15.112C18.2 14.958 18.34 14.748 18.606 14.482L22.764 10.345L17.64 10.324H16.8C14.98 10.324 13.748 10.352 13.104 10.408C12.544 10.45 12.068 10.52 11.676 10.618C11.298 10.702 10.955 10.821 10.647 10.975C10.073 11.255 9.555 11.626 9.093 12.088C8.645 12.536 8.274 13.047 7.98 13.621C7.7 14.209 7.518 15.028 7.434 16.078C7.392 16.596 7.364 17.254 7.35 18.052C7.336 18.836 7.329 19.69 7.329 20.614V22.441C7.329 22.679 7.28 22.854 7.182 22.966C7.084 23.078 6.909 23.134 6.657 23.134H6.153Z" fill="currentColor"/>
</svg>
