<svg width="28" height="28" viewBox="0 0 28 28" fill="none" xmlns="http://www.w3.org/2000/svg">
<path d="M13.881 24.1C13.307 24.156 12.334 24.184 10.962 24.184H8.967C7.623 24.184 6.664 24.156 6.09 24.1C5.516 24.058 5.026 23.932 4.62 23.722C3.892 23.316 3.339 22.763 2.961 22.063C2.751 21.657 2.618 21.167 2.562 20.593C2.52 20.019 2.499 19.06 2.499 17.716V10.471C2.499 9.127 2.52 8.168 2.562 7.594C2.618 7.02 2.751 6.537 2.961 6.145C3.157 5.781 3.395 5.459 3.675 5.179C3.955 4.899 4.27 4.668 4.62 4.486C5.026 4.276 5.516 4.15 6.09 4.108C6.664 4.052 7.623 4.024 8.967 4.024H11.004C12.348 4.024 13.307 4.052 13.881 4.108C14.455 4.15 14.945 4.276 15.351 4.486C15.701 4.668 16.016 4.899 16.296 5.179C16.59 5.459 16.828 5.781 17.01 6.145C17.22 6.537 17.346 6.999 17.388 7.531C17.444 8.063 17.472 8.889 17.472 10.009V10.576C17.472 10.758 17.416 10.898 17.304 10.996C17.192 11.094 17.045 11.143 16.863 11.143H16.254C16.072 11.143 15.925 11.094 15.813 10.996C15.715 10.898 15.666 10.758 15.666 10.576V9.106C15.666 8.546 15.652 8.119 15.624 7.825C15.596 7.517 15.526 7.251 15.414 7.027C15.176 6.607 14.854 6.292 14.448 6.082C14.21 5.956 13.93 5.879 13.608 5.851C13.286 5.823 12.733 5.809 11.949 5.809H8.022C7.238 5.809 6.685 5.823 6.363 5.851C6.041 5.879 5.761 5.956 5.523 6.082C5.131 6.278 4.809 6.593 4.557 7.027C4.445 7.251 4.375 7.531 4.347 7.867C4.319 8.203 4.305 8.756 4.305 9.526V18.682C4.305 19.452 4.319 20.005 4.347 20.341C4.375 20.677 4.445 20.957 4.557 21.181C4.809 21.615 5.131 21.93 5.523 22.126C5.761 22.252 6.041 22.329 6.363 22.357C6.685 22.385 7.238 22.399 8.022 22.399H11.949C12.733 22.399 13.286 22.385 13.608 22.357C13.93 22.329 14.21 22.252 14.448 22.126C14.854 21.916 15.176 21.601 15.414 21.181C15.526 20.957 15.596 20.698 15.624 20.404C15.652 20.096 15.666 19.662 15.666 19.102V17.611C15.666 17.443 15.715 17.31 15.813 17.212C15.911 17.1 16.065 17.044 16.275 17.044H16.884C17.066 17.044 17.206 17.1 17.304 17.212C17.416 17.324 17.472 17.457 17.472 17.611V18.136C17.472 19.27 17.444 20.11 17.388 20.656C17.346 21.188 17.22 21.657 17.01 22.063C16.632 22.763 16.079 23.316 15.351 23.722C14.945 23.932 14.455 24.058 13.881 24.1ZM9.471 13.369C9.583 13.257 9.716 13.201 9.87 13.201H22.344L19.446 10.282C19.348 10.17 19.292 10.044 19.278 9.904C19.278 9.764 19.348 9.624 19.488 9.484L19.929 9.043C20.069 8.903 20.209 8.847 20.349 8.875C20.503 8.889 20.636 8.952 20.748 9.064L25.116 13.432C25.34 13.642 25.452 13.866 25.452 14.104C25.466 14.328 25.347 14.559 25.095 14.797L20.769 19.144C20.657 19.256 20.517 19.319 20.349 19.333C20.181 19.333 20.013 19.242 19.845 19.06L19.488 18.682C19.348 18.542 19.285 18.402 19.299 18.262C19.327 18.108 19.397 17.975 19.509 17.863L22.365 14.986H9.87C9.716 14.986 9.583 14.937 9.471 14.839C9.359 14.727 9.303 14.594 9.303 14.44V13.768C9.303 13.614 9.359 13.481 9.471 13.369Z" fill="currentColor"/>
</svg>
