<svg width="28" height="28" viewBox="0 0 28 28" fill="none" xmlns="http://www.w3.org/2000/svg">
<path d="M6.174 6.607L17.073 6.565C18.361 6.565 19.572 6.866 20.706 7.468C21.84 8.056 22.771 8.889 23.499 9.967C24.227 11.045 24.647 12.27 24.759 13.642C24.787 13.838 24.745 13.992 24.633 14.104C24.535 14.216 24.367 14.272 24.129 14.272H23.646C23.422 14.272 23.261 14.223 23.163 14.125C23.065 14.027 22.995 13.831 22.953 13.537C22.827 12.557 22.484 11.675 21.924 10.891C21.378 10.093 20.678 9.47 19.824 9.022C18.97 8.574 18.053 8.35 17.073 8.35L6.174 8.392L8.337 10.597C8.505 10.765 8.596 10.926 8.61 11.08C8.638 11.22 8.575 11.367 8.421 11.521L8.064 11.899C7.924 12.053 7.777 12.137 7.623 12.151C7.469 12.151 7.329 12.088 7.203 11.962L3.444 8.203C3.234 7.993 3.129 7.755 3.129 7.489C3.129 7.223 3.241 6.978 3.465 6.754L7.203 3.037C7.329 2.911 7.462 2.855 7.602 2.869C7.756 2.869 7.91 2.946 8.064 3.1L8.379 3.415C8.547 3.583 8.624 3.744 8.61 3.898C8.61 4.052 8.526 4.22 8.358 4.402L6.174 6.607ZM8.085 19.27C8.925 19.704 9.835 19.921 10.815 19.921L21.735 19.879L19.488 17.611C19.32 17.443 19.243 17.289 19.257 17.149C19.285 16.995 19.404 16.813 19.614 16.603L19.824 16.393C19.992 16.225 20.146 16.141 20.286 16.141C20.44 16.127 20.594 16.197 20.748 16.351L24.465 20.047C24.661 20.243 24.766 20.474 24.78 20.74C24.794 21.006 24.689 21.251 24.465 21.475L20.79 25.15C20.622 25.318 20.461 25.402 20.307 25.402C20.167 25.416 20.013 25.339 19.845 25.171L19.509 24.835C19.341 24.667 19.257 24.506 19.257 24.352C19.271 24.198 19.369 24.03 19.551 23.848L21.735 21.664L10.815 21.706C9.513 21.706 8.302 21.405 7.182 20.803C6.062 20.201 5.138 19.368 4.41 18.304C3.696 17.24 3.269 16.05 3.129 14.734C3.101 14.51 3.143 14.335 3.255 14.209C3.367 14.069 3.535 13.999 3.759 13.999H4.158C4.466 13.999 4.662 14.062 4.746 14.188C4.844 14.3 4.914 14.538 4.956 14.902C5.096 15.84 5.439 16.694 5.985 17.464C6.545 18.22 7.245 18.822 8.085 19.27Z" fill="currentColor"/>
</svg>
