<svg width="28" height="28" viewBox="0 0 28 28" fill="none" xmlns="http://www.w3.org/2000/svg">
<path d="M19.803 26.368C19.257 26.41 18.333 26.431 17.031 26.431H10.899C9.597 26.431 8.666 26.41 8.106 26.368C7.546 26.326 7.07 26.207 6.678 26.011C6.314 25.815 5.978 25.563 5.67 25.255C5.376 24.961 5.131 24.632 4.935 24.268C4.739 23.876 4.62 23.4 4.578 22.84C4.536 22.294 4.515 21.363 4.515 20.047V15.448C4.515 14.398 4.529 13.649 4.557 13.201C4.585 12.753 4.662 12.368 4.788 12.046C4.998 11.528 5.292 11.08 5.67 10.702C6.062 10.31 6.51 10.016 7.014 9.82C7.336 9.68 7.728 9.596 8.19 9.568C8.666 9.54 9.478 9.526 10.626 9.526C10.822 9.526 10.976 9.582 11.088 9.694C11.2 9.792 11.256 9.946 11.256 10.156V10.639C11.256 10.891 11.2 11.073 11.088 11.185C10.99 11.283 10.822 11.332 10.584 11.332H9.975C9.233 11.332 8.701 11.346 8.379 11.374C8.057 11.402 7.784 11.472 7.56 11.584C7.112 11.794 6.776 12.123 6.552 12.571C6.44 12.809 6.37 13.089 6.342 13.411C6.314 13.719 6.3 14.251 6.3 15.007V20.971C6.3 21.727 6.314 22.259 6.342 22.567C6.37 22.889 6.44 23.162 6.552 23.386C6.762 23.806 7.098 24.142 7.56 24.394C7.784 24.506 8.057 24.576 8.379 24.604C8.701 24.632 9.233 24.646 9.975 24.646H17.955C18.697 24.646 19.222 24.632 19.53 24.604C19.852 24.576 20.132 24.506 20.37 24.394C20.832 24.142 21.161 23.806 21.357 23.386C21.469 23.162 21.539 22.889 21.567 22.567C21.595 22.259 21.609 21.727 21.609 20.971V15.007C21.609 14.251 21.595 13.719 21.567 13.411C21.539 13.089 21.469 12.809 21.357 12.571C21.133 12.137 20.804 11.808 20.37 11.584C20.132 11.472 19.852 11.402 19.53 11.374C19.222 11.346 18.697 11.332 17.955 11.332H17.325C17.115 11.332 16.947 11.283 16.821 11.185C16.709 11.087 16.653 10.905 16.653 10.639V10.156C16.653 9.946 16.709 9.792 16.821 9.694C16.947 9.582 17.094 9.526 17.262 9.526H17.745C18.683 9.526 19.369 9.547 19.803 9.589C20.237 9.617 20.608 9.694 20.916 9.82C21.42 10.016 21.861 10.31 22.239 10.702C22.631 11.08 22.925 11.521 23.121 12.025C23.261 12.347 23.345 12.739 23.373 13.201C23.401 13.649 23.415 14.398 23.415 15.448V20.047C23.415 21.363 23.387 22.294 23.331 22.84C23.289 23.4 23.17 23.876 22.974 24.268C22.792 24.632 22.547 24.961 22.239 25.255C21.945 25.563 21.609 25.815 21.231 26.011C20.839 26.207 20.363 26.326 19.803 26.368ZM14.679 18.913C14.581 19.011 14.441 19.06 14.259 19.06H13.692C13.482 19.06 13.321 19.011 13.209 18.913C13.111 18.815 13.062 18.661 13.062 18.451V4.906L10.269 7.699C10.101 7.867 9.94 7.958 9.786 7.972C9.646 7.986 9.499 7.916 9.345 7.762L8.904 7.321C8.764 7.181 8.701 7.041 8.715 6.901C8.729 6.747 8.785 6.628 8.883 6.544L13.356 2.071C13.538 1.889 13.741 1.805 13.965 1.819C14.189 1.819 14.399 1.917 14.595 2.113L18.921 6.439C19.103 6.621 19.194 6.789 19.194 6.943C19.194 7.083 19.096 7.251 18.9 7.447L18.669 7.678C18.473 7.874 18.291 7.972 18.123 7.972C17.969 7.958 17.808 7.867 17.64 7.699L14.847 4.906V18.451C14.847 18.647 14.791 18.801 14.679 18.913Z" fill="currentColor"/>
</svg>
