<svg width="28" height="28" viewBox="0 0 28 28" fill="none" xmlns="http://www.w3.org/2000/svg">
<path d="M8.295 6.187C8.393 6.313 8.442 6.467 8.442 6.649V19.942L9.891 18.514C10.003 18.402 10.122 18.353 10.248 18.367C10.374 18.367 10.493 18.423 10.605 18.535L11.109 19.039C11.249 19.165 11.319 19.291 11.319 19.417C11.319 19.543 11.256 19.669 11.13 19.795L8.274 22.651C8.064 22.861 7.826 22.966 7.56 22.966C7.294 22.98 7.063 22.889 6.867 22.693L3.948 19.774C3.85 19.676 3.794 19.564 3.78 19.438C3.78 19.312 3.843 19.186 3.969 19.06L4.515 18.514C4.613 18.416 4.725 18.367 4.851 18.367C4.977 18.353 5.103 18.409 5.229 18.535L6.657 19.942V6.649C6.657 6.467 6.699 6.313 6.783 6.187C6.881 6.061 7.035 5.998 7.245 5.998H7.875C8.071 5.998 8.211 6.061 8.295 6.187ZM23.919 22.231C23.807 22.329 23.653 22.378 23.457 22.378H12.852C12.656 22.378 12.495 22.329 12.369 22.231C12.257 22.133 12.201 21.979 12.201 21.769V21.139C12.201 20.957 12.264 20.817 12.39 20.719C12.516 20.621 12.67 20.572 12.852 20.572H23.457C23.653 20.572 23.807 20.621 23.919 20.719C24.045 20.803 24.108 20.95 24.108 21.16V21.79C24.108 22 24.045 22.147 23.919 22.231ZM23.919 15.154C23.807 15.238 23.653 15.28 23.457 15.28H12.852C12.656 15.28 12.495 15.231 12.369 15.133C12.257 15.035 12.201 14.881 12.201 14.671V14.041C12.201 13.859 12.264 13.719 12.39 13.621C12.516 13.523 12.67 13.474 12.852 13.474H23.457C23.653 13.474 23.807 13.523 23.919 13.621C24.045 13.705 24.108 13.852 24.108 14.062V14.692C24.108 14.902 24.045 15.056 23.919 15.154ZM23.919 8.077C23.807 8.161 23.653 8.203 23.457 8.203H12.852C12.656 8.203 12.495 8.154 12.369 8.056C12.257 7.958 12.201 7.804 12.201 7.594V6.964C12.201 6.782 12.264 6.642 12.39 6.544C12.516 6.446 12.67 6.397 12.852 6.397H23.457C23.653 6.397 23.807 6.446 23.919 6.544C24.045 6.628 24.108 6.775 24.108 6.985V7.615C24.108 7.825 24.045 7.979 23.919 8.077Z" fill="currentColor"/>
</svg>
