<svg width="28" height="28" viewBox="0 0 28 28" fill="none" xmlns="http://www.w3.org/2000/svg">
<path d="M10.29 8.497C12.586 8.497 14.133 8.525 14.931 8.581C15.575 8.637 16.149 8.728 16.653 8.854C17.157 8.966 17.626 9.127 18.06 9.337C18.802 9.715 19.467 10.198 20.055 10.786C20.643 11.374 21.133 12.046 21.525 12.802C21.735 13.222 21.896 13.684 22.008 14.188C22.134 14.692 22.225 15.266 22.281 15.91C22.323 16.442 22.351 17.121 22.365 17.947C22.379 18.773 22.386 19.641 22.386 20.551V22.441C22.386 22.665 22.33 22.833 22.218 22.945C22.12 23.057 21.931 23.113 21.651 23.113H21.252C21.014 23.113 20.839 23.05 20.727 22.924C20.629 22.812 20.58 22.651 20.58 22.441V20.593C20.58 19.669 20.573 18.815 20.559 18.031C20.559 17.233 20.538 16.575 20.496 16.057C20.44 15.497 20.363 15.021 20.265 14.629C20.181 14.237 20.062 13.894 19.908 13.6C19.614 13.026 19.236 12.515 18.774 12.067C18.326 11.605 17.815 11.234 17.241 10.954C16.933 10.8 16.583 10.681 16.191 10.597C15.813 10.499 15.344 10.429 14.784 10.387C13.944 10.331 12.719 10.303 11.109 10.303H10.269L5.145 10.324L9.324 14.503C9.548 14.727 9.667 14.916 9.681 15.07C9.709 15.224 9.618 15.406 9.408 15.616L9.135 15.889C8.939 16.085 8.764 16.176 8.61 16.162C8.47 16.134 8.302 16.022 8.106 15.826L2.415 10.135C2.205 9.925 2.093 9.694 2.079 9.442C2.079 9.176 2.191 8.931 2.415 8.707L8.232 2.911C8.344 2.799 8.477 2.736 8.631 2.722C8.785 2.708 8.939 2.778 9.093 2.932L9.492 3.331C9.66 3.499 9.73 3.653 9.702 3.793C9.674 3.933 9.597 4.066 9.471 4.192L5.145 8.518L10.29 8.497Z" fill="currentColor"/>
</svg>
