<svg width="28" height="28" viewBox="0 0 28 28" fill="none" xmlns="http://www.w3.org/2000/svg">
<path d="M19.341 23.407C17.703 24.373 15.911 24.856 13.965 24.856C12.019 24.856 10.227 24.373 8.589 23.407C6.951 22.455 5.649 21.16 4.683 19.522C3.717 17.884 3.234 16.092 3.234 14.146C3.234 12.2 3.717 10.408 4.683 8.77C5.649 7.132 6.951 5.83 8.589 4.864C10.227 3.898 12.019 3.415 13.965 3.415C15.911 3.415 17.703 3.898 19.341 4.864C20.979 5.83 22.274 7.132 23.226 8.77C24.192 10.408 24.675 12.2 24.675 14.146C24.675 16.092 24.192 17.884 23.226 19.522C22.274 21.16 20.979 22.455 19.341 23.407ZM9.471 21.874C10.843 22.672 12.341 23.071 13.965 23.071C15.589 23.071 17.08 22.672 18.438 21.874C19.81 21.062 20.895 19.977 21.693 18.619C22.491 17.247 22.89 15.756 22.89 14.146C22.89 12.522 22.491 11.031 21.693 9.673C20.895 8.301 19.81 7.216 18.438 6.418C17.08 5.62 15.589 5.221 13.965 5.221C12.341 5.221 10.843 5.62 9.471 6.418C8.113 7.216 7.035 8.301 6.237 9.673C5.439 11.031 5.04 12.522 5.04 14.146C5.04 15.756 5.439 17.247 6.237 18.619C7.035 19.977 8.113 21.062 9.471 21.874ZM14.7 19.585C14.602 19.697 14.448 19.753 14.238 19.753H13.65C13.468 19.753 13.321 19.697 13.209 19.585C13.111 19.473 13.062 19.319 13.062 19.123V11.563L10.416 14.209C10.29 14.335 10.15 14.405 9.996 14.419C9.842 14.433 9.695 14.363 9.555 14.209L9.135 13.747C9.009 13.607 8.946 13.474 8.946 13.348C8.96 13.208 9.023 13.082 9.135 12.97L13.272 8.812C13.468 8.616 13.699 8.525 13.965 8.539C14.245 8.539 14.49 8.644 14.7 8.854L18.795 12.97C18.893 13.068 18.949 13.194 18.963 13.348C18.991 13.488 18.935 13.628 18.795 13.768L18.333 14.23C18.193 14.37 18.046 14.433 17.892 14.419C17.752 14.391 17.626 14.321 17.514 14.209L14.868 11.563V19.123C14.868 19.319 14.812 19.473 14.7 19.585Z" fill="currentColor"/>
</svg>
