<svg width="28" height="28" viewBox="0 0 28 28" fill="none" xmlns="http://www.w3.org/2000/svg">
<path d="M9.261 3.583C9.401 3.583 9.527 3.639 9.639 3.751L19.656 13.768C19.754 13.866 19.803 13.992 19.803 14.146C19.803 14.3 19.747 14.433 19.635 14.545L9.681 24.478C9.541 24.618 9.394 24.681 9.24 24.667C9.1 24.667 8.932 24.569 8.736 24.373L8.358 23.995C8.232 23.869 8.162 23.736 8.148 23.596C8.134 23.456 8.183 23.33 8.295 23.218L17.346 14.146L8.295 5.095C8.183 4.983 8.127 4.85 8.127 4.696C8.141 4.542 8.197 4.409 8.295 4.297L8.904 3.709C9.002 3.611 9.121 3.569 9.261 3.583Z" fill="black"/>
</svg>
