<svg width="28" height="28" viewBox="0 0 28 28" fill="none" xmlns="http://www.w3.org/2000/svg">
<path d="M8.127 14.146C8.127 13.992 8.176 13.866 8.274 13.768L18.291 3.751C18.403 3.639 18.529 3.583 18.669 3.583C18.809 3.569 18.928 3.611 19.026 3.709L19.635 4.297C19.733 4.409 19.782 4.542 19.782 4.696C19.796 4.85 19.747 4.983 19.635 5.095L10.584 14.146L19.635 23.218C19.747 23.33 19.796 23.456 19.782 23.596C19.768 23.736 19.698 23.869 19.572 23.995L19.194 24.373C18.998 24.569 18.823 24.667 18.669 24.667C18.529 24.681 18.389 24.618 18.249 24.478L8.295 14.545C8.183 14.433 8.127 14.3 8.127 14.146Z" fill="black"/>
</svg>
